<svg xmlns="http://www.w3.org/2000/svg" xmlns:xlink="http://www.w3.org/1999/xlink" width="1080" zoomAndPan="magnify" viewBox="0 0 810 809.999993" height="1080" preserveAspectRatio="xMidYMid meet" version="1.0"><defs><clipPath id="0be6d30992"><path d="M 236.320312 226.386719 L 284.804688 226.386719 L 284.804688 274.871094 L 236.320312 274.871094 Z M 236.320312 226.386719 " clip-rule="nonzero"/></clipPath><clipPath id="0d48631203"><path d="M 260.5625 226.386719 C 247.171875 226.386719 236.320312 237.242188 236.320312 250.628906 C 236.320312 264.015625 247.171875 274.871094 260.5625 274.871094 C 273.949219 274.871094 284.804688 264.015625 284.804688 250.628906 C 284.804688 237.242188 273.949219 226.386719 260.5625 226.386719 Z M 260.5625 226.386719 " clip-rule="nonzero"/></clipPath><clipPath id="0e16d88cba"><path d="M 0.320312 0.386719 L 48.804688 0.386719 L 48.804688 48.871094 L 0.320312 48.871094 Z M 0.320312 0.386719 " clip-rule="nonzero"/></clipPath><clipPath id="16e37a4fd9"><path d="M 24.5625 0.386719 C 11.171875 0.386719 0.320312 11.242188 0.320312 24.628906 C 0.320312 38.015625 11.171875 48.871094 24.5625 48.871094 C 37.949219 48.871094 48.804688 38.015625 48.804688 24.628906 C 48.804688 11.242188 37.949219 0.386719 24.5625 0.386719 Z M 24.5625 0.386719 " clip-rule="nonzero"/></clipPath><clipPath id="4e4a5d43d4"><rect x="0" width="49" y="0" height="49"/></clipPath></defs><path fill="#6c4dd3" d="M 503.964844 221.902344 L 551.761719 134.332031 C 539.605469 139.738281 527.496094 145.832031 515.648438 152.710938 C 473.496094 177.195312 438.949219 208.207031 416.261719 239.308594 L 481.46875 236.023438 C 490.925781 235.558594 499.453125 230.199219 503.964844 221.902344 Z M 503.964844 221.902344 " fill-opacity="1" fill-rule="nonzero"/><path fill="#6c4dd3" d="M 567.746094 48.289062 C 554.570312 41.039062 538.078125 45.949219 530.878906 59.121094 L 528.050781 64.308594 C 542.019531 58.558594 555.921875 53.816406 569.777344 49.992188 C 569.03125 49.484375 568.558594 48.730469 567.746094 48.289062 Z M 567.746094 48.289062 " fill-opacity="1" fill-rule="nonzero"/><path fill="#6c4dd3" d="M 258.027344 82.144531 C 262.789062 76.449219 269.484375 72.953125 276.875 72.296875 C 277.707031 72.222656 278.535156 72.1875 279.359375 72.1875 C 290.691406 72.1875 300.230469 78.953125 304.542969 88.769531 L 316.132812 87.738281 C 318.910156 76.554688 328.226562 67.730469 340.332031 66.648438 C 341.167969 66.578125 341.996094 66.539062 342.816406 66.539062 C 348.285156 66.539062 353.121094 68.476562 357.417969 71.183594 C 352.460938 40.695312 329.40625 14.957031 297.335938 8.464844 C 255.957031 0.0859375 215.609375 26.84375 207.230469 68.226562 C 205.21875 78.175781 205.335938 88.039062 207.097656 97.4375 L 252.628906 93.386719 C 253.628906 89.320312 255.265625 85.449219 258.027344 82.144531 Z M 258.027344 82.144531 " fill-opacity="1" fill-rule="nonzero"/><path fill="#6c4dd3" d="M 342.777344 122.097656 C 342.773438 122.097656 342.773438 122.097656 342.773438 122.097656 C 328.296875 122.097656 316.410156 111.214844 315.128906 96.785156 C 315.101562 96.484375 315.238281 96.21875 315.222656 95.921875 L 306.765625 96.671875 C 306.804688 96.96875 306.972656 97.207031 307.003906 97.507812 C 308.359375 112.757812 297.054688 126.277344 281.796875 127.636719 C 280.964844 127.710938 280.136719 127.746094 279.316406 127.746094 C 264.835938 127.746094 252.953125 116.863281 251.667969 102.425781 C 251.640625 102.132812 251.773438 101.863281 251.757812 101.566406 L 209.285156 105.347656 C 217.171875 131.417969 238.429688 152.550781 266.992188 158.332031 C 300.167969 165.046875 332.371094 148.980469 348.28125 121.109375 C 347.242188 121.324219 346.332031 121.894531 345.257812 121.988281 C 344.425781 122.0625 343.597656 122.097656 342.777344 122.097656 Z M 342.777344 122.097656 " fill-opacity="1" fill-rule="nonzero"/><path fill="#6c4dd3" d="M 188.5625 485.578125 L 120.613281 525.042969 L 120.613281 767.714844 C 120.613281 790.921875 139.429688 809.722656 162.625 809.722656 C 185.824219 809.722656 204.636719 790.925781 204.636719 767.714844 L 204.636719 492.699219 C 204.539062 492.6875 204.4375 492.691406 204.339844 492.675781 C 198.398438 491.832031 193.226562 489.09375 188.5625 485.578125 Z M 188.5625 485.578125 " fill-opacity="1" fill-rule="nonzero"/><path fill="#6c4dd3" d="M 136.082031 420.839844 C 131.625 417.789062 127.109375 414.75 122.605469 411.738281 C 122.40625 411.605469 122.210938 411.472656 122.011719 411.339844 L 121.757812 412.589844 C 121.375 414.472656 121.730469 416.277344 121.753906 418.125 C 121.480469 420.054688 120.613281 421.769531 120.613281 423.777344 L 120.613281 429.824219 Z M 136.082031 420.839844 " fill-opacity="1" fill-rule="nonzero"/><path fill="#6c4dd3" d="M 304.414062 767.714844 L 304.414062 436.652344 L 308.625 415.851562 L 244.035156 453.367188 C 244.035156 456.550781 244.398438 459.613281 243.921875 462.957031 C 242.03125 476.257812 232.578125 486.820312 220.390625 490.976562 L 220.390625 767.714844 C 220.390625 790.921875 239.207031 809.722656 262.402344 809.722656 C 285.601562 809.722656 304.414062 790.925781 304.414062 767.714844 Z M 304.414062 767.714844 " fill-opacity="1" fill-rule="nonzero"/><path fill="#6c4dd3" d="M 317.0625 399.164062 C 326.113281 393.90625 331.332031 384.609375 331.8125 374.882812 L 370.453125 352.441406 C 370.546875 352.597656 370.617188 352.761719 370.703125 352.917969 C 387.660156 382.101562 422.839844 398.011719 470.132812 398.011719 C 471.9375 398.011719 473.761719 397.988281 475.59375 397.941406 C 523.789062 396.722656 578.652344 379.605469 630.078125 349.742188 C 681.503906 319.871094 723.554688 280.703125 748.492188 239.441406 C 774.394531 196.605469 778.964844 156.328125 761.367188 126.027344 L 742.800781 94.070312 C 725.207031 63.777344 687.882812 47.773438 637.917969 49.042969 C 589.722656 50.261719 534.859375 67.382812 483.433594 97.246094 C 432.007812 127.113281 389.957031 166.285156 365.011719 207.542969 C 339.121094 250.382812 334.550781 290.660156 352.144531 320.960938 C 352.417969 321.4375 352.742188 321.875 353.023438 322.339844 L 314.347656 344.804688 C 305.660156 340.402344 294.996094 340.332031 285.949219 345.585938 L 210.160156 389.601562 C 226.929688 404.691406 239.730469 421.75 243.3125 441.996094 Z M 510.527344 143.898438 C 563.375 113.203125 618 97.617188 662.210938 97.617188 C 692.675781 97.617188 718.15625 105.054688 734.746094 120.015625 C 739.574219 142.3125 733.03125 169.523438 715.402344 198.699219 C 691.90625 237.558594 651.988281 274.628906 602.984375 303.085938 C 513.671875 354.957031 419.316406 363.652344 378.691406 326.910156 C 366.910156 273.417969 421.21875 195.765625 510.527344 143.898438 Z M 510.527344 143.898438 " fill-opacity="1" fill-rule="nonzero"/><path fill="#6c4dd3" d="M 174.453125 454.5 C 173.859375 453.222656 171.796875 449.601562 165.488281 443.550781 C 159.90625 438.199219 152.90625 432.742188 145.296875 427.273438 L 49.765625 482.753906 C 35.566406 491.003906 30.738281 509.203125 38.988281 523.40625 L 40.230469 525.546875 C 48.476562 539.753906 66.679688 544.578125 80.878906 536.328125 L 180.894531 478.246094 C 175.9375 471.292969 173.585938 462.980469 174.453125 454.5 Z M 174.453125 454.5 " fill-opacity="1" fill-rule="nonzero"/><path fill="#6c4dd3" d="M 126.917969 405.222656 C 142.941406 415.925781 159.503906 426.988281 170.898438 437.910156 C 180.84375 447.445312 182.546875 452.898438 182.363281 454.199219 C 180.242188 469.058594 190.578125 482.824219 205.441406 484.9375 C 206.746094 485.125 208.03125 485.214844 209.308594 485.214844 C 222.621094 485.214844 234.253906 475.421875 236.1875 461.855469 C 242.558594 417.085938 197.164062 386.761719 157.121094 360.011719 C 145.238281 352.074219 128.117188 340.640625 121.316406 333.636719 C 136.097656 286 151.683594 258.125 164.664062 241.699219 L 172.160156 244.851562 C 164.710938 253.925781 156.007812 268.105469 147.007812 287.867188 L 137.125 336.671875 C 144.679688 342.300781 154.171875 348.644531 161.332031 353.429688 C 175.023438 362.574219 189.136719 372.195312 201.917969 382.601562 L 280.828125 336.773438 C 286.910156 333.242188 293.828125 331.375 300.820312 331.375 C 305.144531 331.375 309.472656 332.089844 313.578125 333.464844 L 326.867188 325.746094 L 332.867188 296.136719 C 328.25 268.046875 336.039062 235.769531 356.292969 202.269531 C 359.347656 197.21875 363.417969 192.347656 366.953125 187.371094 L 323.636719 189.554688 L 198.820312 164.285156 C 198.199219 164.15625 197.617188 164.363281 196.996094 164.28125 C 196.792969 164.261719 196.632812 164.136719 196.425781 164.121094 C 194.714844 163.996094 192.050781 163.949219 188.660156 164.277344 C 188.527344 164.304688 188.390625 164.308594 188.253906 164.335938 C 173.113281 165.902344 143.523438 175.410156 113.375 220.152344 C 97.445312 243.789062 81.382812 277.09375 67.25 324.578125 C 57.121094 358.597656 91.027344 381.246094 126.917969 405.222656 Z M 126.917969 405.222656 " fill-opacity="1" fill-rule="nonzero"/><path fill="#6c4dd3" d="M 341.027344 74.4375 C 330.046875 75.414062 321.9375 85.109375 322.910156 96.089844 C 323.890625 107.074219 333.585938 115.183594 344.566406 114.203125 C 355.546875 113.226562 363.660156 103.535156 362.679688 92.550781 C 361.703125 81.570312 352.007812 73.457031 341.027344 74.4375 Z M 341.027344 74.4375 " fill-opacity="1" fill-rule="nonzero"/><path fill="#6c4dd3" d="M 277.566406 80.082031 C 266.585938 81.058594 258.476562 90.753906 259.453125 101.734375 C 260.425781 112.71875 270.125 120.828125 281.105469 119.851562 C 292.082031 118.875 300.195312 109.183594 299.21875 98.199219 C 298.242188 87.214844 288.550781 79.105469 277.566406 80.082031 Z M 277.566406 80.082031 " fill-opacity="1" fill-rule="nonzero"/><path fill="#6c4dd3" d="M 594.503906 274.863281 C 519.023438 323.460938 436.148438 330.335938 404.75 291.839844 C 405.636719 293.640625 406.589844 295.402344 407.691406 297.109375 C 435.933594 340.976562 522.492188 335.550781 601.019531 284.988281 C 679.554688 234.425781 720.320312 157.875 692.074219 114.007812 C 691.285156 112.785156 690.390625 111.660156 689.511719 110.523438 C 689.15625 110.074219 688.855469 109.582031 688.492188 109.140625 C 688.683594 109.53125 688.683594 110.003906 688.871094 110.398438 C 709.644531 155.015625 669.328125 226.6875 594.503906 274.863281 Z M 594.503906 274.863281 " fill-opacity="1" fill-rule="nonzero"/><g clip-path="url(#0be6d30992)"><g clip-path="url(#0d48631203)"><g transform="matrix(1, 0, 0, 1, 236, 226)"><g clip-path="url(#4e4a5d43d4)"><g clip-path="url(#0e16d88cba)"><g clip-path="url(#16e37a4fd9)"><path fill="#6c4dd3" d="M 0.320312 0.386719 L 48.804688 0.386719 L 48.804688 48.871094 L 0.320312 48.871094 Z M 0.320312 0.386719 " fill-opacity="1" fill-rule="nonzero"/></g></g></g></g></g></g></svg>