<svg xmlns="http://www.w3.org/2000/svg" xmlns:xlink="http://www.w3.org/1999/xlink" width="1080" zoomAndPan="magnify" viewBox="0 0 810 809.999993" height="1080" preserveAspectRatio="xMidYMid meet" version="1.0"><defs><clipPath id="16f7d7d53b"><path d="M 5 68.851562 L 805 68.851562 L 805 740.851562 L 5 740.851562 Z M 5 68.851562 " clip-rule="nonzero"/></clipPath><clipPath id="2621be1152"><path d="M 643.21875 585.054688 L 656.871094 585.054688 L 656.871094 598.703125 L 643.21875 598.703125 Z M 643.21875 585.054688 " clip-rule="nonzero"/></clipPath><clipPath id="2d60a2dde2"><path d="M 650.042969 585.054688 C 646.273438 585.054688 643.21875 588.109375 643.21875 591.878906 C 643.21875 595.648438 646.273438 598.703125 650.042969 598.703125 C 653.8125 598.703125 656.871094 595.648438 656.871094 591.878906 C 656.871094 588.109375 653.8125 585.054688 650.042969 585.054688 Z M 650.042969 585.054688 " clip-rule="nonzero"/></clipPath><clipPath id="2333f7bd7c"><path d="M 0.21875 0.0546875 L 13.871094 0.0546875 L 13.871094 13.703125 L 0.21875 13.703125 Z M 0.21875 0.0546875 " clip-rule="nonzero"/></clipPath><clipPath id="929f91cd63"><path d="M 7.042969 0.0546875 C 3.273438 0.0546875 0.21875 3.109375 0.21875 6.878906 C 0.21875 10.648438 3.273438 13.703125 7.042969 13.703125 C 10.8125 13.703125 13.871094 10.648438 13.871094 6.878906 C 13.871094 3.109375 10.8125 0.0546875 7.042969 0.0546875 Z M 7.042969 0.0546875 " clip-rule="nonzero"/></clipPath><clipPath id="4730cf7329"><rect x="0" width="14" y="0" height="14"/></clipPath></defs><g clip-path="url(#16f7d7d53b)"><path fill="#000002" d="M 188.742188 717.988281 L 131.011719 717.988281 C 125.109375 717.988281 120.496094 713.378906 120.496094 707.480469 C 120.496094 651.804688 115.332031 656.042969 149.269531 656.042969 L 149.269531 601.65625 L 55.574219 601.65625 L 55.574219 678.90625 C 89.511719 678.90625 84.347656 674.664062 84.347656 730.15625 C 84.347656 736.054688 79.550781 740.851562 73.648438 740.851562 L 15.917969 740.851562 C 10.199219 740.851562 5.40625 736.054688 5.40625 730.15625 C 5.40625 674.664062 0.242188 678.90625 34.179688 678.90625 L 34.179688 590.964844 C 34.179688 585.0625 38.972656 580.269531 44.875 580.269531 L 149.269531 580.269531 L 149.269531 427.433594 C 149.269531 421.535156 154.066406 416.925781 159.96875 416.925781 L 290.367188 416.925781 L 290.367188 284 L 233.929688 284 C 228.027344 284 223.230469 279.207031 223.230469 273.308594 L 223.230469 79.542969 C 223.230469 73.644531 228.027344 68.851562 233.929688 68.851562 L 576.070312 68.851562 C 581.972656 68.851562 586.769531 73.644531 586.769531 79.542969 L 586.769531 273.308594 C 586.769531 279.207031 581.972656 284 576.070312 284 L 519.445312 284 L 519.445312 416.925781 L 650.03125 416.925781 C 655.933594 416.925781 660.730469 421.535156 660.730469 427.433594 L 660.730469 580.269531 L 765.125 580.269531 C 771.027344 580.269531 775.820312 585.0625 775.820312 590.964844 L 775.820312 678.90625 C 809.757812 678.90625 804.59375 674.664062 804.59375 730.15625 C 804.59375 736.054688 799.800781 740.851562 793.898438 740.851562 L 736.351562 740.851562 C 730.449219 740.851562 725.652344 736.054688 725.652344 730.15625 C 725.652344 674.664062 720.488281 678.90625 754.425781 678.90625 L 754.425781 601.65625 L 660.730469 601.65625 L 660.730469 656.042969 C 694.667969 656.042969 689.503906 651.988281 689.503906 707.480469 C 689.503906 713.378906 684.890625 717.988281 678.988281 717.988281 L 621.257812 717.988281 C 615.355469 717.988281 610.5625 713.378906 610.5625 707.480469 C 610.5625 651.988281 605.398438 656.042969 639.519531 656.042969 L 639.519531 601.65625 L 545.636719 601.65625 L 545.636719 678.90625 C 579.574219 678.90625 574.59375 674.664062 574.59375 730.15625 C 574.59375 736.054688 569.800781 740.851562 563.898438 740.851562 L 506.167969 740.851562 C 500.265625 740.851562 495.46875 736.054688 495.46875 730.15625 C 495.46875 674.664062 490.304688 678.90625 524.425781 678.90625 L 524.425781 590.964844 C 524.425781 585.0625 529.222656 580.269531 534.941406 580.269531 L 639.519531 580.269531 L 639.519531 438.128906 L 508.933594 438.128906 C 503.03125 438.128906 498.234375 433.332031 498.234375 427.433594 L 498.234375 284 L 415.605469 284 L 415.605469 473.15625 L 466.695312 473.15625 C 472.597656 473.15625 477.210938 477.765625 477.210938 483.664062 L 477.210938 573.082031 C 477.210938 578.980469 472.597656 583.589844 466.695312 583.589844 L 343.304688 583.589844 C 337.402344 583.589844 332.605469 578.980469 332.605469 573.082031 L 332.605469 483.664062 C 332.605469 477.765625 337.402344 473.15625 343.304688 473.15625 L 394.394531 473.15625 L 394.394531 284 L 311.765625 284 L 311.765625 427.433594 C 311.765625 433.332031 306.96875 438.128906 301.066406 438.128906 L 170.480469 438.128906 L 170.480469 580.269531 L 274.875 580.269531 C 280.777344 580.269531 285.574219 585.0625 285.574219 590.964844 L 285.574219 678.90625 C 319.511719 678.90625 314.53125 674.664062 314.53125 730.15625 C 314.53125 736.054688 309.734375 740.851562 303.832031 740.851562 L 246.101562 740.851562 C 240.199219 740.851562 235.40625 736.054688 235.40625 730.15625 C 235.40625 674.664062 230.425781 678.90625 264.363281 678.90625 L 264.363281 601.65625 L 170.480469 601.65625 L 170.480469 656.042969 C 204.601562 656.042969 199.4375 651.988281 199.4375 707.480469 C 199.4375 713.378906 194.644531 717.988281 188.742188 717.988281 Z M 244.441406 262.613281 L 565.558594 262.613281 L 565.558594 90.050781 L 244.441406 90.050781 Z M 529.222656 237.171875 L 280.777344 237.171875 C 274.875 237.171875 270.082031 232.378906 270.082031 226.480469 L 270.082031 126.371094 C 270.082031 120.472656 274.875 115.679688 280.777344 115.679688 L 529.222656 115.679688 C 535.125 115.679688 539.917969 120.472656 539.917969 126.371094 L 539.917969 226.480469 C 539.917969 232.378906 535.125 237.171875 529.222656 237.171875 Z M 291.292969 215.785156 L 518.523438 215.785156 L 518.523438 137.0625 L 291.292969 137.0625 Z M 746.863281 719.464844 L 783.382812 719.464844 L 783.382812 700.105469 L 746.863281 700.105469 Z M 516.863281 719.464844 L 553.199219 719.464844 L 553.199219 700.105469 L 516.863281 700.105469 Z M 650.03125 677.429688 L 631.773438 677.429688 L 631.773438 696.789062 L 668.292969 696.789062 L 668.292969 677.429688 Z M 404.90625 494.359375 L 354 494.359375 L 354 562.386719 L 456 562.386719 L 456 494.359375 Z M 26.617188 719.464844 L 63.136719 719.464844 L 63.136719 700.105469 L 26.617188 700.105469 Z M 256.800781 719.464844 L 293.136719 719.464844 L 293.136719 700.105469 L 256.800781 700.105469 Z M 159.96875 677.429688 L 141.707031 677.429688 L 141.707031 696.789062 L 178.042969 696.789062 L 178.042969 677.429688 Z M 159.96875 677.429688 " fill-opacity="1" fill-rule="evenodd"/></g><g clip-path="url(#2621be1152)"><g clip-path="url(#2d60a2dde2)"><g transform="matrix(1, 0, 0, 1, 643, 585)"><g clip-path="url(#4730cf7329)"><g clip-path="url(#2333f7bd7c)"><g clip-path="url(#929f91cd63)"><path fill="#000000" d="M 0.21875 0.0546875 L 13.871094 0.0546875 L 13.871094 13.703125 L 0.21875 13.703125 Z M 0.21875 0.0546875 " fill-opacity="1" fill-rule="nonzero"/></g></g></g></g></g></g></svg>