<svg xmlns="http://www.w3.org/2000/svg" xmlns:xlink="http://www.w3.org/1999/xlink" width="1080" zoomAndPan="magnify" viewBox="0 0 810 809.999993" height="1080" preserveAspectRatio="xMidYMid meet" version="1.0"><defs><clipPath id="e30b386a0e"><path d="M 507.472656 585.054688 L 521.121094 585.054688 L 521.121094 598.703125 L 507.472656 598.703125 Z M 507.472656 585.054688 " clip-rule="nonzero"/></clipPath><clipPath id="102243ed7f"><path d="M 514.296875 585.054688 C 510.527344 585.054688 507.472656 588.109375 507.472656 591.878906 C 507.472656 595.648438 510.527344 598.703125 514.296875 598.703125 C 518.066406 598.703125 521.121094 595.648438 521.121094 591.878906 C 521.121094 588.109375 518.066406 585.054688 514.296875 585.054688 Z M 514.296875 585.054688 " clip-rule="nonzero"/></clipPath><clipPath id="191bf1712d"><path d="M 0.472656 0.0546875 L 14.121094 0.0546875 L 14.121094 13.703125 L 0.472656 13.703125 Z M 0.472656 0.0546875 " clip-rule="nonzero"/></clipPath><clipPath id="bbac2a6e5e"><path d="M 7.296875 0.0546875 C 3.527344 0.0546875 0.472656 3.109375 0.472656 6.878906 C 0.472656 10.648438 3.527344 13.703125 7.296875 13.703125 C 11.066406 13.703125 14.121094 10.648438 14.121094 6.878906 C 14.121094 3.109375 11.066406 0.0546875 7.296875 0.0546875 Z M 7.296875 0.0546875 " clip-rule="nonzero"/></clipPath><clipPath id="936d5b7e2a"><rect x="0" width="15" y="0" height="14"/></clipPath></defs><path fill="#000000" d="M 317.300781 142.496094 C 320.386719 142.496094 323.464844 142.617188 326.542969 142.863281 C 329.617188 143.109375 332.679688 143.476562 335.726562 143.964844 C 338.773438 144.453125 341.796875 145.0625 344.792969 145.789062 C 347.792969 146.519531 350.757812 147.363281 353.6875 148.328125 C 356.621094 149.292969 359.507812 150.375 362.351562 151.566406 C 365.199219 152.761719 367.992188 154.066406 370.730469 155.484375 C 373.472656 156.898438 376.152344 158.421875 378.773438 160.050781 C 381.394531 161.679688 383.945312 163.410156 386.425781 165.246094 C 388.910156 167.078125 391.316406 169.003906 393.644531 171.027344 C 395.972656 173.050781 398.21875 175.164062 400.378906 177.367188 C 402.539062 179.570312 404.609375 181.851562 406.589844 184.21875 C 408.566406 186.585938 410.449219 189.027344 412.234375 191.542969 C 414.019531 194.058594 415.699219 196.644531 417.28125 199.292969 C 418.859375 201.941406 420.332031 204.652344 421.695312 207.417969 C 423.058594 210.1875 424.308594 213.003906 425.449219 215.871094 C 426.589844 218.734375 427.613281 221.644531 428.519531 224.589844 C 429.429688 227.539062 430.21875 230.519531 430.890625 233.527344 C 431.5625 236.539062 432.113281 239.570312 432.542969 242.625 C 432.972656 245.679688 433.277344 248.746094 433.464844 251.828125 C 433.648438 254.90625 433.714844 257.988281 433.652344 261.070312 C 433.59375 264.15625 433.414062 267.230469 433.109375 270.300781 C 432.804688 273.371094 432.378906 276.421875 431.832031 279.460938 C 431.285156 282.496094 430.617188 285.503906 429.832031 288.488281 C 429.042969 291.46875 428.140625 294.417969 427.117188 297.328125 C 426.097656 300.238281 424.960938 303.105469 423.714844 305.925781 C 422.464844 308.746094 421.105469 311.511719 419.636719 314.222656 C 418.167969 316.9375 416.589844 319.585938 414.910156 322.171875 C 413.230469 324.761719 411.449219 327.277344 409.570312 329.722656 C 407.691406 332.167969 405.714844 334.535156 403.648438 336.824219 C 401.578125 339.113281 399.421875 341.316406 397.179688 343.433594 C 394.933594 345.550781 392.609375 347.574219 390.203125 349.507812 C 387.796875 351.4375 385.320312 353.273438 382.769531 355.007812 L 382.8125 316.148438 C 383.71875 315.113281 384.605469 314.050781 385.460938 312.972656 C 386.320312 311.890625 387.152344 310.792969 387.960938 309.671875 C 388.765625 308.554688 389.546875 307.414062 390.296875 306.257812 C 391.050781 305.101562 391.773438 303.925781 392.46875 302.738281 C 393.167969 301.546875 393.835938 300.339844 394.472656 299.117188 C 395.113281 297.890625 395.722656 296.65625 396.300781 295.402344 C 396.882812 294.152344 397.429688 292.886719 397.953125 291.609375 C 398.472656 290.332031 398.960938 289.039062 399.417969 287.738281 C 399.878906 286.4375 400.304688 285.125 400.699219 283.804688 C 401.097656 282.484375 401.460938 281.152344 401.792969 279.816406 C 402.125 278.476562 402.425781 277.128906 402.695312 275.777344 C 402.964844 274.421875 403.203125 273.0625 403.40625 271.699219 C 403.609375 270.335938 403.78125 268.96875 403.921875 267.59375 C 404.058594 266.222656 404.164062 264.847656 404.238281 263.46875 C 404.3125 262.089844 404.355469 260.710938 404.363281 259.332031 C 404.371094 257.953125 404.34375 256.574219 404.289062 255.195312 C 404.230469 253.816406 404.140625 252.441406 404.015625 251.066406 C 403.894531 249.691406 403.738281 248.324219 403.550781 246.957031 C 403.363281 245.589844 403.140625 244.226562 402.886719 242.871094 C 402.636719 241.515625 402.351562 240.167969 402.03125 238.824219 C 401.714844 237.480469 401.367188 236.144531 400.984375 234.820312 C 400.605469 233.496094 400.191406 232.179688 399.75 230.871094 C 399.304688 229.566406 398.832031 228.269531 398.328125 226.984375 C 397.820312 225.703125 397.285156 224.429688 396.722656 223.171875 C 396.15625 221.914062 395.5625 220.667969 394.9375 219.4375 C 394.3125 218.207031 393.660156 216.992188 392.976562 215.792969 C 392.292969 214.59375 391.582031 213.414062 390.84375 212.246094 C 390.105469 211.082031 389.339844 209.933594 388.546875 208.804688 C 387.753906 207.675781 386.933594 206.566406 386.089844 205.476562 C 385.242188 204.386719 384.371094 203.320312 383.472656 202.269531 C 382.578125 201.222656 381.65625 200.195312 380.710938 199.191406 C 379.765625 198.183594 378.796875 197.203125 377.800781 196.246094 C 376.808594 195.285156 375.796875 194.351562 374.757812 193.441406 C 373.722656 192.53125 372.664062 191.644531 371.585938 190.785156 C 370.503906 189.925781 369.40625 189.089844 368.289062 188.28125 C 367.167969 187.472656 366.03125 186.691406 364.875 185.9375 C 363.71875 185.183594 362.546875 184.460938 361.355469 183.761719 C 360.167969 183.0625 358.960938 182.394531 357.738281 181.753906 C 356.515625 181.113281 355.277344 180.5 354.027344 179.917969 C 352.777344 179.335938 351.511719 178.785156 350.234375 178.261719 C 348.957031 177.742188 347.667969 177.25 346.367188 176.789062 C 345.066406 176.328125 343.753906 175.898438 342.433594 175.5 C 341.113281 175.101562 339.78125 174.734375 338.441406 174.402344 C 337.105469 174.066406 335.757812 173.761719 334.40625 173.492188 C 333.050781 173.21875 331.691406 172.980469 330.328125 172.773438 C 328.964844 172.570312 327.59375 172.394531 326.222656 172.253906 C 324.847656 172.113281 323.472656 172.003906 322.097656 171.925781 C 320.71875 171.851562 319.339844 171.808594 317.957031 171.796875 C 316.578125 171.785156 315.199219 171.808594 313.820312 171.863281 C 312.441406 171.917969 311.0625 172.007812 309.6875 172.128906 C 308.3125 172.25 306.941406 172.402344 305.574219 172.585938 C 304.207031 172.773438 302.84375 172.992188 301.488281 173.242188 C 300.132812 173.492188 298.78125 173.773438 297.4375 174.089844 C 296.09375 174.40625 294.757812 174.75 293.429688 175.128906 C 292.101562 175.507812 290.785156 175.917969 289.476562 176.359375 C 288.171875 176.796875 286.875 177.269531 285.589844 177.773438 C 284.304688 178.273438 283.03125 178.808594 281.769531 179.371094 C 280.511719 179.933594 279.265625 180.527344 278.03125 181.148438 C 276.800781 181.769531 275.585938 182.421875 274.382812 183.101562 C 273.183594 183.78125 272 184.488281 270.832031 185.226562 C 269.664062 185.960938 268.515625 186.726562 267.382812 187.515625 C 266.253906 188.308594 265.140625 189.125 264.050781 189.96875 C 262.957031 190.8125 261.886719 191.683594 260.835938 192.578125 C 259.785156 193.472656 258.757812 194.390625 257.75 195.335938 C 256.742188 196.277344 255.761719 197.246094 254.800781 198.234375 C 253.839844 199.226562 252.902344 200.238281 251.988281 201.273438 C 251.074219 202.308594 250.1875 203.363281 249.324219 204.441406 C 248.464844 205.519531 247.628906 206.613281 246.816406 207.730469 C 246.007812 208.847656 245.222656 209.984375 244.46875 211.136719 C 243.710938 212.292969 242.984375 213.464844 242.28125 214.652344 C 241.582031 215.839844 240.910156 217.046875 240.265625 218.265625 C 239.625 219.488281 239.007812 220.722656 238.425781 221.972656 C 237.839844 223.222656 237.285156 224.484375 236.761719 225.761719 C 236.238281 227.035156 235.742188 228.324219 235.28125 229.625 C 234.816406 230.925781 234.386719 232.234375 233.984375 233.554688 C 233.585938 234.875 233.214844 236.203125 232.878906 237.542969 C 232.539062 238.878906 232.234375 240.222656 231.960938 241.574219 C 231.6875 242.929688 231.445312 244.285156 231.238281 245.648438 C 231.027344 247.015625 230.851562 248.382812 230.707031 249.753906 C 230.5625 251.125 230.453125 252.5 230.375 253.878906 C 230.296875 255.253906 230.25 256.632812 230.238281 258.011719 C 230.222656 259.394531 230.242188 260.773438 230.296875 262.152344 C 230.347656 263.527344 230.433594 264.90625 230.554688 266.28125 C 230.671875 267.65625 230.820312 269.027344 231.003906 270.394531 C 231.1875 271.761719 231.40625 273.121094 231.652344 274.480469 C 231.902344 275.835938 232.179688 277.1875 232.492188 278.53125 C 232.804688 279.875 233.152344 281.210938 233.527344 282.539062 C 233.902344 283.867188 234.308594 285.183594 234.75 286.492188 C 235.1875 287.800781 235.65625 289.097656 236.15625 290.382812 C 236.65625 291.667969 237.1875 292.941406 237.75 294.203125 C 238.308594 295.460938 238.902344 296.707031 239.519531 297.941406 C 240.140625 299.171875 240.789062 300.390625 241.46875 301.589844 C 242.148438 302.792969 242.851562 303.976562 243.585938 305.144531 C 244.324219 306.3125 245.085938 307.464844 245.875 308.597656 C 246.664062 309.726562 247.476562 310.839844 248.320312 311.933594 C 249.164062 313.027344 250.03125 314.097656 250.921875 315.148438 L 250.921875 354.386719 C 248.398438 352.632812 245.945312 350.78125 243.566406 348.835938 C 241.1875 346.890625 238.890625 344.851562 236.671875 342.722656 C 234.457031 340.59375 232.328125 338.378906 230.285156 336.082031 C 228.242188 333.785156 226.296875 331.410156 224.441406 328.957031 C 222.589844 326.503906 220.835938 323.984375 219.183594 321.394531 C 217.527344 318.800781 215.980469 316.148438 214.535156 313.4375 C 213.09375 310.722656 211.761719 307.957031 210.535156 305.136719 C 209.3125 302.320312 208.203125 299.457031 207.203125 296.546875 C 206.207031 293.640625 205.328125 290.699219 204.5625 287.722656 C 203.800781 284.746094 203.15625 281.742188 202.628906 278.714844 C 202.105469 275.6875 201.699219 272.644531 201.414062 269.582031 C 201.132812 266.523438 200.96875 263.457031 200.925781 260.382812 C 200.886719 257.308594 200.96875 254.242188 201.167969 251.175781 C 201.371094 248.105469 201.695312 245.054688 202.140625 242.011719 C 202.582031 238.972656 203.148438 235.953125 203.832031 232.957031 C 204.515625 229.960938 205.316406 226.996094 206.234375 224.0625 C 207.152344 221.128906 208.1875 218.238281 209.335938 215.386719 C 210.484375 212.535156 211.742188 209.734375 213.113281 206.984375 C 214.480469 204.234375 215.957031 201.539062 217.542969 198.90625 C 219.125 196.273438 220.8125 193.703125 222.597656 191.203125 C 224.386719 188.703125 226.269531 186.277344 228.25 183.925781 C 230.226562 181.574219 232.296875 179.304688 234.457031 177.117188 C 236.617188 174.929688 238.859375 172.832031 241.183594 170.820312 C 243.511719 168.8125 245.910156 166.898438 248.390625 165.078125 C 250.867188 163.257812 253.414062 161.539062 256.027344 159.921875 C 258.640625 158.304688 261.3125 156.792969 264.046875 155.386719 C 266.78125 153.980469 269.566406 152.683594 272.402344 151.5 C 275.238281 150.3125 278.117188 149.242188 281.039062 148.285156 C 283.960938 147.328125 286.917969 146.488281 289.902344 145.761719 C 292.890625 145.039062 295.902344 144.4375 298.941406 143.953125 C 301.976562 143.464844 305.027344 143.101562 308.089844 142.859375 C 311.15625 142.617188 314.226562 142.496094 317.300781 142.496094 Z M 616.78125 4.664062 C 615.992188 4.667969 615.207031 4.691406 614.417969 4.738281 C 613.632812 4.785156 612.847656 4.855469 612.0625 4.949219 C 611.28125 5.042969 610.5 5.160156 609.726562 5.300781 C 608.949219 5.441406 608.179688 5.601562 607.410156 5.789062 C 606.644531 5.972656 605.886719 6.183594 605.132812 6.414062 C 604.378906 6.644531 603.632812 6.894531 602.890625 7.171875 C 602.152344 7.445312 601.421875 7.742188 600.703125 8.058594 C 599.980469 8.378906 599.269531 8.714844 598.566406 9.074219 C 597.867188 9.4375 597.175781 9.816406 596.496094 10.21875 C 595.816406 10.617188 595.152344 11.039062 594.496094 11.480469 C 593.84375 11.917969 593.203125 12.378906 592.578125 12.855469 C 591.949219 13.335938 591.339844 13.832031 590.742188 14.347656 C 590.144531 14.859375 589.5625 15.390625 588.996094 15.941406 C 588.429688 16.488281 587.882812 17.054688 587.347656 17.636719 C 586.816406 18.21875 586.300781 18.816406 585.804688 19.425781 C 585.308594 20.039062 584.828125 20.664062 584.371094 21.304688 C 583.910156 21.945312 583.46875 22.597656 583.046875 23.265625 C 582.625 23.929688 582.226562 24.609375 581.84375 25.296875 C 581.464844 25.988281 581.101562 26.6875 580.761719 27.398438 C 580.421875 28.113281 580.105469 28.832031 579.808594 29.5625 C 579.511719 30.292969 579.238281 31.03125 578.984375 31.777344 C 578.730469 32.523438 578.5 33.277344 578.289062 34.035156 C 578.082031 34.796875 577.898438 35.5625 577.734375 36.332031 C 577.570312 37.105469 577.429688 37.878906 577.3125 38.660156 C 577.195312 39.4375 577.101562 40.222656 577.03125 41.003906 C 576.960938 41.789062 576.910156 42.578125 576.886719 43.363281 C 576.863281 44.152344 576.863281 44.941406 576.882812 45.726562 C 576.90625 46.515625 576.953125 47.300781 577.019531 48.085938 C 577.089844 48.871094 577.183594 49.65625 577.296875 50.433594 C 577.414062 51.214844 577.550781 51.992188 577.710938 52.761719 C 577.871094 53.535156 578.058594 54.300781 578.261719 55.058594 C 578.46875 55.820312 578.699219 56.574219 578.949219 57.320312 L 423.738281 168.375 C 428.78125 174.300781 433.300781 180.601562 437.296875 187.28125 L 592.503906 76.238281 C 593.128906 76.71875 593.769531 77.179688 594.425781 77.621094 C 595.078125 78.0625 595.746094 78.484375 596.421875 78.890625 C 597.101562 79.292969 597.792969 79.671875 598.496094 80.035156 C 599.195312 80.394531 599.90625 80.738281 600.628906 81.054688 C 601.351562 81.375 602.082031 81.671875 602.820312 81.949219 C 603.5625 82.226562 604.308594 82.480469 605.0625 82.710938 C 605.816406 82.941406 606.578125 83.152344 607.34375 83.335938 C 608.113281 83.523438 608.882812 83.6875 609.660156 83.828125 C 610.4375 83.96875 611.214844 84.085938 612 84.183594 C 612.785156 84.277344 613.570312 84.347656 614.359375 84.394531 C 615.144531 84.445312 615.933594 84.46875 616.722656 84.46875 C 617.511719 84.46875 618.300781 84.449219 619.089844 84.402344 C 619.878906 84.355469 620.664062 84.289062 621.445312 84.195312 C 622.230469 84.105469 623.011719 83.988281 623.789062 83.851562 C 624.566406 83.710938 625.339844 83.550781 626.105469 83.367188 C 626.871094 83.183594 627.632812 82.976562 628.390625 82.746094 C 629.144531 82.515625 629.894531 82.265625 630.632812 81.992188 C 631.375 81.71875 632.105469 81.421875 632.828125 81.105469 C 633.550781 80.789062 634.261719 80.449219 634.964844 80.089844 C 635.667969 79.730469 636.359375 79.351562 637.039062 78.949219 C 637.71875 78.550781 638.386719 78.128906 639.042969 77.6875 C 639.699219 77.25 640.339844 76.789062 640.96875 76.3125 C 641.59375 75.835938 642.207031 75.339844 642.808594 74.824219 C 643.40625 74.308594 643.988281 73.777344 644.554688 73.226562 C 645.121094 72.679688 645.671875 72.113281 646.207031 71.53125 C 646.738281 70.949219 647.253906 70.355469 647.753906 69.742188 C 648.25 69.128906 648.730469 68.503906 649.191406 67.863281 C 649.652344 67.222656 650.09375 66.570312 650.515625 65.902344 C 650.9375 65.234375 651.339844 64.554688 651.722656 63.867188 C 652.101562 63.175781 652.464844 62.472656 652.804688 61.761719 C 653.144531 61.050781 653.460938 60.328125 653.761719 59.597656 C 654.058594 58.867188 654.332031 58.128906 654.585938 57.378906 C 654.839844 56.632812 655.070312 55.878906 655.28125 55.117188 C 655.488281 54.355469 655.675781 53.589844 655.835938 52.820312 C 656 52.046875 656.140625 51.269531 656.257812 50.492188 C 656.375 49.710938 656.46875 48.925781 656.539062 48.140625 C 656.609375 47.355469 656.65625 46.566406 656.683594 45.78125 C 656.707031 44.992188 656.707031 44.203125 656.683594 43.414062 C 656.660156 42.625 656.613281 41.835938 656.546875 41.050781 C 656.476562 40.265625 656.382812 39.480469 656.265625 38.703125 C 656.152344 37.921875 656.011719 37.144531 655.847656 36.371094 C 655.6875 35.601562 655.503906 34.835938 655.292969 34.074219 C 655.085938 33.3125 654.855469 32.558594 654.605469 31.808594 C 654.351562 31.0625 654.078125 30.324219 653.78125 29.589844 C 653.484375 28.859375 653.167969 28.136719 652.828125 27.425781 C 652.488281 26.714844 652.128906 26.011719 651.75 25.320312 C 651.367188 24.628906 650.96875 23.949219 650.546875 23.28125 C 650.125 22.613281 649.683594 21.960938 649.226562 21.320312 C 648.765625 20.679688 648.285156 20.050781 647.789062 19.4375 C 647.292969 18.824219 646.777344 18.226562 646.246094 17.644531 C 645.710938 17.0625 645.164062 16.496094 644.597656 15.945312 C 644.03125 15.398438 643.449219 14.863281 642.851562 14.347656 C 642.253906 13.835938 641.640625 13.335938 641.011719 12.859375 C 640.386719 12.378906 639.746094 11.917969 639.089844 11.476562 C 638.4375 11.039062 637.769531 10.617188 637.089844 10.214844 C 636.410156 9.8125 635.71875 9.433594 635.015625 9.070312 C 634.316406 8.710938 633.601562 8.371094 632.878906 8.054688 C 632.160156 7.734375 631.425781 7.4375 630.6875 7.164062 C 629.949219 6.890625 629.199219 6.636719 628.445312 6.40625 C 627.691406 6.175781 626.929688 5.96875 626.160156 5.78125 C 625.394531 5.597656 624.621094 5.433594 623.847656 5.296875 C 623.070312 5.15625 622.289062 5.039062 621.503906 4.945312 C 620.722656 4.851562 619.933594 4.78125 619.148438 4.734375 C 618.359375 4.6875 617.570312 4.664062 616.78125 4.664062 Z M 766.21875 218.925781 C 767.445312 218.925781 768.667969 218.980469 769.886719 219.09375 C 771.105469 219.207031 772.320312 219.375 773.523438 219.601562 C 774.726562 219.824219 775.917969 220.101562 777.097656 220.4375 C 778.273438 220.769531 779.4375 221.15625 780.578125 221.597656 C 781.722656 222.039062 782.839844 222.53125 783.9375 223.074219 C 785.035156 223.617188 786.105469 224.210938 787.148438 224.855469 C 788.191406 225.496094 789.203125 226.183594 790.183594 226.921875 C 791.164062 227.65625 792.105469 228.433594 793.015625 229.257812 C 793.921875 230.078125 794.789062 230.941406 795.617188 231.84375 C 796.445312 232.746094 797.230469 233.683594 797.972656 234.65625 C 798.714844 235.632812 799.410156 236.636719 800.058594 237.675781 C 800.710938 238.714844 801.308594 239.78125 801.859375 240.875 C 802.410156 241.964844 802.910156 243.082031 803.359375 244.222656 C 803.808594 245.363281 804.203125 246.519531 804.542969 247.695312 C 804.886719 248.871094 805.171875 250.058594 805.40625 251.261719 C 805.636719 252.464844 805.8125 253.675781 805.933594 254.894531 C 806.054688 256.113281 806.121094 257.332031 806.128906 258.558594 C 806.136719 259.78125 806.089844 261.003906 805.984375 262.222656 C 805.878906 263.445312 805.71875 264.65625 805.503906 265.863281 C 805.289062 267.066406 805.015625 268.257812 804.691406 269.441406 C 804.367188 270.621094 803.988281 271.78125 803.554688 272.929688 C 803.121094 274.074219 802.636719 275.195312 802.101562 276.296875 C 801.5625 277.398438 800.976562 278.472656 800.34375 279.519531 C 799.707031 280.566406 799.027344 281.582031 798.296875 282.566406 C 797.566406 283.550781 796.796875 284.5 795.980469 285.410156 C 795.164062 286.324219 794.308594 287.199219 793.410156 288.03125 C 792.515625 288.867188 791.582031 289.660156 790.613281 290.40625 C 789.640625 291.15625 788.640625 291.855469 787.605469 292.511719 C 786.574219 293.167969 785.511719 293.777344 784.421875 294.335938 C 783.332031 294.894531 782.21875 295.402344 781.082031 295.859375 C 779.945312 296.3125 778.789062 296.714844 777.613281 297.066406 C 776.441406 297.414062 775.253906 297.710938 774.050781 297.953125 C 772.851562 298.191406 771.640625 298.375 770.421875 298.507812 C 769.207031 298.636719 767.984375 298.707031 766.757812 298.726562 C 765.535156 298.742188 764.3125 298.703125 763.089844 298.605469 C 761.871094 298.511719 760.65625 298.359375 759.449219 298.152344 C 758.242188 297.945312 757.046875 297.679688 755.863281 297.363281 C 754.679688 297.046875 753.515625 296.675781 752.363281 296.25 C 751.214844 295.824219 750.089844 295.347656 748.984375 294.820312 C 747.878906 294.292969 746.800781 293.714844 745.75 293.085938 C 744.699219 292.460938 743.675781 291.785156 742.6875 291.0625 C 741.699219 290.339844 740.746094 289.574219 739.824219 288.765625 C 738.90625 287.957031 738.027344 287.105469 737.183594 286.214844 C 736.34375 285.324219 735.546875 284.398438 734.792969 283.433594 C 734.035156 282.472656 733.324219 281.476562 732.664062 280.445312 C 732 279.417969 731.382812 278.359375 730.816406 277.273438 C 730.25 276.1875 729.734375 275.078125 729.273438 273.945312 C 728.808594 272.8125 728.398438 271.660156 728.039062 270.488281 L 456.523438 270.488281 C 457.167969 262.714844 457.167969 254.9375 456.523438 247.160156 L 728.039062 247.160156 C 728.660156 245.128906 729.4375 243.164062 730.375 241.257812 C 731.308594 239.351562 732.390625 237.53125 733.617188 235.796875 C 734.84375 234.0625 736.199219 232.4375 737.683594 230.921875 C 739.167969 229.402344 740.765625 228.015625 742.472656 226.75 C 744.179688 225.488281 745.976562 224.371094 747.863281 223.394531 C 749.75 222.417969 751.703125 221.597656 753.71875 220.933594 C 755.734375 220.265625 757.792969 219.765625 759.890625 219.429688 C 761.984375 219.09375 764.097656 218.925781 766.21875 218.925781 Z M 317.300781 4.664062 C 318.484375 4.664062 319.667969 4.71875 320.847656 4.824219 C 322.023438 4.929688 323.195312 5.085938 324.363281 5.296875 C 325.527344 5.503906 326.679688 5.765625 327.824219 6.078125 C 328.964844 6.390625 330.089844 6.75 331.199219 7.164062 C 332.308594 7.574219 333.398438 8.035156 334.46875 8.542969 C 335.535156 9.054688 336.582031 9.609375 337.601562 10.210938 C 338.621094 10.8125 339.609375 11.457031 340.570312 12.148438 C 341.535156 12.835938 342.464844 13.566406 343.359375 14.339844 C 344.257812 15.113281 345.117188 15.925781 345.941406 16.773438 C 346.765625 17.621094 347.550781 18.507812 348.296875 19.425781 C 349.042969 20.34375 349.746094 21.292969 350.410156 22.273438 C 351.070312 23.257812 351.6875 24.265625 352.257812 25.300781 C 352.832031 26.339844 353.355469 27.398438 353.832031 28.480469 C 354.308594 29.5625 354.738281 30.664062 355.117188 31.785156 C 355.496094 32.90625 355.824219 34.042969 356.101562 35.191406 C 356.382812 36.34375 356.609375 37.503906 356.78125 38.675781 C 356.957031 39.84375 357.082031 41.019531 357.152344 42.203125 C 357.222656 43.382812 357.238281 44.566406 357.203125 45.746094 C 357.167969 46.929688 357.082031 48.109375 356.941406 49.285156 C 356.800781 50.460938 356.609375 51.625 356.367188 52.785156 C 356.121094 53.941406 355.828125 55.085938 355.484375 56.21875 C 355.136719 57.351562 354.742188 58.464844 354.296875 59.5625 C 353.851562 60.660156 353.359375 61.734375 352.820312 62.785156 C 352.28125 63.839844 351.691406 64.867188 351.0625 65.867188 C 350.429688 66.867188 349.753906 67.839844 349.035156 68.777344 C 348.320312 69.71875 347.558594 70.625 346.761719 71.5 C 345.960938 72.371094 345.125 73.210938 344.253906 74.007812 C 343.378906 74.808594 342.472656 75.566406 341.53125 76.285156 C 340.589844 77.003906 339.621094 77.675781 338.621094 78.308594 C 337.617188 78.941406 336.589844 79.527344 335.539062 80.066406 C 334.484375 80.609375 333.410156 81.101562 332.3125 81.546875 C 331.21875 81.992188 330.101562 82.386719 328.96875 82.734375 L 328.96875 119.65625 C 321.191406 119.011719 313.410156 119.011719 305.632812 119.65625 L 305.632812 82.734375 C 304.5 82.386719 303.386719 81.992188 302.289062 81.546875 C 301.191406 81.101562 300.117188 80.609375 299.066406 80.070312 C 298.011719 79.527344 296.984375 78.941406 295.984375 78.308594 C 294.984375 77.679688 294.011719 77.003906 293.074219 76.285156 C 292.132812 75.566406 291.226562 74.808594 290.351562 74.007812 C 289.480469 73.210938 288.644531 72.375 287.84375 71.5 C 287.046875 70.625 286.285156 69.71875 285.570312 68.777344 C 284.851562 67.839844 284.175781 66.867188 283.542969 65.867188 C 282.914062 64.867188 282.328125 63.839844 281.785156 62.785156 C 281.246094 61.734375 280.753906 60.660156 280.308594 59.5625 C 279.863281 58.464844 279.46875 57.351562 279.125 56.21875 C 278.777344 55.085938 278.484375 53.941406 278.242188 52.785156 C 277.996094 51.625 277.804688 50.460938 277.664062 49.285156 C 277.527344 48.109375 277.4375 46.929688 277.402344 45.75 C 277.367188 44.566406 277.386719 43.382812 277.457031 42.203125 C 277.527344 41.023438 277.648438 39.847656 277.824219 38.675781 C 278 37.503906 278.226562 36.34375 278.503906 35.195312 C 278.78125 34.042969 279.109375 32.910156 279.488281 31.789062 C 279.871094 30.667969 280.296875 29.566406 280.773438 28.484375 C 281.253906 27.398438 281.777344 26.339844 282.347656 25.304688 C 282.917969 24.269531 283.535156 23.257812 284.195312 22.277344 C 284.859375 21.296875 285.5625 20.347656 286.308594 19.425781 C 287.054688 18.507812 287.839844 17.625 288.664062 16.773438 C 289.488281 15.925781 290.347656 15.117188 291.246094 14.34375 C 292.140625 13.570312 293.070312 12.839844 294.03125 12.148438 C 294.996094 11.460938 295.984375 10.8125 297.003906 10.210938 C 298.023438 9.609375 299.066406 9.054688 300.136719 8.546875 C 301.203125 8.035156 302.292969 7.578125 303.402344 7.164062 C 304.511719 6.753906 305.640625 6.390625 306.78125 6.078125 C 307.921875 5.765625 309.078125 5.503906 310.242188 5.296875 C 311.40625 5.085938 312.578125 4.929688 313.757812 4.824219 C 314.9375 4.71875 316.117188 4.664062 317.300781 4.664062 Z M 200.839844 181.675781 C 205.136719 175.207031 209.941406 169.132812 215.253906 163.460938 L 83.089844 59.121094 C 83.378906 58.382812 83.644531 57.640625 83.890625 56.890625 C 84.136719 56.140625 84.355469 55.382812 84.554688 54.621094 C 84.757812 53.855469 84.933594 53.085938 85.085938 52.3125 C 85.242188 51.539062 85.371094 50.757812 85.480469 49.976562 C 85.585938 49.195312 85.671875 48.410156 85.730469 47.625 C 85.792969 46.835938 85.832031 46.046875 85.84375 45.257812 C 85.859375 44.46875 85.851562 43.679688 85.816406 42.890625 C 85.785156 42.101562 85.730469 41.316406 85.648438 40.53125 C 85.570312 39.746094 85.46875 38.960938 85.34375 38.183594 C 85.21875 37.402344 85.070312 36.628906 84.898438 35.859375 C 84.726562 35.085938 84.53125 34.324219 84.3125 33.5625 C 84.097656 32.804688 83.859375 32.050781 83.597656 31.308594 C 83.335938 30.5625 83.050781 29.828125 82.746094 29.097656 C 82.441406 28.371094 82.113281 27.652344 81.765625 26.941406 C 81.417969 26.234375 81.050781 25.535156 80.660156 24.851562 C 80.269531 24.164062 79.859375 23.488281 79.433594 22.824219 C 79.003906 22.164062 78.554688 21.515625 78.085938 20.878906 C 77.617188 20.242188 77.132812 19.621094 76.625 19.011719 C 76.121094 18.40625 75.601562 17.816406 75.058594 17.238281 C 74.519531 16.664062 73.964844 16.101562 73.390625 15.558594 C 72.816406 15.015625 72.226562 14.492188 71.625 13.980469 C 71.019531 13.472656 70.402344 12.984375 69.765625 12.511719 C 69.132812 12.042969 68.488281 11.589844 67.828125 11.15625 C 67.167969 10.722656 66.496094 10.308594 65.808594 9.914062 C 65.125 9.523438 64.429688 9.148438 63.722656 8.796875 C 63.015625 8.445312 62.296875 8.113281 61.570312 7.804688 C 60.84375 7.496094 60.109375 7.207031 59.367188 6.941406 C 58.625 6.675781 57.871094 6.433594 57.113281 6.210938 C 56.355469 5.988281 55.59375 5.789062 54.824219 5.613281 C 54.054688 5.4375 53.277344 5.285156 52.5 5.15625 C 51.722656 5.023438 50.9375 4.917969 50.152344 4.832031 C 49.367188 4.75 48.582031 4.6875 47.792969 4.652344 C 47.003906 4.613281 46.214844 4.601562 45.425781 4.609375 C 44.632812 4.621094 43.847656 4.652344 43.058594 4.710938 C 42.269531 4.765625 41.484375 4.84375 40.703125 4.949219 C 39.917969 5.050781 39.140625 5.175781 38.363281 5.328125 C 37.589844 5.476562 36.816406 5.648438 36.054688 5.84375 C 35.289062 6.039062 34.527344 6.253906 33.777344 6.496094 C 33.023438 6.734375 32.277344 6.996094 31.542969 7.28125 C 30.804688 7.5625 30.078125 7.871094 29.359375 8.195312 C 28.640625 8.523438 27.929688 8.871094 27.234375 9.242188 C 26.535156 9.609375 25.847656 10 25.175781 10.410156 C 24.5 10.820312 23.835938 11.25 23.1875 11.699219 C 22.539062 12.148438 21.902344 12.613281 21.28125 13.101562 C 20.660156 13.589844 20.050781 14.09375 19.460938 14.617188 C 18.867188 15.140625 18.292969 15.679688 17.734375 16.234375 C 17.171875 16.792969 16.628906 17.367188 16.105469 17.953125 C 15.578125 18.542969 15.070312 19.148438 14.582031 19.765625 C 14.089844 20.386719 13.621094 21.019531 13.167969 21.667969 C 12.714844 22.3125 12.28125 22.972656 11.871094 23.648438 C 11.457031 24.320312 11.0625 25.003906 10.691406 25.699219 C 10.320312 26.394531 9.96875 27.101562 9.636719 27.820312 C 9.304688 28.535156 8.996094 29.261719 8.710938 29.996094 C 8.421875 30.734375 8.15625 31.476562 7.914062 32.226562 C 7.667969 32.976562 7.449219 33.734375 7.25 34.5 C 7.050781 35.265625 6.875 36.035156 6.722656 36.808594 C 6.570312 37.582031 6.441406 38.359375 6.332031 39.144531 C 6.226562 39.925781 6.144531 40.710938 6.082031 41.496094 C 6.023438 42.285156 5.988281 43.074219 5.972656 43.863281 C 5.960938 44.652344 5.96875 45.441406 6.003906 46.230469 C 6.039062 47.019531 6.09375 47.804688 6.175781 48.589844 C 6.253906 49.375 6.359375 50.15625 6.484375 50.9375 C 6.613281 51.714844 6.761719 52.492188 6.933594 53.261719 C 7.105469 54.03125 7.300781 54.796875 7.519531 55.554688 C 7.738281 56.3125 7.976562 57.066406 8.242188 57.808594 C 8.503906 58.554688 8.789062 59.289062 9.09375 60.019531 C 9.398438 60.746094 9.726562 61.464844 10.078125 62.171875 C 10.425781 62.878906 10.796875 63.578125 11.183594 64.265625 C 11.574219 64.949219 11.984375 65.625 12.417969 66.285156 C 12.847656 66.949219 13.296875 67.597656 13.765625 68.234375 C 14.234375 68.867188 14.71875 69.488281 15.226562 70.09375 C 15.730469 70.703125 16.253906 71.292969 16.796875 71.867188 C 17.335938 72.445312 17.894531 73.003906 18.46875 73.546875 C 19.042969 74.085938 19.628906 74.613281 20.234375 75.121094 C 20.839844 75.628906 21.460938 76.117188 22.09375 76.585938 C 22.726562 77.058594 23.375 77.507812 24.035156 77.941406 C 24.695312 78.375 25.371094 78.785156 26.054688 79.179688 C 26.742188 79.570312 27.4375 79.941406 28.144531 80.292969 C 28.851562 80.644531 29.570312 80.976562 30.296875 81.285156 C 31.023438 81.59375 31.757812 81.878906 32.5 82.144531 C 33.246094 82.410156 33.996094 82.652344 34.753906 82.871094 C 35.511719 83.09375 36.277344 83.289062 37.046875 83.464844 C 37.816406 83.640625 38.59375 83.792969 39.371094 83.921875 C 40.152344 84.050781 40.933594 84.15625 41.71875 84.242188 C 42.503906 84.324219 43.289062 84.382812 44.078125 84.417969 C 44.867188 84.457031 45.65625 84.46875 46.449219 84.457031 C 47.238281 84.445312 48.027344 84.414062 48.8125 84.355469 C 49.601562 84.296875 50.386719 84.21875 51.167969 84.113281 C 51.953125 84.007812 52.730469 83.882812 53.507812 83.730469 C 54.28125 83.582031 55.050781 83.410156 55.816406 83.214844 C 56.582031 83.015625 57.339844 82.800781 58.09375 82.558594 C 58.84375 82.316406 59.589844 82.054688 60.324219 81.769531 C 61.0625 81.484375 61.789062 81.179688 62.507812 80.851562 C 63.226562 80.523438 63.933594 80.171875 64.632812 79.804688 C 65.328125 79.433594 66.015625 79.042969 66.691406 78.632812 C 67.363281 78.222656 68.027344 77.789062 68.675781 77.339844 L 200.832031 181.675781 Z M 359.273438 507.003906 L 359.515625 277.988281 C 359.507812 276.597656 359.429688 275.214844 359.285156 273.832031 C 359.144531 272.449219 358.933594 271.074219 358.65625 269.714844 C 358.375 268.351562 358.03125 267.003906 357.625 265.675781 C 357.214844 264.347656 356.742188 263.042969 356.203125 261.761719 C 355.664062 260.480469 355.066406 259.226562 354.40625 258.003906 C 353.746094 256.777344 353.027344 255.589844 352.25 254.4375 C 351.476562 253.285156 350.644531 252.171875 349.757812 251.097656 C 348.875 250.027344 347.9375 249 346.953125 248.019531 C 345.964844 247.039062 344.933594 246.109375 343.859375 245.230469 C 342.78125 244.351562 341.664062 243.527344 340.507812 242.753906 C 339.347656 241.984375 338.15625 241.273438 336.929688 240.621094 C 335.703125 239.964844 334.445312 239.375 333.160156 238.84375 C 331.875 238.3125 330.566406 237.847656 329.234375 237.441406 C 327.902344 237.039062 326.558594 236.703125 325.191406 236.433594 C 323.828125 236.160156 322.453125 235.957031 321.070312 235.820312 C 319.6875 235.683594 318.300781 235.617188 316.910156 235.617188 C 315.519531 235.613281 314.128906 235.683594 312.746094 235.816406 C 311.363281 235.953125 309.988281 236.152344 308.625 236.421875 C 307.261719 236.691406 305.910156 237.027344 304.582031 237.429688 C 303.25 237.832031 301.941406 238.296875 300.652344 238.824219 C 299.367188 239.355469 298.113281 239.945312 296.882812 240.597656 C 295.65625 241.25 294.460938 241.960938 293.304688 242.730469 C 292.144531 243.5 291.027344 244.324219 289.949219 245.199219 C 288.871094 246.078125 287.839844 247.007812 286.851562 247.988281 C 285.863281 248.96875 284.929688 249.992188 284.042969 251.0625 C 283.15625 252.132812 282.324219 253.246094 281.546875 254.398438 C 280.765625 255.550781 280.046875 256.738281 279.386719 257.960938 C 278.726562 259.183594 278.125 260.4375 277.585938 261.71875 C 277.046875 263 276.574219 264.304688 276.160156 265.632812 C 275.75 266.960938 275.40625 268.304688 275.125 269.667969 C 274.847656 271.027344 274.632812 272.402344 274.488281 273.785156 C 274.34375 275.167969 274.265625 276.550781 274.257812 277.941406 L 274.289062 608.375 C 237.234375 596.0625 217.816406 600.84375 204.378906 621.371094 C 203.480469 622.742188 202.648438 624.148438 201.882812 625.597656 C 201.117188 627.042969 200.425781 628.523438 199.800781 630.039062 C 199.179688 631.554688 198.628906 633.09375 198.15625 634.660156 C 197.679688 636.226562 197.28125 637.8125 196.957031 639.417969 C 196.632812 641.023438 196.390625 642.640625 196.21875 644.269531 C 196.050781 645.898438 195.960938 647.53125 195.949219 649.167969 C 195.9375 650.804688 196.003906 652.4375 196.148438 654.070312 C 196.292969 655.699219 196.515625 657.320312 196.8125 658.929688 C 197.113281 660.539062 197.488281 662.128906 197.941406 663.703125 C 198.390625 665.277344 198.917969 666.824219 199.519531 668.347656 C 200.117188 669.871094 200.789062 671.363281 201.53125 672.824219 C 202.277344 674.28125 203.085938 675.703125 203.964844 677.082031 C 204.84375 678.464844 205.789062 679.800781 206.792969 681.09375 C 207.800781 682.382812 208.867188 683.625 209.992188 684.8125 C 211.117188 686.003906 212.296875 687.136719 213.53125 688.210938 C 214.765625 689.289062 216.050781 690.300781 217.382812 691.257812 C 314.667969 761.828125 319.433594 797.472656 437.546875 804.234375 C 538.894531 810.035156 615.9375 727.675781 616.195312 633.753906 L 615.183594 505.625 C 615.183594 504.230469 615.117188 502.835938 614.984375 501.449219 C 614.847656 500.058594 614.644531 498.679688 614.375 497.308594 C 614.101562 495.941406 613.765625 494.585938 613.363281 493.25 C 612.957031 491.914062 612.488281 490.601562 611.957031 489.3125 C 611.421875 488.019531 610.828125 486.757812 610.171875 485.527344 C 609.511719 484.296875 608.796875 483.097656 608.023438 481.9375 C 607.246094 480.777344 606.417969 479.65625 605.53125 478.574219 C 604.648438 477.496094 603.710938 476.460938 602.726562 475.472656 C 601.738281 474.484375 600.707031 473.550781 599.625 472.664062 C 598.546875 471.777344 597.429688 470.945312 596.265625 470.167969 C 595.105469 469.390625 593.910156 468.675781 592.679688 468.015625 C 591.449219 467.355469 590.1875 466.761719 588.898438 466.226562 C 587.609375 465.691406 586.292969 465.21875 584.957031 464.8125 C 583.621094 464.410156 582.269531 464.070312 580.898438 463.796875 C 579.53125 463.523438 578.152344 463.316406 576.761719 463.179688 C 575.371094 463.042969 573.976562 462.972656 572.582031 462.972656 C 571.183594 462.972656 569.792969 463.042969 568.402344 463.179688 C 567.011719 463.316406 565.632812 463.519531 564.261719 463.792969 C 562.894531 464.0625 561.539062 464.402344 560.203125 464.808594 C 558.867188 465.210938 557.554688 465.679688 556.261719 466.214844 C 554.972656 466.75 553.710938 467.347656 552.480469 468.003906 C 551.25 468.664062 550.050781 469.378906 548.890625 470.15625 C 547.730469 470.929688 546.609375 471.761719 545.53125 472.648438 C 544.449219 473.53125 543.417969 474.46875 542.429688 475.457031 C 541.441406 476.445312 540.507812 477.476562 539.621094 478.554688 C 538.734375 479.636719 537.90625 480.757812 537.128906 481.917969 C 536.355469 483.078125 535.636719 484.273438 534.980469 485.503906 C 534.320312 486.738281 533.726562 487.996094 533.191406 489.289062 C 532.65625 490.578125 532.1875 491.890625 531.785156 493.226562 C 531.378906 494.5625 531.039062 495.914062 530.769531 497.285156 C 530.496094 498.652344 530.292969 500.035156 530.15625 501.421875 C 530.019531 502.8125 529.953125 504.203125 529.953125 505.601562 C 529.964844 504.199219 529.902344 502.804688 529.773438 501.410156 C 529.644531 500.015625 529.449219 498.628906 529.183594 497.253906 C 528.917969 495.878906 528.582031 494.519531 528.183594 493.179688 C 527.785156 491.835938 527.320312 490.515625 526.789062 489.222656 C 526.257812 487.925781 525.664062 486.65625 525.011719 485.417969 C 524.355469 484.183594 523.640625 482.980469 522.867188 481.8125 C 522.09375 480.644531 521.265625 479.519531 520.378906 478.433594 C 519.496094 477.347656 518.558594 476.308594 517.570312 475.3125 C 516.582031 474.320312 515.550781 473.378906 514.46875 472.488281 C 513.386719 471.59375 512.265625 470.757812 511.101562 469.976562 C 509.941406 469.199219 508.742188 468.476562 507.507812 467.8125 C 506.273438 467.152344 505.007812 466.550781 503.714844 466.011719 C 502.421875 465.476562 501.105469 465 499.765625 464.59375 C 498.425781 464.183594 497.070312 463.84375 495.695312 463.570312 C 494.320312 463.296875 492.9375 463.089844 491.542969 462.953125 C 490.148438 462.8125 488.75 462.746094 487.351562 462.746094 C 485.949219 462.746094 484.550781 462.8125 483.15625 462.953125 C 481.761719 463.089844 480.378906 463.296875 479.003906 463.570312 C 477.632812 463.84375 476.273438 464.183594 474.933594 464.59375 C 473.59375 465 472.277344 465.476562 470.984375 466.011719 C 469.691406 466.550781 468.425781 467.152344 467.191406 467.8125 C 465.957031 468.476562 464.757812 469.199219 463.597656 469.976562 C 462.433594 470.757812 461.3125 471.59375 460.230469 472.488281 C 459.152344 473.378906 458.117188 474.320312 457.128906 475.3125 C 456.140625 476.308594 455.207031 477.347656 454.320312 478.433594 C 453.433594 479.519531 452.605469 480.644531 451.832031 481.8125 C 451.058594 482.980469 450.34375 484.183594 449.6875 485.417969 C 449.035156 486.65625 448.441406 487.925781 447.910156 489.222656 C 447.382812 490.515625 446.917969 491.835938 446.515625 493.179688 C 446.117188 494.519531 445.785156 495.878906 445.519531 497.253906 C 445.253906 498.628906 445.054688 500.015625 444.925781 501.410156 C 444.796875 502.804688 444.738281 504.199219 444.746094 505.601562 C 444.742188 504.207031 444.671875 502.816406 444.53125 501.429688 C 444.390625 500.042969 444.1875 498.667969 443.910156 497.300781 C 443.636719 495.933594 443.296875 494.582031 442.890625 493.25 C 442.484375 491.917969 442.015625 490.605469 441.480469 489.320312 C 440.945312 488.03125 440.347656 486.773438 439.691406 485.542969 C 439.03125 484.316406 438.316406 483.121094 437.542969 481.960938 C 436.765625 480.804688 435.9375 479.6875 435.054688 478.609375 C 434.167969 477.53125 433.234375 476.5 432.246094 475.511719 C 431.261719 474.527344 430.230469 473.589844 429.152344 472.707031 C 428.078125 471.820312 426.960938 470.992188 425.800781 470.214844 C 424.640625 469.4375 423.449219 468.722656 422.21875 468.0625 C 420.992188 467.402344 419.734375 466.804688 418.445312 466.269531 C 417.160156 465.734375 415.847656 465.261719 414.515625 464.855469 C 413.183594 464.449219 411.832031 464.105469 410.464844 463.832031 C 409.097656 463.554688 407.722656 463.347656 406.332031 463.207031 C 404.945312 463.066406 403.554688 462.992188 402.160156 462.988281 C 378.730469 462.972656 359.152344 483.589844 359.269531 507.023438 Z M 317.300781 195.125 C 316.257812 195.125 315.214844 195.152344 314.171875 195.203125 C 313.132812 195.253906 312.089844 195.332031 311.054688 195.433594 C 310.015625 195.535156 308.980469 195.664062 307.949219 195.816406 C 306.917969 195.96875 305.890625 196.148438 304.867188 196.351562 C 303.84375 196.554688 302.828125 196.78125 301.816406 197.035156 C 300.804688 197.289062 299.796875 197.566406 298.800781 197.871094 C 297.800781 198.171875 296.8125 198.5 295.832031 198.851562 C 294.847656 199.203125 293.875 199.578125 292.910156 199.976562 C 291.949219 200.375 290.996094 200.796875 290.050781 201.242188 C 289.109375 201.6875 288.179688 202.15625 287.257812 202.648438 C 286.339844 203.140625 285.429688 203.652344 284.535156 204.1875 C 283.640625 204.726562 282.761719 205.28125 281.894531 205.863281 C 281.027344 206.441406 280.175781 207.042969 279.335938 207.664062 C 278.5 208.285156 277.675781 208.925781 276.871094 209.585938 C 276.066406 210.246094 275.273438 210.929688 274.503906 211.628906 C 273.730469 212.328125 272.972656 213.046875 272.238281 213.785156 C 271.5 214.523438 270.78125 215.277344 270.082031 216.050781 C 269.378906 216.820312 268.699219 217.609375 268.039062 218.417969 C 267.375 219.222656 266.734375 220.042969 266.113281 220.882812 C 265.492188 221.71875 264.890625 222.570312 264.3125 223.4375 C 263.730469 224.304688 263.175781 225.183594 262.636719 226.078125 C 262.101562 226.972656 261.589844 227.878906 261.097656 228.800781 C 260.605469 229.71875 260.136719 230.652344 259.691406 231.59375 C 259.246094 232.535156 258.820312 233.488281 258.421875 234.453125 C 258.023438 235.414062 257.648438 236.386719 257.296875 237.367188 C 256.945312 238.351562 256.617188 239.339844 256.316406 240.335938 C 256.011719 241.335938 255.734375 242.339844 255.480469 243.351562 C 255.226562 244.363281 255 245.378906 254.796875 246.402344 C 254.59375 247.425781 254.414062 248.453125 254.261719 249.484375 C 254.109375 250.515625 253.980469 251.546875 253.878906 252.585938 C 253.777344 253.625 253.699219 254.664062 253.648438 255.703125 C 253.597656 256.746094 253.570312 257.789062 253.570312 258.828125 L 253.570312 259.441406 C 254.078125 257.71875 254.652344 256.015625 255.296875 254.339844 C 255.941406 252.660156 256.652344 251.011719 257.433594 249.394531 C 258.214844 247.773438 259.058594 246.1875 259.964844 244.636719 C 260.875 243.085938 261.847656 241.578125 262.878906 240.105469 C 263.910156 238.632812 265.003906 237.207031 266.152344 235.824219 C 267.300781 234.445312 268.507812 233.109375 269.765625 231.828125 C 271.023438 230.542969 272.332031 229.3125 273.691406 228.136719 C 275.050781 226.960938 276.453125 225.839844 277.90625 224.777344 C 279.355469 223.71875 280.847656 222.714844 282.378906 221.777344 C 283.914062 220.835938 285.480469 219.960938 287.085938 219.148438 C 288.6875 218.335938 290.324219 217.59375 291.988281 216.914062 C 293.652344 216.234375 295.34375 215.628906 297.058594 215.085938 C 298.773438 214.546875 300.507812 214.078125 302.261719 213.679688 C 304.015625 213.28125 305.78125 212.957031 307.5625 212.703125 C 309.339844 212.449219 311.128906 212.265625 312.921875 212.160156 C 314.71875 212.050781 316.515625 212.015625 318.3125 212.054688 C 320.109375 212.09375 321.902344 212.207031 323.691406 212.394531 C 325.476562 212.578125 327.257812 212.835938 329.023438 213.167969 C 330.789062 213.5 332.542969 213.902344 334.277344 214.375 C 336.011719 214.851562 337.722656 215.394531 339.410156 216.007812 C 341.101562 216.621094 342.761719 217.304688 344.398438 218.054688 C 346.03125 218.804688 347.632812 219.617188 349.199219 220.5 C 350.765625 221.378906 352.296875 222.324219 353.785156 223.328125 C 355.277344 224.335938 356.722656 225.398438 358.125 226.523438 C 359.527344 227.648438 360.882812 228.828125 362.191406 230.0625 C 363.496094 231.296875 364.75 232.582031 365.953125 233.917969 C 367.152344 235.253906 368.296875 236.640625 369.386719 238.070312 C 370.476562 239.5 371.503906 240.972656 372.46875 242.488281 C 373.4375 244.003906 374.34375 245.554688 375.183594 247.144531 C 376.023438 248.730469 376.800781 250.351562 377.507812 252.003906 C 378.214844 253.65625 378.855469 255.335938 379.425781 257.039062 C 379.996094 258.742188 380.496094 260.46875 380.925781 262.210938 C 380.988281 261.09375 381.015625 259.964844 381.015625 258.828125 C 381.015625 257.789062 380.992188 256.746094 380.9375 255.703125 C 380.886719 254.664062 380.8125 253.625 380.710938 252.585938 C 380.605469 251.550781 380.480469 250.515625 380.328125 249.484375 C 380.171875 248.453125 379.996094 247.425781 379.792969 246.402344 C 379.589844 245.382812 379.359375 244.363281 379.105469 243.351562 C 378.855469 242.339844 378.574219 241.335938 378.273438 240.339844 C 377.96875 239.34375 377.644531 238.351562 377.292969 237.371094 C 376.941406 236.390625 376.566406 235.417969 376.167969 234.453125 C 375.769531 233.492188 375.34375 232.539062 374.898438 231.597656 C 374.453125 230.652344 373.984375 229.722656 373.492188 228.804688 C 373.003906 227.882812 372.488281 226.976562 371.953125 226.082031 C 371.417969 225.1875 370.859375 224.308594 370.277344 223.441406 C 369.699219 222.574219 369.101562 221.722656 368.480469 220.886719 C 367.859375 220.046875 367.214844 219.226562 366.554688 218.421875 C 365.894531 217.613281 365.210938 216.824219 364.511719 216.050781 C 363.8125 215.28125 363.09375 214.523438 362.355469 213.789062 C 361.617188 213.050781 360.863281 212.332031 360.089844 211.632812 C 359.316406 210.933594 358.527344 210.25 357.722656 209.589844 C 356.917969 208.929688 356.09375 208.285156 355.257812 207.664062 C 354.417969 207.046875 353.566406 206.445312 352.699219 205.867188 C 351.832031 205.285156 350.953125 204.730469 350.058594 204.191406 C 349.164062 203.65625 348.257812 203.144531 347.335938 202.652344 C 346.417969 202.160156 345.484375 201.691406 344.542969 201.246094 C 343.601562 200.800781 342.648438 200.378906 341.683594 199.976562 C 340.722656 199.578125 339.75 199.203125 338.765625 198.851562 C 337.785156 198.5 336.792969 198.175781 335.796875 197.871094 C 334.800781 197.570312 333.792969 197.289062 332.78125 197.039062 C 331.769531 196.785156 330.753906 196.554688 329.730469 196.351562 C 328.707031 196.148438 327.679688 195.96875 326.648438 195.816406 C 325.617188 195.664062 324.582031 195.535156 323.546875 195.433594 C 322.507812 195.332031 321.46875 195.253906 320.425781 195.203125 C 319.386719 195.152344 318.34375 195.125 317.300781 195.125 Z M 317.300781 195.125 " fill-opacity="1" fill-rule="evenodd"/><g clip-path="url(#e30b386a0e)"><g clip-path="url(#102243ed7f)"><g transform="matrix(1, 0, 0, 1, 507, 585)"><g clip-path="url(#936d5b7e2a)"><g clip-path="url(#191bf1712d)"><g clip-path="url(#bbac2a6e5e)"><path fill="#000000" d="M 0.472656 0.0546875 L 14.121094 0.0546875 L 14.121094 13.703125 L 0.472656 13.703125 Z M 0.472656 0.0546875 " fill-opacity="1" fill-rule="nonzero"/></g></g></g></g></g></g></svg>