<svg xmlns="http://www.w3.org/2000/svg" xmlns:xlink="http://www.w3.org/1999/xlink" width="1080" zoomAndPan="magnify" viewBox="0 0 810 809.999993" height="1080" preserveAspectRatio="xMidYMid meet" version="1.0"><defs><clipPath id="534d3416c4"><path d="M 7.925781 8 L 809.675781 8 L 809.675781 809.675781 L 7.925781 809.675781 Z M 7.925781 8 " clip-rule="nonzero"/></clipPath></defs><g clip-path="url(#534d3416c4)"><path fill="#6c4dd3" d="M 809.355469 437.671875 L 809.355469 150.535156 C 809.355469 141.601562 809.355469 132.671875 809.355469 124.375 C 809.355469 123.738281 809.992188 122.460938 809.992188 121.824219 C 809.992188 121.183594 809.992188 119.910156 809.355469 119.269531 C 809.355469 98.214844 809.355469 77.15625 809.355469 56.101562 C 809.355469 29.9375 788.933594 8.882812 762.773438 8.246094 C 762.773438 8.246094 762.136719 8.246094 762.136719 8.246094 L 58.972656 8.246094 C 56.417969 8.246094 53.867188 8.246094 51.953125 8.246094 C 27.707031 9.519531 7.925781 29.9375 7.925781 54.1875 C 7.925781 61.207031 7.925781 68.222656 7.925781 75.242188 L 7.925781 752.246094 C 7.925781 768.835938 9.203125 785.425781 22.601562 797.550781 C 36 809.671875 50.039062 809.671875 65.992188 809.671875 L 762.773438 809.671875 C 787.660156 809.035156 808.078125 789.253906 808.714844 764.371094 C 808.714844 762.453125 808.714844 759.902344 808.714844 757.988281 L 808.714844 442.777344 C 808.714844 442.140625 809.355469 440.863281 809.355469 440.222656 C 809.355469 439.585938 809.992188 438.308594 809.355469 437.671875 Z M 23.878906 129.480469 L 704.707031 129.480469 C 734.058594 129.480469 764.050781 130.757812 793.402344 129.480469 L 793.402344 431.929688 L 113.207031 431.929688 C 83.21875 431.929688 53.867188 430.652344 23.878906 431.929688 L 23.878906 139.6875 C 23.878906 136.5 23.878906 132.671875 23.878906 129.480469 Z M 23.878906 54.824219 C 23.878906 38.234375 37.277344 24.195312 54.503906 24.195312 L 660.679688 24.195312 C 693.859375 24.195312 727.042969 24.195312 760.222656 24.195312 C 777.449219 22.921875 792.125 36.320312 793.402344 53.546875 C 793.402344 54.1875 793.402344 55.460938 793.402344 56.101562 C 793.402344 66.308594 793.402344 76.519531 793.402344 86.726562 L 793.402344 112.890625 L 113.207031 112.890625 C 83.21875 112.890625 53.867188 111.613281 23.878906 112.890625 C 23.878906 93.746094 23.878906 74.605469 23.878906 54.824219 Z M 793.402344 763.730469 C 793.402344 780.320312 780.003906 794.359375 763.410156 794.359375 L 70.457031 794.359375 C 60.886719 794.359375 49.402344 795.636719 40.46875 791.167969 C 24.515625 782.875 24.515625 767.558594 24.515625 752.246094 L 24.515625 448.519531 L 705.347656 448.519531 C 734.699219 448.519531 764.6875 449.796875 794.039062 448.519531 L 794.039062 756.074219 C 793.402344 758.625 793.402344 761.179688 793.402344 763.730469 Z M 793.402344 763.730469 " fill-opacity="1" fill-rule="nonzero"/></g><path fill="#6c4dd3" d="M 268.261719 636.753906 L 268.261719 544.871094 C 268.261719 535.9375 268.261719 527.003906 268.261719 518.707031 C 268.898438 503.394531 256.777344 490.632812 241.460938 489.996094 C 219.128906 489.355469 196.796875 489.996094 174.464844 489.996094 C 150.21875 489.996094 125.332031 489.355469 101.085938 489.996094 C 85.769531 489.355469 73.007812 501.480469 72.371094 516.792969 C 72.371094 516.792969 72.371094 516.792969 72.371094 517.433594 C 72.371094 524.449219 72.371094 531.46875 72.371094 538.488281 L 72.371094 662.277344 C 72.371094 675.039062 76.199219 686.523438 88.324219 692.265625 C 95.980469 694.820312 104.277344 695.457031 112.570312 694.820312 L 240.824219 694.820312 C 241.460938 694.820312 242.101562 694.820312 242.738281 694.179688 C 257.414062 692.902344 268.898438 680.78125 268.261719 665.464844 C 268.261719 665.464844 268.261719 664.828125 268.261719 664.828125 C 268.261719 655.894531 268.261719 646.324219 268.261719 636.753906 Z M 252.308594 666.742188 C 252.308594 673.125 247.207031 678.226562 240.824219 678.226562 L 106.828125 678.226562 C 98.53125 678.226562 88.960938 678.226562 87.683594 666.742188 C 87.046875 661.636719 87.683594 655.894531 87.683594 650.789062 L 87.683594 531.46875 C 87.046875 525.726562 87.046875 519.347656 88.324219 513.605469 C 91.515625 504.671875 101.085938 506.585938 108.742188 506.585938 L 226.785156 506.585938 C 233.167969 505.945312 239.546875 505.945312 245.929688 507.859375 C 253.585938 511.691406 252.308594 520.621094 252.308594 527.640625 L 252.308594 606.761719 C 252.308594 625.90625 252.949219 646.324219 252.308594 666.742188 Z M 252.308594 666.742188 " fill-opacity="1" fill-rule="nonzero"/><path fill="#6c4dd3" d="M 227.425781 710.132812 L 113.207031 710.132812 C 108.742188 710.132812 105.550781 713.960938 105.550781 717.789062 C 105.550781 721.617188 109.378906 725.445312 113.207031 725.445312 L 227.425781 725.445312 C 231.890625 725.445312 235.082031 721.617188 235.082031 717.789062 C 235.082031 713.960938 231.890625 710.132812 227.425781 710.132812 Z M 227.425781 710.132812 " fill-opacity="1" fill-rule="nonzero"/><path fill="#6c4dd3" d="M 227.425781 736.292969 L 113.207031 736.292969 C 108.742188 736.292969 105.550781 740.121094 105.550781 743.949219 C 105.550781 748.417969 109.378906 751.609375 113.207031 751.609375 L 227.425781 751.609375 C 231.890625 751.609375 235.082031 747.777344 235.082031 743.949219 C 235.082031 740.121094 231.890625 736.292969 227.425781 736.292969 Z M 227.425781 736.292969 " fill-opacity="1" fill-rule="nonzero"/><path fill="#6c4dd3" d="M 506.902344 636.753906 L 506.902344 544.871094 C 506.902344 535.9375 506.902344 527.003906 506.902344 518.707031 C 507.542969 503.394531 495.417969 490.632812 480.105469 489.996094 C 457.773438 489.355469 435.4375 489.996094 413.105469 489.996094 C 388.859375 489.996094 363.972656 489.355469 339.726562 489.996094 C 324.414062 489.355469 311.652344 502.117188 311.652344 517.433594 C 311.652344 524.449219 311.652344 531.46875 311.652344 538.488281 L 311.652344 662.277344 C 311.652344 675.039062 315.480469 686.523438 327.601562 692.265625 C 335.261719 694.820312 343.554688 695.457031 351.851562 694.820312 L 480.105469 694.820312 C 480.742188 694.820312 481.378906 694.820312 482.019531 694.179688 C 496.695312 692.902344 507.542969 680.144531 506.902344 665.46875 C 506.902344 665.46875 506.902344 665.46875 506.902344 664.828125 C 506.902344 655.894531 506.902344 646.324219 506.902344 636.753906 Z M 490.953125 666.742188 C 490.953125 673.125 485.847656 678.226562 479.464844 678.226562 L 345.46875 678.226562 C 337.175781 678.226562 327.601562 678.226562 326.328125 666.742188 C 325.6875 661.636719 326.328125 655.894531 326.328125 650.789062 L 326.328125 531.46875 C 325.6875 525.726562 325.6875 519.347656 326.964844 513.605469 C 330.15625 504.671875 339.726562 506.585938 347.382812 506.585938 L 465.429688 506.585938 C 471.808594 505.945312 478.191406 505.945312 484.570312 507.859375 C 492.226562 511.691406 490.953125 520.621094 490.953125 527.640625 L 490.953125 606.761719 C 490.953125 625.90625 492.226562 646.324219 490.953125 666.742188 Z M 490.953125 666.742188 " fill-opacity="1" fill-rule="nonzero"/><path fill="#6c4dd3" d="M 466.066406 710.132812 L 351.851562 710.132812 C 347.382812 710.132812 344.195312 713.960938 344.195312 717.789062 C 344.195312 721.617188 348.023438 725.445312 351.851562 725.445312 L 466.066406 725.445312 C 470.535156 725.445312 473.722656 721.617188 473.722656 717.789062 C 473.722656 713.960938 470.535156 710.132812 466.066406 710.132812 Z M 466.066406 710.132812 " fill-opacity="1" fill-rule="nonzero"/><path fill="#6c4dd3" d="M 466.066406 736.292969 L 351.851562 736.292969 C 347.382812 736.292969 344.195312 740.121094 344.195312 743.949219 C 344.195312 748.417969 348.023438 751.609375 351.851562 751.609375 L 466.066406 751.609375 C 470.535156 751.609375 473.722656 747.777344 473.722656 743.949219 C 473.722656 740.121094 470.535156 736.292969 466.066406 736.292969 Z M 466.066406 736.292969 " fill-opacity="1" fill-rule="nonzero"/><path fill="#6c4dd3" d="M 745.546875 636.753906 L 745.546875 544.871094 C 745.546875 535.9375 745.546875 527.003906 745.546875 518.707031 C 746.183594 503.394531 734.058594 490.632812 718.746094 489.996094 C 696.414062 489.355469 674.082031 489.996094 651.75 489.996094 C 627.5 489.996094 602.617188 489.355469 578.367188 489.996094 C 563.054688 489.996094 550.292969 502.117188 550.292969 517.433594 C 550.292969 524.449219 550.292969 531.46875 550.292969 538.488281 L 550.292969 662.277344 C 550.292969 675.039062 554.121094 686.523438 566.246094 692.265625 C 573.902344 694.820312 582.199219 695.457031 590.492188 694.820312 L 718.746094 694.820312 C 719.382812 694.820312 720.023438 694.820312 721.296875 694.179688 C 735.335938 692.265625 746.183594 680.144531 745.546875 665.46875 C 745.546875 665.46875 745.546875 665.46875 745.546875 664.828125 C 745.546875 655.894531 745.546875 646.324219 745.546875 636.753906 Z M 729.59375 666.742188 C 729.59375 673.125 724.488281 678.226562 718.109375 678.226562 L 584.113281 678.226562 C 575.816406 678.226562 566.246094 678.226562 564.96875 666.742188 C 564.332031 661.636719 564.96875 655.894531 564.96875 650.789062 L 564.96875 531.46875 C 564.332031 525.726562 564.332031 519.347656 565.605469 513.605469 C 568.796875 504.671875 578.367188 506.585938 586.027344 506.585938 L 703.433594 506.585938 C 709.8125 505.945312 716.195312 505.945312 722.574219 507.859375 C 730.230469 511.691406 728.957031 520.621094 728.957031 527.640625 L 728.957031 606.761719 C 729.59375 625.90625 730.871094 646.324219 729.59375 666.742188 Z M 729.59375 666.742188 " fill-opacity="1" fill-rule="nonzero"/><path fill="#6c4dd3" d="M 704.707031 710.132812 L 590.492188 710.132812 C 586.027344 710.132812 582.835938 713.960938 582.835938 717.789062 C 582.835938 721.617188 586.664062 725.445312 590.492188 725.445312 L 704.707031 725.445312 C 709.175781 725.445312 712.367188 721.617188 712.367188 717.789062 C 712.367188 713.960938 709.175781 710.132812 704.707031 710.132812 Z M 704.707031 710.132812 " fill-opacity="1" fill-rule="nonzero"/><path fill="#6c4dd3" d="M 704.707031 736.292969 L 590.492188 736.292969 C 586.027344 736.292969 582.835938 740.121094 582.835938 743.949219 C 582.835938 748.417969 586.664062 751.609375 590.492188 751.609375 L 704.707031 751.609375 C 709.175781 751.609375 712.367188 747.777344 712.367188 743.949219 C 713.003906 740.121094 709.175781 736.292969 704.707031 736.292969 Z M 704.707031 736.292969 " fill-opacity="1" fill-rule="nonzero"/><path fill="#6c4dd3" d="M 101.722656 71.414062 C 101.722656 71.414062 101.722656 70.777344 101.722656 71.414062 C 101.722656 70.777344 101.722656 70.777344 101.722656 70.777344 C 101.085938 70.777344 101.085938 71.414062 101.722656 71.414062 Z M 101.722656 71.414062 " fill-opacity="1" fill-rule="nonzero"/><path fill="#6c4dd3" d="M 111.292969 89.28125 C 115.121094 84.175781 117.675781 78.433594 117.675781 72.050781 C 117.675781 70.777344 117.675781 69.5 117.039062 68.863281 C 115.761719 59.289062 108.742188 50.359375 99.171875 47.167969 C 88.960938 43.339844 77.476562 46.53125 70.457031 54.824219 C 60.886719 66.308594 62.164062 82.898438 73.648438 92.472656 C 84.496094 102.042969 101.722656 100.765625 111.292969 89.28125 Z M 79.390625 71.414062 C 79.390625 70.777344 79.390625 70.777344 79.390625 70.136719 C 79.390625 69.5 80.027344 68.222656 80.027344 67.585938 L 80.667969 66.308594 L 81.304688 65.035156 C 81.941406 64.394531 82.582031 63.757812 83.21875 63.121094 C 83.21875 63.121094 83.855469 63.121094 83.855469 63.121094 C 84.496094 63.121094 86.410156 61.84375 86.410156 61.84375 C 86.410156 61.84375 84.496094 62.480469 85.769531 61.84375 L 87.046875 61.207031 L 87.683594 61.207031 C 87.683594 61.207031 87.683594 61.207031 88.324219 61.207031 C 88.324219 61.207031 88.960938 61.207031 88.960938 61.207031 L 91.515625 61.207031 L 94.066406 61.84375 L 95.34375 62.480469 L 95.980469 63.121094 L 97.894531 65.035156 C 97.894531 65.671875 98.53125 65.671875 98.53125 66.308594 L 99.171875 67.585938 C 99.808594 68.863281 99.808594 69.5 99.808594 70.136719 C 99.808594 70.136719 99.808594 70.777344 99.808594 70.777344 C 99.808594 71.414062 99.808594 71.414062 99.808594 71.414062 C 99.808594 72.050781 99.808594 72.050781 99.808594 72.691406 C 99.808594 73.328125 99.808594 73.328125 99.808594 73.964844 C 99.808594 74.605469 99.171875 75.242188 99.171875 75.882812 C 99.171875 75.882812 99.171875 76.519531 99.171875 76.519531 C 99.171875 76.519531 99.171875 76.519531 98.53125 77.15625 C 97.894531 78.433594 97.894531 79.070312 97.257812 79.710938 C 97.257812 79.710938 96.617188 80.347656 96.617188 80.347656 L 95.980469 80.984375 C 95.34375 80.984375 94.703125 82.261719 94.066406 82.261719 L 93.429688 82.898438 L 90.875 83.539062 C 90.238281 83.539062 90.238281 83.539062 90.238281 83.539062 C 89.601562 83.539062 88.960938 83.539062 87.683594 83.539062 L 86.410156 83.539062 L 85.132812 82.898438 C 83.855469 82.261719 85.769531 82.898438 85.769531 82.898438 C 85.769531 82.898438 83.855469 82.261719 83.855469 81.625 L 83.21875 80.984375 C 82.582031 80.347656 81.941406 79.710938 81.304688 79.070312 C 81.304688 79.070312 81.941406 80.347656 81.304688 79.710938 L 80.667969 78.433594 L 80.027344 77.15625 L 80.027344 76.519531 C 80.027344 75.882812 80.027344 75.882812 80.027344 76.519531 C 80.027344 75.882812 79.390625 75.242188 79.390625 74.605469 C 79.390625 73.964844 79.390625 73.964844 79.390625 73.328125 C 79.390625 72.691406 79.390625 72.050781 79.390625 71.414062 Z M 79.390625 71.414062 " fill-opacity="1" fill-rule="nonzero"/><path fill="#6c4dd3" d="M 79.390625 71.414062 C 80.027344 69.5 79.390625 70.136719 79.390625 71.414062 Z M 79.390625 71.414062 " fill-opacity="1" fill-rule="nonzero"/><path fill="#6c4dd3" d="M 175.742188 89.917969 C 180.207031 84.8125 182.121094 79.070312 182.121094 72.691406 C 182.121094 61.207031 175.101562 50.996094 164.253906 47.167969 C 154.046875 43.339844 141.921875 46.53125 134.902344 54.824219 C 125.332031 66.308594 126.609375 82.898438 137.457031 93.109375 C 148.941406 102.679688 166.167969 101.402344 175.742188 89.917969 Z M 143.835938 71.414062 C 143.835938 70.777344 143.835938 70.777344 143.835938 70.136719 C 143.835938 69.5 144.472656 68.222656 144.472656 67.585938 L 145.113281 66.308594 L 145.75 65.035156 C 145.75 65.035156 147.027344 63.121094 147.664062 63.121094 C 147.664062 63.121094 147.664062 63.121094 148.304688 63.121094 C 148.941406 62.480469 150.21875 62.480469 150.855469 61.84375 C 150.855469 61.84375 148.941406 62.480469 150.21875 61.84375 L 151.492188 61.207031 L 152.132812 61.207031 C 152.132812 61.207031 152.132812 61.207031 152.769531 61.207031 C 152.769531 61.207031 153.40625 61.207031 153.40625 61.207031 L 155.960938 61.207031 L 159.152344 61.84375 C 160.425781 62.480469 160.425781 62.480469 160.425781 62.480469 L 161.066406 63.121094 C 161.703125 63.757812 162.339844 64.394531 162.980469 65.035156 C 162.980469 65.671875 163.617188 65.671875 163.617188 66.308594 C 163.617188 66.949219 164.253906 66.949219 164.253906 67.585938 C 166.167969 69.5 166.167969 70.136719 166.167969 70.777344 C 166.167969 70.777344 166.167969 71.414062 166.167969 71.414062 C 166.167969 72.050781 166.167969 72.050781 166.167969 72.050781 C 166.167969 72.691406 166.167969 72.691406 166.167969 73.328125 C 166.167969 73.328125 166.167969 73.964844 166.167969 73.964844 C 166.167969 73.964844 165.53125 75.882812 165.53125 76.519531 C 165.53125 76.519531 165.53125 77.15625 165.53125 77.15625 C 165.53125 77.15625 165.53125 77.15625 164.894531 77.796875 C 164.253906 78.433594 163.617188 79.710938 163.617188 80.347656 C 163.617188 80.347656 162.980469 80.984375 162.980469 80.984375 C 162.980469 80.984375 162.339844 81.625 162.339844 81.625 C 161.703125 81.625 161.066406 82.898438 160.425781 82.898438 L 159.789062 82.261719 L 157.234375 82.898438 C 155.960938 82.898438 157.234375 82.898438 157.234375 82.898438 C 157.234375 82.898438 155.960938 82.898438 155.960938 82.898438 C 155.320312 82.898438 154.683594 82.898438 153.40625 82.898438 C 153.40625 82.898438 153.40625 82.898438 152.769531 82.898438 L 151.492188 82.898438 L 150.21875 82.261719 C 148.941406 81.625 150.855469 82.261719 150.855469 82.261719 C 150.21875 81.625 149.578125 81.625 148.941406 80.984375 L 147.664062 80.347656 C 147.027344 79.710938 146.390625 79.070312 145.75 78.433594 C 145.75 78.433594 145.75 79.070312 145.75 78.433594 L 145.113281 77.796875 C 145.113281 77.796875 144.472656 77.15625 144.472656 77.15625 L 144.472656 76.519531 C 144.472656 75.882812 144.472656 75.882812 144.472656 77.15625 C 144.472656 77.15625 143.835938 75.242188 143.835938 74.605469 L 143.835938 73.328125 C 143.835938 72.691406 143.835938 72.050781 143.835938 71.414062 Z M 143.835938 71.414062 " fill-opacity="1" fill-rule="nonzero"/><path fill="#6c4dd3" d="M 143.835938 71.414062 C 144.472656 69.5 143.835938 70.777344 143.835938 71.414062 Z M 143.835938 71.414062 " fill-opacity="1" fill-rule="nonzero"/><path fill="#6c4dd3" d="M 225.511719 98.851562 C 238.273438 96.300781 246.566406 85.453125 247.207031 72.691406 C 247.207031 72.050781 247.207031 71.414062 246.566406 70.777344 C 245.929688 59.929688 238.910156 50.996094 228.699219 47.167969 C 214.664062 42.699219 199.347656 50.359375 194.246094 64.394531 C 191.691406 72.050781 192.332031 79.710938 196.796875 86.726562 C 203.179688 96.300781 214.664062 101.402344 225.511719 98.851562 Z M 208.921875 71.414062 C 208.921875 70.777344 208.921875 70.777344 208.921875 70.136719 C 208.921875 69.5 209.558594 68.222656 209.558594 67.585938 L 210.195312 66.308594 L 210.835938 65.035156 C 210.835938 65.035156 212.109375 63.121094 212.75 63.121094 C 212.75 63.121094 213.386719 62.480469 213.386719 62.480469 C 214.023438 61.84375 215.300781 61.84375 215.941406 61.207031 C 215.941406 61.207031 214.023438 61.84375 215.300781 61.207031 L 216.578125 60.566406 L 217.214844 60.566406 C 217.214844 60.566406 217.214844 60.566406 217.855469 60.566406 C 217.855469 60.566406 218.492188 60.566406 218.492188 60.566406 L 221.042969 60.566406 L 224.234375 61.207031 C 225.511719 61.84375 225.511719 61.84375 225.511719 61.84375 C 225.511719 61.84375 226.148438 61.84375 226.148438 62.480469 L 226.785156 62.480469 L 228.699219 64.394531 C 228.699219 65.035156 229.339844 65.035156 229.339844 65.671875 L 229.976562 66.949219 C 230.617188 68.222656 230.617188 68.863281 230.617188 69.5 C 231.253906 68.863281 230.617188 71.414062 230.617188 71.414062 C 230.617188 71.414062 230.617188 72.050781 230.617188 72.050781 C 230.617188 72.691406 229.976562 73.328125 229.976562 73.964844 C 229.976562 73.964844 229.976562 74.605469 229.976562 74.605469 C 229.976562 74.605469 229.976562 74.605469 229.339844 75.242188 L 228.0625 77.796875 C 228.0625 77.796875 227.425781 78.433594 227.425781 78.433594 L 226.785156 79.070312 C 226.148438 79.710938 225.511719 80.347656 224.871094 80.347656 L 224.234375 80.984375 L 221.683594 81.625 C 221.042969 81.625 221.042969 81.625 220.40625 81.625 C 219.769531 81.625 218.492188 81.625 217.855469 81.625 L 217.214844 81.625 L 215.941406 80.984375 C 214.664062 80.347656 216.578125 80.984375 216.578125 80.984375 C 216.578125 80.984375 214.664062 80.347656 214.664062 79.710938 C 214.023438 79.710938 214.023438 79.070312 213.386719 79.070312 C 212.75 78.433594 212.109375 77.796875 211.472656 77.15625 C 211.472656 77.15625 211.472656 77.796875 211.472656 77.15625 L 210.835938 75.882812 C 210.835938 75.882812 210.835938 75.242188 210.195312 75.242188 L 210.195312 74.605469 C 210.195312 73.964844 210.195312 73.964844 210.195312 74.605469 C 210.195312 73.964844 209.558594 73.328125 209.558594 72.691406 L 209.558594 71.414062 C 208.921875 72.691406 208.921875 72.050781 208.921875 71.414062 Z M 208.921875 71.414062 " fill-opacity="1" fill-rule="nonzero"/><path fill="#6c4dd3" d="M 231.253906 70.777344 C 230.617188 71.414062 231.253906 72.050781 231.253906 70.777344 Z M 231.253906 70.777344 " fill-opacity="1" fill-rule="nonzero"/><path fill="#6c4dd3" d="M 208.921875 71.414062 C 209.558594 69.5 208.921875 70.777344 208.921875 71.414062 Z M 208.921875 71.414062 " fill-opacity="1" fill-rule="nonzero"/><path fill="#6c4dd3" d="M 378.648438 98.851562 L 554.761719 98.851562 C 611.550781 98.851562 667.699219 100.128906 724.488281 98.851562 L 727.679688 98.851562 C 741.078125 98.851562 752.566406 88.644531 754.480469 75.242188 C 755.753906 63.121094 748.734375 50.996094 737.25 46.53125 C 730.871094 44.613281 725.128906 43.976562 718.746094 44.613281 L 427.78125 44.613281 C 409.914062 44.613281 392.050781 43.976562 374.820312 44.613281 C 359.507812 44.613281 347.382812 56.738281 347.382812 71.414062 C 347.382812 75.882812 348.660156 80.347656 350.574219 84.8125 C 356.957031 96.300781 367.164062 98.851562 378.648438 98.851562 Z M 379.925781 61.207031 L 688.117188 61.207031 C 700.878906 61.207031 713.640625 59.929688 726.402344 61.207031 C 732.785156 61.84375 737.25 66.949219 736.613281 73.328125 C 735.972656 79.070312 732.144531 82.898438 726.402344 83.539062 L 379.925781 83.539062 C 372.269531 83.539062 362.699219 82.898438 362.699219 72.691406 C 362.699219 62.480469 372.90625 61.207031 379.925781 61.207031 Z M 379.925781 61.207031 " fill-opacity="1" fill-rule="nonzero"/><path fill="#6c4dd3" d="M 175.742188 370.675781 L 282.300781 297.933594 L 388.222656 370.675781 C 396.515625 376.417969 404.8125 363.015625 396.515625 356.636719 L 328.878906 310.695312 L 428.421875 243.058594 L 534.980469 315.800781 C 543.273438 321.542969 551.570312 308.140625 543.273438 301.761719 L 432.25 226.46875 C 429.695312 225.191406 426.503906 225.191406 423.953125 226.46875 L 314.84375 301.125 L 286.128906 281.34375 C 283.574219 280.066406 280.386719 280.066406 277.832031 281.34375 L 167.445312 357.273438 C 159.152344 363.015625 167.445312 377.054688 175.742188 370.675781 Z M 175.742188 370.675781 " fill-opacity="1" fill-rule="nonzero"/><path fill="#6c4dd3" d="M 616.652344 239.867188 C 621.121094 234.125 623.671875 227.105469 623.671875 220.085938 C 623.671875 207.324219 615.378906 195.839844 603.253906 191.375 C 591.769531 186.90625 578.367188 190.734375 570.074219 200.304688 C 559.226562 213.066406 560.503906 232.210938 573.265625 243.058594 C 586.027344 253.90625 605.804688 252.628906 616.652344 239.867188 Z M 579.644531 218.171875 L 579.644531 217.535156 C 579.644531 216.898438 579.644531 216.898438 579.644531 216.898438 C 579.644531 216.898438 579.644531 216.257812 579.644531 216.257812 C 580.28125 215.621094 580.28125 214.980469 580.921875 214.34375 C 580.921875 214.34375 580.921875 214.34375 580.921875 213.707031 C 580.921875 213.066406 581.558594 212.429688 581.558594 212.429688 C 581.558594 212.429688 583.472656 209.878906 582.199219 211.152344 C 582.835938 210.515625 583.472656 209.878906 584.113281 209.238281 C 584.113281 209.238281 584.75 208.601562 584.75 208.601562 C 584.75 207.964844 586.664062 206.6875 587.941406 206.6875 L 589.855469 206.050781 L 591.128906 206.050781 C 591.128906 206.050781 593.042969 205.410156 591.769531 206.050781 C 590.492188 206.6875 592.40625 206.050781 592.40625 206.050781 L 595.597656 206.050781 L 598.789062 207.324219 C 599.425781 207.964844 600.0625 207.964844 600.703125 207.964844 L 601.976562 208.601562 L 602.617188 209.238281 L 604.53125 211.152344 C 604.53125 211.792969 605.167969 212.429688 605.804688 212.429688 L 606.445312 213.707031 C 607.082031 214.984375 607.082031 216.257812 607.71875 216.898438 C 607.71875 217.535156 607.71875 218.8125 607.71875 219.449219 C 607.71875 220.085938 607.71875 220.085938 607.71875 220.085938 C 607.71875 221.363281 607.71875 222 607.082031 223.277344 C 607.082031 223.914062 607.082031 224.554688 606.445312 225.191406 C 606.445312 225.191406 607.082031 223.914062 606.445312 225.191406 C 605.804688 226.46875 605.167969 227.105469 604.53125 228.382812 L 603.890625 229.660156 C 603.890625 229.660156 602.617188 230.933594 602.617188 230.933594 C 601.976562 231.574219 601.339844 231.574219 600.703125 232.210938 L 600.0625 232.847656 C 600.0625 232.847656 600.0625 232.847656 599.425781 232.847656 C 597.511719 233.488281 597.511719 233.488281 596.234375 233.488281 C 595.597656 233.488281 594.957031 233.488281 594.957031 233.488281 L 591.769531 233.488281 L 589.855469 232.847656 L 587.941406 232.210938 C 587.300781 232.210938 586.027344 231.574219 585.386719 230.933594 L 584.113281 230.296875 L 582.195312 228.382812 C 582.195312 228.382812 581.558594 228.382812 581.558594 227.742188 L 580.921875 227.105469 C 580.921875 227.105469 580.28125 226.46875 580.28125 225.828125 C 579.644531 225.191406 579.644531 223.914062 579.644531 223.277344 C 579.644531 222.640625 579.644531 222.640625 579.644531 222 C 579.644531 222 579.644531 222 579.644531 221.363281 C 579.644531 220.085938 579.644531 219.449219 579.644531 218.171875 Z M 579.644531 218.171875 " fill-opacity="1" fill-rule="nonzero"/><path fill="#6c4dd3" d="M 582.199219 228.382812 C 582.835938 229.019531 582.835938 229.019531 582.199219 228.382812 Z M 582.199219 228.382812 " fill-opacity="1" fill-rule="nonzero"/><path fill="#6c4dd3" d="M 588.578125 206.6875 C 588.578125 206.6875 587.300781 207.324219 588.578125 206.6875 Z M 588.578125 206.6875 " fill-opacity="1" fill-rule="nonzero"/></svg>