<svg xmlns="http://www.w3.org/2000/svg" xmlns:xlink="http://www.w3.org/1999/xlink" width="1080" zoomAndPan="magnify" viewBox="0 0 810 809.999993" height="1080" preserveAspectRatio="xMidYMid meet" version="1.0"><defs><clipPath id="2fba671085"><path d="M 586.933594 576.777344 L 620.449219 576.777344 L 620.449219 610.292969 L 586.933594 610.292969 Z M 586.933594 576.777344 " clip-rule="nonzero"/></clipPath><clipPath id="43cadfc521"><path d="M 603.691406 576.777344 C 594.4375 576.777344 586.933594 584.277344 586.933594 593.535156 C 586.933594 602.789062 594.4375 610.292969 603.691406 610.292969 C 612.945312 610.292969 620.449219 602.789062 620.449219 593.535156 C 620.449219 584.277344 612.945312 576.777344 603.691406 576.777344 Z M 603.691406 576.777344 " clip-rule="nonzero"/></clipPath><clipPath id="9221af11ba"><path d="M 0.933594 0.777344 L 34.449219 0.777344 L 34.449219 34.292969 L 0.933594 34.292969 Z M 0.933594 0.777344 " clip-rule="nonzero"/></clipPath><clipPath id="c2bddce0ba"><path d="M 17.691406 0.777344 C 8.4375 0.777344 0.933594 8.277344 0.933594 17.535156 C 0.933594 26.789062 8.4375 34.292969 17.691406 34.292969 C 26.945312 34.292969 34.449219 26.789062 34.449219 17.535156 C 34.449219 8.277344 26.945312 0.777344 17.691406 0.777344 Z M 17.691406 0.777344 " clip-rule="nonzero"/></clipPath><clipPath id="9977cc19fc"><rect x="0" width="35" y="0" height="35"/></clipPath></defs><path fill="#000000" d="M 749.746094 670.066406 C 748.292969 668.613281 746.839844 667.292969 745.121094 665.96875 L 597.128906 542.289062 C 632.011719 485.734375 632.40625 413.984375 598.183594 357.167969 L 598.183594 167.550781 C 598.183594 167.417969 598.183594 167.285156 598.183594 167.285156 C 598.183594 166.890625 597.921875 166.492188 597.921875 165.964844 C 597.921875 165.699219 597.789062 165.304688 597.789062 165.171875 C 597.257812 162.132812 596.070312 159.355469 593.824219 157.375 L 440.414062 3.832031 C 437.902344 1.453125 434.464844 0 430.898438 0 L 71.355469 0 C 34.882812 0 5.285156 29.597656 5.285156 66.070312 L 5.285156 700.328125 C 5.285156 736.796875 34.882812 766.394531 71.355469 766.394531 L 532.117188 766.394531 C 568.585938 766.394531 598.183594 736.796875 598.183594 700.328125 L 598.183594 671.652344 L 662.402344 748.425781 C 715.917969 810 804.980469 729.925781 749.746094 670.066406 Z M 597.390625 448.871094 C 597.390625 489.304688 581.667969 527.359375 552.992188 555.902344 C 524.320312 584.441406 486.394531 600.296875 445.960938 600.296875 C 405.527344 600.296875 367.472656 584.574219 338.929688 555.902344 C 279.867188 496.835938 279.867188 400.773438 338.929688 341.839844 C 367.472656 313.296875 405.527344 297.441406 445.960938 297.441406 C 486.394531 297.441406 524.453125 313.164062 552.992188 341.839844 C 581.535156 370.511719 597.390625 408.4375 597.390625 448.871094 Z M 571.757812 700.328125 C 571.757812 722.128906 553.917969 739.96875 532.117188 739.96875 L 71.355469 739.96875 C 49.550781 739.96875 31.710938 722.128906 31.710938 700.328125 L 31.710938 66.070312 C 31.710938 44.265625 49.550781 26.425781 71.355469 26.425781 L 417.683594 26.425781 L 417.683594 167.285156 C 417.683594 174.554688 423.632812 180.5 430.898438 180.5 L 571.757812 180.5 L 571.757812 323.207031 C 538.195312 289.644531 493.53125 271.144531 446.09375 271.144531 C 400.640625 271.144531 357.828125 288.191406 324.792969 319.109375 L 122.886719 319.109375 C 115.621094 319.109375 109.671875 325.058594 109.671875 332.324219 C 109.671875 339.59375 115.621094 345.539062 122.886719 345.539062 L 301.667969 345.539062 C 288.191406 364.433594 278.808594 385.3125 273.523438 407.113281 L 122.886719 407.113281 C 115.621094 407.113281 109.671875 413.058594 109.671875 420.328125 C 109.671875 427.59375 115.621094 433.542969 122.886719 433.542969 L 269.03125 433.542969 C 267.3125 454.15625 269.164062 474.902344 274.449219 494.984375 L 122.886719 494.984375 C 115.621094 494.984375 109.671875 500.929688 109.671875 508.199219 C 109.671875 515.464844 115.621094 521.414062 122.886719 521.414062 L 283.960938 521.414062 C 292.550781 540.703125 304.574219 558.808594 320.433594 574.664062 C 323.339844 577.570312 326.511719 580.347656 329.683594 582.988281 L 122.886719 582.988281 C 115.621094 582.988281 109.671875 588.933594 109.671875 596.203125 C 109.671875 603.46875 115.621094 609.414062 122.886719 609.414062 L 369.984375 609.414062 C 394.03125 620.78125 419.929688 626.59375 446.09375 626.59375 C 478.335938 626.59375 510.3125 617.742188 538.722656 600.429688 L 571.757812 639.941406 Z M 571.757812 700.328125 " fill-opacity="1" fill-rule="nonzero"/><path fill="#000000" d="M 122.886719 257.535156 L 301.667969 257.535156 C 308.9375 257.535156 314.882812 251.589844 314.882812 244.320312 C 314.882812 237.054688 308.9375 231.109375 301.667969 231.109375 L 122.886719 231.109375 C 115.621094 231.109375 109.671875 237.054688 109.671875 244.320312 C 109.671875 251.589844 115.621094 257.535156 122.886719 257.535156 Z M 122.886719 257.535156 " fill-opacity="1" fill-rule="nonzero"/><g clip-path="url(#2fba671085)"><g clip-path="url(#43cadfc521)"><g transform="matrix(1, 0, 0, 1, 586, 576)"><g clip-path="url(#9977cc19fc)"><g clip-path="url(#9221af11ba)"><g clip-path="url(#c2bddce0ba)"><path fill="#000000" d="M 0.933594 0.777344 L 34.449219 0.777344 L 34.449219 34.292969 L 0.933594 34.292969 Z M 0.933594 0.777344 " fill-opacity="1" fill-rule="nonzero"/></g></g></g></g></g></g></svg>