<svg xmlns="http://www.w3.org/2000/svg" xmlns:xlink="http://www.w3.org/1999/xlink" width="1080" zoomAndPan="magnify" viewBox="0 0 810 809.999993" height="1080" preserveAspectRatio="xMidYMid meet" version="1.0"><defs><clipPath id="82c278e2b1"><path d="M 270.804688 453.625 L 325.90625 453.625 L 325.90625 488.414062 L 270.804688 488.414062 Z M 270.804688 453.625 " clip-rule="nonzero"/></clipPath><clipPath id="a859d4f95c"><path d="M 0.804688 0.625 L 55.90625 0.625 L 55.90625 35.414062 L 0.804688 35.414062 Z M 0.804688 0.625 " clip-rule="nonzero"/></clipPath><clipPath id="d85b96ba56"><rect x="0" width="56" y="0" height="36"/></clipPath></defs><path fill="#000000" d="M 405.09375 140.320312 C 351.929688 140.320312 308.378906 175.765625 308.378906 237.398438 C 308.378906 255.835938 312.449219 274.664062 319.460938 291.675781 C 335.347656 331.882812 367.816406 363.652344 405.09375 363.652344 C 442.367188 363.652344 475.226562 331.925781 491.113281 291.675781 C 498.125 274.707031 501.804688 255.878906 501.804688 237.398438 C 501.804688 175.765625 458.601562 140.320312 405.09375 140.320312 Z M 405.09375 140.320312 " fill-opacity="1" fill-rule="nonzero"/><path fill="#000000" d="M 249.71875 702.546875 C 247.941406 697.09375 249.890625 691.121094 254.523438 687.789062 L 297.773438 656.410156 C 308.117188 648.878906 302.792969 632.515625 290.023438 632.515625 L 236.601562 632.515625 C 230.886719 632.515625 225.820312 628.839844 224.046875 623.382812 L 207.550781 572.570312 C 203.613281 560.410156 186.382812 560.410156 182.398438 572.570312 L 165.90625 623.382812 C 164.128906 628.839844 159.066406 632.515625 153.351562 632.515625 L 99.929688 632.515625 C 87.113281 632.515625 81.789062 648.878906 92.179688 656.410156 L 135.429688 687.789062 C 140.058594 691.164062 142.007812 697.09375 140.234375 702.546875 L 123.738281 753.359375 C 119.800781 765.519531 133.695312 775.648438 144.085938 768.117188 L 187.335938 736.738281 C 191.96875 733.363281 198.246094 733.363281 202.875 736.738281 L 246.125 768.117188 C 256.472656 775.648438 270.410156 765.519531 266.472656 753.359375 L 249.976562 702.546875 Z M 249.71875 702.546875 " fill-opacity="1" fill-rule="nonzero"/><path fill="#000000" d="M 718.136719 656.410156 C 728.480469 648.878906 723.15625 632.515625 710.386719 632.515625 L 656.964844 632.515625 C 651.25 632.515625 646.183594 628.839844 644.410156 623.382812 L 627.914062 572.570312 C 623.976562 560.410156 606.746094 560.410156 602.761719 572.570312 L 586.269531 623.382812 C 584.492188 628.839844 579.429688 632.515625 573.714844 632.515625 L 520.292969 632.515625 C 507.476562 632.515625 502.152344 648.878906 512.542969 656.410156 L 555.792969 687.789062 C 560.421875 691.164062 562.371094 697.09375 560.597656 702.546875 L 544.101562 753.359375 C 540.164062 765.519531 554.058594 775.648438 564.449219 768.117188 L 607.699219 736.738281 C 612.332031 733.363281 618.605469 733.363281 623.238281 736.738281 L 666.488281 768.117188 C 676.835938 775.648438 690.773438 765.519531 686.835938 753.359375 L 670.339844 702.546875 C 668.566406 697.09375 670.515625 691.121094 675.144531 687.789062 L 718.394531 656.410156 Z M 718.136719 656.410156 " fill-opacity="1" fill-rule="nonzero"/><path fill="#000000" d="M 500.160156 665.28125 L 446.738281 665.28125 C 441.023438 665.28125 435.960938 661.601562 434.183594 656.148438 L 417.691406 605.335938 C 413.75 593.175781 396.519531 593.175781 392.539062 605.335938 L 376.042969 656.148438 C 374.269531 661.601562 369.203125 665.28125 363.488281 665.28125 L 310.066406 665.28125 C 297.253906 665.28125 291.929688 681.640625 302.316406 689.171875 L 345.566406 720.550781 C 350.199219 723.929688 352.148438 729.855469 350.371094 735.3125 L 333.878906 786.125 C 329.9375 798.285156 343.835938 808.414062 354.222656 800.882812 L 397.472656 769.503906 C 402.105469 766.128906 408.382812 766.128906 413.015625 769.503906 L 456.261719 800.882812 C 466.609375 808.414062 480.550781 798.285156 476.609375 786.125 L 460.117188 735.3125 C 458.339844 729.855469 460.289062 723.882812 464.921875 720.550781 L 508.171875 689.171875 C 518.515625 681.640625 513.191406 665.28125 500.421875 665.28125 Z M 500.160156 665.28125 " fill-opacity="1" fill-rule="nonzero"/><path fill="#000000" d="M 145.386719 560.582031 C 152.398438 539.070312 172.226562 524.53125 194.910156 524.53125 C 217.597656 524.53125 237.421875 539.027344 244.4375 560.582031 L 255.214844 593.648438 L 289.980469 593.648438 C 311.496094 593.648438 330.285156 606.722656 338.207031 626.457031 L 344.832031 626.457031 L 355.609375 593.390625 C 362.625 571.75 382.449219 557.335938 405.136719 557.335938 C 427.820312 557.335938 447.648438 571.707031 454.660156 593.390625 L 465.441406 626.457031 L 472.066406 626.457031 C 479.988281 606.765625 498.777344 593.648438 520.292969 593.648438 L 555.054688 593.648438 L 565.835938 560.582031 C 569.339844 549.804688 576.09375 540.890625 584.753906 534.527344 C 593.453125 528.164062 604.0625 524.53125 615.359375 524.53125 C 638.046875 524.53125 658.003906 539.027344 664.886719 560.582031 L 666.316406 564.996094 C 713.546875 505.3125 741.945312 429.222656 741.945312 346.425781 C 741.945312 155.25 590.902344 -0.171875 405.222656 -0.171875 C 219.542969 -0.171875 68.324219 155.25 68.324219 346.425781 C 68.324219 429.222656 96.726562 505.3125 143.957031 564.996094 Z M 405.136719 86.5625 C 542.890625 86.5625 655.058594 203.164062 655.058594 346.425781 C 655.058594 407.453125 634.582031 463.589844 600.597656 507.996094 L 591.03125 473.328125 C 588.042969 452.292969 578.085938 432.773438 563.324219 417.925781 C 553.367188 408.363281 541.589844 401.738281 528.949219 396.890625 L 490.246094 385.898438 C 482.496094 382.132812 472.84375 386.246094 470.289062 394.683594 L 427.820312 500.292969 L 421.5 441.558594 C 428.167969 440.433594 433.363281 434.589844 433.363281 427.578125 L 433.363281 414.636719 C 433.363281 406.542969 427.042969 400.226562 418.945312 400.226562 L 391.238281 400.226562 C 383.144531 400.226562 376.476562 406.542969 376.476562 414.636719 L 376.476562 427.578125 C 376.476562 434.546875 382.019531 440.433594 388.683594 441.558594 L 382.019531 499.511719 L 340.328125 394.339844 C 337.6875 385.898438 328.464844 381.832031 320.371094 385.464844 L 280.800781 396.890625 C 268.289062 401.738281 256.429688 408.40625 246.859375 417.925781 C 231.707031 432.773438 221.707031 452.292969 218.808594 473.328125 L 209.328125 507.910156 C 175.300781 463.503906 154.953125 407.410156 154.953125 346.425781 C 154.953125 203.164062 267.121094 86.5625 404.960938 86.5625 Z M 405.136719 86.5625 " fill-opacity="1" fill-rule="nonzero"/><g clip-path="url(#82c278e2b1)"><g transform="matrix(1, 0, 0, 1, 270, 453)"><g clip-path="url(#d85b96ba56)"><g clip-path="url(#a859d4f95c)"><path fill="#000000" d="M 0.804688 0.625 L 55.839844 0.625 L 55.839844 35.414062 L 0.804688 35.414062 Z M 0.804688 0.625 " fill-opacity="1" fill-rule="nonzero"/></g></g></g></g></svg>