<svg xmlns="http://www.w3.org/2000/svg" xmlns:xlink="http://www.w3.org/1999/xlink" width="1080" zoomAndPan="magnify" viewBox="0 0 810 503.249994" height="671" preserveAspectRatio="xMidYMid meet" version="1.0"><defs><clipPath id="a7fbe3865d"><path d="M 230 311 L 784.347656 311 L 784.347656 313 L 230 313 Z M 230 311 " clip-rule="nonzero"/></clipPath><clipPath id="78fb73f496"><path d="M 25.726562 218 L 339 218 L 339 502.5 L 25.726562 502.5 Z M 25.726562 218 " clip-rule="nonzero"/></clipPath><clipPath id="17bbcf30f4"><path d="M 147 359 L 232 359 L 232 502.5 L 147 502.5 Z M 147 359 " clip-rule="nonzero"/></clipPath><clipPath id="8216e25fe6"><path d="M 579.921875 334.902344 L 590.984375 334.902344 L 590.984375 345.964844 L 579.921875 345.964844 Z M 579.921875 334.902344 " clip-rule="nonzero"/></clipPath><clipPath id="5a8e15a3a2"><path d="M 585.453125 334.902344 C 582.398438 334.902344 579.921875 337.378906 579.921875 340.433594 C 579.921875 343.488281 582.398438 345.964844 585.453125 345.964844 C 588.507812 345.964844 590.984375 343.488281 590.984375 340.433594 C 590.984375 337.378906 588.507812 334.902344 585.453125 334.902344 Z M 585.453125 334.902344 " clip-rule="nonzero"/></clipPath><clipPath id="3ecafd1034"><path d="M 0.921875 0.902344 L 11.984375 0.902344 L 11.984375 11.964844 L 0.921875 11.964844 Z M 0.921875 0.902344 " clip-rule="nonzero"/></clipPath><clipPath id="dad4313f58"><path d="M 6.453125 0.902344 C 3.398438 0.902344 0.921875 3.378906 0.921875 6.433594 C 0.921875 9.488281 3.398438 11.964844 6.453125 11.964844 C 9.507812 11.964844 11.984375 9.488281 11.984375 6.433594 C 11.984375 3.378906 9.507812 0.902344 6.453125 0.902344 Z M 6.453125 0.902344 " clip-rule="nonzero"/></clipPath><clipPath id="ba2e1aa776"><rect x="0" width="12" y="0" height="12"/></clipPath></defs><g clip-path="url(#a7fbe3865d)"><path fill="#000000" d="M 783.65625 312.933594 L 231.292969 312.933594 C 230.953125 312.933594 230.683594 312.660156 230.683594 312.324219 C 230.683594 311.988281 230.957031 311.71875 231.292969 311.71875 L 783.65625 311.71875 C 783.996094 311.71875 784.265625 311.992188 784.265625 312.324219 C 784.265625 312.660156 783.996094 312.933594 783.65625 312.933594 Z M 783.65625 312.933594 " fill-opacity="1" fill-rule="nonzero"/></g><path fill="#ffffff" d="M 382.148438 238.84375 L 402.160156 301.09375 C 404.445312 308.207031 401.019531 315.941406 394.339844 318.730469 L 359.011719 333.488281 L 476.058594 333.488281 C 487.414062 333.488281 495.421875 321.867188 491.804688 310.640625 L 468.636719 238.765625 Z M 382.148438 238.84375 " fill-opacity="1" fill-rule="nonzero"/><path fill="#000000" d="M 476.0625 334.097656 L 359.019531 334.097656 C 358.726562 334.097656 358.476562 333.890625 358.421875 333.609375 C 358.363281 333.324219 358.515625 333.039062 358.785156 332.925781 L 394.109375 318.171875 C 400.492188 315.507812 403.777344 308.085938 401.585938 301.28125 L 381.574219 239.027344 C 381.511719 238.84375 381.546875 238.640625 381.664062 238.484375 C 381.777344 238.328125 381.960938 238.234375 382.152344 238.234375 L 468.644531 238.15625 C 468.910156 238.15625 469.144531 238.328125 469.222656 238.578125 L 492.390625 310.457031 C 494.207031 316.085938 493.230469 322.273438 489.78125 327.007812 C 486.496094 331.511719 481.496094 334.097656 476.0625 334.097656 Z M 362.050781 332.878906 L 476.0625 332.878906 C 481.105469 332.878906 485.746094 330.476562 488.796875 326.289062 C 492.015625 321.867188 492.925781 316.089844 491.230469 310.828125 L 468.195312 239.375 L 382.984375 239.449219 L 402.742188 300.90625 C 405.125 308.3125 401.535156 316.386719 394.574219 319.292969 Z M 362.050781 332.878906 " fill-opacity="1" fill-rule="nonzero"/><path fill="#000000" d="M 469.71875 334.097656 C 469.378906 334.097656 469.109375 333.824219 469.109375 333.488281 C 469.109375 333.152344 469.382812 332.882812 469.71875 332.882812 C 474.757812 332.882812 479.402344 330.480469 482.453125 326.292969 C 485.671875 321.871094 486.578125 316.089844 484.882812 310.832031 L 461.726562 238.988281 C 461.625 238.667969 461.796875 238.328125 462.117188 238.222656 C 462.4375 238.121094 462.78125 238.292969 462.886719 238.613281 L 486.042969 310.457031 C 487.859375 316.085938 486.882812 322.273438 483.433594 327.007812 C 480.152344 331.511719 475.152344 334.097656 469.71875 334.097656 Z M 469.71875 334.097656 " fill-opacity="1" fill-rule="nonzero"/><path fill="#ffffff" d="M 222.773438 245.78125 L 586.003906 245.78125 C 591.058594 245.78125 595.285156 242.292969 595.773438 237.726562 L 620.320312 7.644531 C 620.878906 2.40625 616.34375 -2.125 610.546875 -2.125 L 247.320312 -2.125 C 242.265625 -2.125 238.035156 1.359375 237.546875 5.929688 L 213 236.007812 C 212.441406 241.246094 216.976562 245.78125 222.773438 245.78125 Z M 222.773438 245.78125 " fill-opacity="1" fill-rule="nonzero"/><path fill="#000000" d="M 586.003906 246.390625 L 222.773438 246.390625 C 219.640625 246.390625 216.703125 245.121094 214.714844 242.90625 C 212.949219 240.945312 212.125 238.472656 212.398438 235.941406 L 236.941406 5.863281 C 237.464844 0.960938 241.925781 -2.734375 247.320312 -2.734375 L 610.546875 -2.734375 C 613.683594 -2.734375 616.621094 -1.464844 618.609375 0.746094 C 620.371094 2.707031 621.195312 5.179688 620.925781 7.710938 L 596.378906 237.792969 C 595.855469 242.691406 591.394531 246.390625 586.003906 246.390625 Z M 247.320312 -1.519531 C 242.550781 -1.519531 238.609375 1.710938 238.152344 5.992188 L 213.605469 236.070312 C 213.375 238.253906 214.085938 240.390625 215.617188 242.09375 C 217.375 244.050781 219.980469 245.171875 222.769531 245.171875 L 586 245.171875 C 590.769531 245.171875 594.707031 241.945312 595.167969 237.660156 L 619.710938 7.578125 C 619.945312 5.398438 619.234375 3.261719 617.703125 1.558594 C 615.945312 -0.398438 613.335938 -1.519531 610.546875 -1.519531 Z M 247.320312 -1.519531 " fill-opacity="1" fill-rule="nonzero"/><path fill="#e9e6fa" d="M 231.082031 221.988281 L 578.460938 221.988281 L 600.945312 20.707031 L 253.566406 20.707031 Z M 231.082031 221.988281 " fill-opacity="1" fill-rule="nonzero"/><path fill="#000000" d="M 430.421875 15.148438 C 427.171875 15.148438 424.527344 12.636719 424.527344 9.550781 C 424.527344 6.464844 427.171875 3.953125 430.421875 3.953125 C 433.671875 3.953125 436.316406 6.464844 436.316406 9.550781 C 436.316406 12.636719 433.671875 15.148438 430.421875 15.148438 Z M 430.421875 5.171875 C 427.84375 5.171875 425.742188 7.136719 425.742188 9.550781 C 425.742188 11.96875 427.84375 13.929688 430.421875 13.929688 C 433 13.929688 435.097656 11.96875 435.097656 9.550781 C 435.097656 7.136719 433 5.171875 430.421875 5.171875 Z M 430.421875 5.171875 " fill-opacity="1" fill-rule="nonzero"/><path fill="#ffffff" d="M 549.996094 180.78125 L 479.550781 180.78125 C 477.007812 180.78125 475.144531 178.699219 475.40625 176.15625 L 489.410156 40.257812 C 489.671875 37.714844 491.964844 35.632812 494.511719 35.632812 L 564.953125 35.632812 C 567.496094 35.632812 569.363281 37.714844 569.101562 40.257812 L 555.097656 176.15625 C 554.835938 178.703125 552.539062 180.78125 549.996094 180.78125 Z M 549.996094 180.78125 " fill-opacity="1" fill-rule="nonzero"/><path fill="#000000" d="M 549.996094 181.394531 L 479.554688 181.394531 C 478.15625 181.394531 476.886719 180.84375 475.984375 179.839844 C 475.078125 178.832031 474.65625 177.503906 474.804688 176.097656 L 488.808594 40.195312 C 489.101562 37.34375 491.664062 35.023438 494.515625 35.023438 L 564.957031 35.023438 C 566.355469 35.023438 567.628906 35.574219 568.527344 36.578125 C 569.433594 37.585938 569.855469 38.914062 569.707031 40.320312 L 555.703125 176.222656 C 555.410156 179.074219 552.847656 181.394531 549.996094 181.394531 Z M 494.507812 36.246094 C 492.261719 36.246094 490.246094 38.078125 490.015625 40.324219 L 476.011719 176.222656 C 475.898438 177.285156 476.210938 178.28125 476.886719 179.027344 C 477.554688 179.765625 478.5 180.175781 479.550781 180.175781 L 549.996094 180.175781 C 552.242188 180.175781 554.257812 178.34375 554.488281 176.097656 L 568.492188 40.195312 C 568.605469 39.136719 568.292969 38.140625 567.617188 37.394531 C 566.949219 36.652344 566.003906 36.246094 564.953125 36.246094 Z M 494.507812 36.246094 " fill-opacity="1" fill-rule="nonzero"/><path fill="#ffffff" d="M 546.660156 172.152344 L 484.667969 172.152344 C 482.742188 172.152344 481.332031 170.578125 481.53125 168.652344 L 494.292969 44.78125 C 494.492188 42.859375 496.230469 41.285156 498.152344 41.285156 L 560.148438 41.285156 C 562.070312 41.285156 563.484375 42.859375 563.285156 44.78125 L 550.519531 168.652344 C 550.324219 170.578125 548.585938 172.152344 546.660156 172.152344 Z M 546.660156 172.152344 " fill-opacity="1" fill-rule="nonzero"/><path fill="#000000" d="M 546.660156 172.761719 L 484.667969 172.761719 C 483.5625 172.761719 482.566406 172.328125 481.855469 171.539062 C 481.140625 170.746094 480.808594 169.699219 480.921875 168.59375 L 493.6875 44.722656 C 493.917969 42.492188 495.921875 40.675781 498.152344 40.675781 L 560.148438 40.675781 C 561.25 40.675781 562.246094 41.109375 562.957031 41.898438 C 563.671875 42.691406 564.003906 43.738281 563.890625 44.847656 L 551.125 168.714844 C 550.894531 170.945312 548.894531 172.761719 546.660156 172.761719 Z M 498.152344 41.894531 C 496.550781 41.894531 495.066406 43.246094 494.898438 44.847656 L 482.132812 168.714844 C 482.058594 169.476562 482.277344 170.1875 482.757812 170.722656 C 483.234375 171.25 483.914062 171.542969 484.667969 171.542969 L 546.660156 171.542969 C 548.261719 171.542969 549.75 170.195312 549.914062 168.59375 L 562.679688 44.722656 C 562.757812 43.964844 562.535156 43.25 562.054688 42.71875 C 561.578125 42.1875 560.902344 41.898438 560.148438 41.898438 L 498.152344 41.898438 Z M 498.152344 41.894531 " fill-opacity="1" fill-rule="nonzero"/><path fill="#000000" d="M 536.828125 48.589844 L 520.992188 48.589844 C 520.65625 48.589844 520.382812 48.316406 520.382812 47.984375 C 520.382812 47.644531 520.65625 47.375 520.992188 47.375 L 536.828125 47.375 C 537.167969 47.375 537.4375 47.648438 537.4375 47.984375 C 537.441406 48.316406 537.167969 48.589844 536.828125 48.589844 Z M 536.828125 48.589844 " fill-opacity="1" fill-rule="nonzero"/><path fill="#ffffff" d="M 491.980469 132.808594 L 547.457031 132.808594 L 554.449219 64.957031 L 498.972656 64.957031 Z M 491.980469 132.808594 " fill-opacity="1" fill-rule="nonzero"/><path fill="#000000" d="M 547.457031 133.417969 L 491.980469 133.417969 C 491.808594 133.417969 491.644531 133.347656 491.527344 133.214844 C 491.410156 133.089844 491.355469 132.917969 491.371094 132.746094 L 498.363281 64.898438 C 498.398438 64.589844 498.65625 64.351562 498.96875 64.351562 L 554.445312 64.351562 C 554.617188 64.351562 554.78125 64.421875 554.898438 64.550781 C 555.015625 64.679688 555.070312 64.851562 555.054688 65.023438 L 548.0625 132.871094 C 548.03125 133.179688 547.769531 133.417969 547.457031 133.417969 Z M 492.652344 132.199219 L 546.90625 132.199219 L 553.773438 65.570312 L 499.519531 65.570312 Z M 492.652344 132.199219 " fill-opacity="1" fill-rule="nonzero"/><path fill="#000000" d="M 555.199219 58.277344 L 522.921875 58.277344 C 522.585938 58.277344 522.3125 58.003906 522.3125 57.667969 C 522.3125 57.335938 522.585938 57.0625 522.921875 57.0625 L 555.199219 57.0625 C 555.535156 57.0625 555.804688 57.335938 555.804688 57.667969 C 555.804688 58.003906 555.535156 58.277344 555.199219 58.277344 Z M 555.199219 58.277344 " fill-opacity="1" fill-rule="nonzero"/><path fill="#000000" d="M 505.320312 138.152344 L 492.539062 138.152344 C 492.203125 138.152344 491.929688 137.878906 491.929688 137.546875 C 491.929688 137.210938 492.203125 136.9375 492.539062 136.9375 L 505.320312 136.9375 C 505.660156 136.9375 505.929688 137.210938 505.929688 137.546875 C 505.929688 137.878906 505.660156 138.152344 505.320312 138.152344 Z M 505.320312 138.152344 " fill-opacity="1" fill-rule="nonzero"/><path fill="#e9e6fa" d="M 498.972656 156.242188 C 499.398438 152.101562 503.101562 148.746094 507.242188 148.746094 L 528.910156 148.746094 C 533.050781 148.746094 536.066406 152.101562 535.636719 156.242188 C 535.207031 160.382812 531.507812 163.738281 527.363281 163.738281 L 505.699219 163.738281 C 501.554688 163.742188 498.542969 160.382812 498.972656 156.242188 Z M 498.972656 156.242188 " fill-opacity="1" fill-rule="nonzero"/><path fill="#ffffff" d="M 338.8125 182.066406 L 268.371094 182.066406 C 265.828125 182.066406 263.960938 179.984375 264.222656 177.441406 L 278.226562 41.542969 C 278.488281 39 280.785156 36.917969 283.328125 36.917969 L 353.773438 36.917969 C 356.316406 36.917969 358.179688 39 357.917969 41.542969 L 343.914062 177.441406 C 343.652344 179.988281 341.355469 182.066406 338.8125 182.066406 Z M 338.8125 182.066406 " fill-opacity="1" fill-rule="nonzero"/><path fill="#000000" d="M 338.8125 182.675781 L 268.371094 182.675781 C 266.96875 182.675781 265.699219 182.128906 264.800781 181.125 C 263.890625 180.117188 263.472656 178.789062 263.617188 177.378906 L 277.621094 41.484375 C 277.914062 38.632812 280.476562 36.3125 283.328125 36.3125 L 353.773438 36.3125 C 355.171875 36.3125 356.441406 36.859375 357.34375 37.863281 C 358.25 38.871094 358.671875 40.199219 358.523438 41.609375 L 344.519531 177.503906 C 344.222656 180.355469 341.664062 182.675781 338.8125 182.675781 Z M 283.328125 37.53125 C 281.078125 37.53125 279.0625 39.359375 278.832031 41.609375 L 264.828125 177.503906 C 264.71875 178.566406 265.027344 179.5625 265.703125 180.308594 C 266.371094 181.046875 267.316406 181.457031 268.371094 181.457031 L 338.8125 181.457031 C 341.058594 181.457031 343.074219 179.625 343.308594 177.378906 L 357.3125 41.480469 C 357.421875 40.421875 357.109375 39.421875 356.4375 38.679688 C 355.769531 37.9375 354.820312 37.53125 353.769531 37.53125 Z M 283.328125 37.53125 " fill-opacity="1" fill-rule="nonzero"/><path fill="#ffffff" d="M 335.476562 173.433594 L 273.484375 173.433594 C 271.558594 173.433594 270.148438 171.859375 270.347656 169.9375 L 283.113281 46.066406 C 283.3125 44.140625 285.046875 42.570312 286.96875 42.570312 L 348.964844 42.570312 C 350.890625 42.570312 352.300781 44.140625 352.101562 46.066406 L 339.335938 169.9375 C 339.136719 171.859375 337.402344 173.433594 335.476562 173.433594 Z M 335.476562 173.433594 " fill-opacity="1" fill-rule="nonzero"/><path fill="#000000" d="M 335.476562 174.046875 L 273.480469 174.046875 C 272.378906 174.046875 271.382812 173.613281 270.671875 172.820312 C 269.957031 172.03125 269.625 170.984375 269.738281 169.875 L 282.5 46.007812 C 282.734375 43.773438 284.734375 41.960938 286.964844 41.960938 L 348.960938 41.960938 C 350.0625 41.960938 351.058594 42.394531 351.773438 43.183594 C 352.488281 43.976562 352.820312 45.023438 352.707031 46.128906 L 339.941406 170 C 339.710938 172.230469 337.710938 174.046875 335.476562 174.046875 Z M 286.964844 43.179688 C 285.367188 43.179688 283.878906 44.527344 283.714844 46.128906 L 270.949219 170 C 270.871094 170.757812 271.09375 171.472656 271.574219 172.007812 C 272.050781 172.535156 272.726562 172.828125 273.480469 172.828125 L 335.476562 172.828125 C 337.074219 172.828125 338.5625 171.476562 338.730469 169.875 L 351.492188 46.007812 C 351.570312 45.246094 351.351562 44.535156 350.871094 44 C 350.390625 43.472656 349.714844 43.179688 348.960938 43.179688 Z M 286.964844 43.179688 " fill-opacity="1" fill-rule="nonzero"/><path fill="#000000" d="M 325.648438 49.875 L 309.808594 49.875 C 309.472656 49.875 309.203125 49.601562 309.203125 49.265625 C 309.203125 48.929688 309.476562 48.660156 309.808594 48.660156 L 325.648438 48.660156 C 325.984375 48.660156 326.253906 48.933594 326.253906 49.265625 C 326.253906 49.601562 325.980469 49.875 325.648438 49.875 Z M 325.648438 49.875 " fill-opacity="1" fill-rule="nonzero"/><path fill="#e9e6fa" d="M 287.785156 157.527344 C 288.214844 153.382812 291.917969 150.027344 296.058594 150.027344 L 317.726562 150.027344 C 321.867188 150.027344 324.878906 153.386719 324.453125 157.527344 C 324.023438 161.667969 320.320312 165.023438 316.179688 165.023438 L 294.511719 165.023438 C 290.371094 165.023438 287.359375 161.667969 287.785156 157.527344 Z M 287.785156 157.527344 " fill-opacity="1" fill-rule="nonzero"/><path fill="#e9e6fa" d="M 317.402344 80.183594 L 338.640625 80.183594 L 340.828125 58.949219 L 319.59375 58.949219 Z M 317.402344 80.183594 " fill-opacity="1" fill-rule="nonzero"/><path fill="#e9e6fa" d="M 289.535156 80.183594 L 310.777344 80.183594 L 312.964844 58.949219 L 291.726562 58.949219 Z M 289.535156 80.183594 " fill-opacity="1" fill-rule="nonzero"/><path fill="#6c4dd3" d="M 314.636719 107.039062 L 335.871094 107.039062 L 338.0625 85.808594 L 316.824219 85.808594 Z M 314.636719 107.039062 " fill-opacity="1" fill-rule="nonzero"/><path fill="#e9e6fa" d="M 286.769531 107.039062 L 308.007812 107.039062 L 310.195312 85.808594 L 288.960938 85.808594 Z M 286.769531 107.039062 " fill-opacity="1" fill-rule="nonzero"/><path fill="#000000" d="M 334.425781 121.679688 L 285.328125 121.679688 C 284.988281 121.679688 284.71875 121.40625 284.71875 121.074219 C 284.71875 120.738281 284.992188 120.464844 285.328125 120.464844 L 334.425781 120.464844 C 334.765625 120.464844 335.035156 120.738281 335.035156 121.074219 C 335.035156 121.40625 334.765625 121.679688 334.425781 121.679688 Z M 334.425781 121.679688 " fill-opacity="1" fill-rule="nonzero"/><path fill="#000000" d="M 333.398438 131.683594 L 312.160156 131.683594 C 311.820312 131.683594 311.550781 131.410156 311.550781 131.078125 C 311.550781 130.738281 311.824219 130.46875 312.160156 130.46875 L 333.398438 130.46875 C 333.734375 130.46875 334.003906 130.742188 334.003906 131.078125 C 334.003906 131.410156 333.734375 131.683594 333.398438 131.683594 Z M 333.398438 131.683594 " fill-opacity="1" fill-rule="nonzero"/><path fill="#000000" d="M 332.363281 141.683594 L 304.5 141.683594 C 304.164062 141.683594 303.890625 141.410156 303.890625 141.078125 C 303.890625 140.742188 304.164062 140.46875 304.5 140.46875 L 332.363281 140.46875 C 332.703125 140.46875 332.972656 140.742188 332.972656 141.078125 C 332.976562 141.410156 332.703125 141.683594 332.363281 141.683594 Z M 332.363281 141.683594 " fill-opacity="1" fill-rule="nonzero"/><path fill="#ffffff" d="M 444.316406 180.78125 L 373.875 180.78125 C 371.332031 180.78125 369.464844 178.699219 369.730469 176.15625 L 383.734375 40.257812 C 383.996094 37.714844 386.289062 35.632812 388.835938 35.632812 L 459.277344 35.632812 C 461.820312 35.632812 463.6875 37.714844 463.425781 40.257812 L 449.421875 176.15625 C 449.15625 178.703125 446.859375 180.78125 444.316406 180.78125 Z M 444.316406 180.78125 " fill-opacity="1" fill-rule="nonzero"/><path fill="#000000" d="M 444.316406 181.394531 L 373.871094 181.394531 C 372.472656 181.394531 371.203125 180.84375 370.304688 179.839844 C 369.394531 178.832031 368.976562 177.503906 369.121094 176.097656 L 383.125 40.195312 C 383.421875 37.34375 385.980469 35.023438 388.832031 35.023438 L 459.273438 35.023438 C 460.675781 35.023438 461.941406 35.574219 462.84375 36.578125 C 463.753906 37.585938 464.171875 38.914062 464.03125 40.320312 L 450.023438 176.222656 C 449.730469 179.074219 447.171875 181.394531 444.316406 181.394531 Z M 388.828125 36.246094 C 386.582031 36.246094 384.566406 38.078125 384.335938 40.324219 L 370.332031 176.222656 C 370.21875 177.285156 370.53125 178.28125 371.207031 179.027344 C 371.875 179.765625 372.820312 180.175781 373.875 180.175781 L 444.316406 180.175781 C 446.5625 180.175781 448.578125 178.34375 448.808594 176.097656 L 462.816406 40.195312 C 462.925781 39.136719 462.613281 38.140625 461.9375 37.390625 C 461.269531 36.652344 460.324219 36.242188 459.273438 36.242188 L 388.828125 36.242188 Z M 388.828125 36.246094 " fill-opacity="1" fill-rule="nonzero"/><path fill="#ffffff" d="M 440.980469 172.152344 L 378.988281 172.152344 C 377.0625 172.152344 375.652344 170.578125 375.851562 168.652344 L 388.613281 44.78125 C 388.8125 42.859375 390.550781 41.285156 392.472656 41.285156 L 454.46875 41.285156 C 456.390625 41.285156 457.804688 42.859375 457.605469 44.78125 L 444.839844 168.652344 C 444.644531 170.578125 442.90625 172.152344 440.980469 172.152344 Z M 440.980469 172.152344 " fill-opacity="1" fill-rule="nonzero"/><path fill="#000000" d="M 440.980469 172.761719 L 378.988281 172.761719 C 377.886719 172.761719 376.886719 172.328125 376.175781 171.539062 C 375.460938 170.75 375.128906 169.703125 375.242188 168.59375 L 388.007812 44.726562 C 388.238281 42.492188 390.238281 40.679688 392.472656 40.679688 L 454.46875 40.679688 C 455.570312 40.679688 456.566406 41.113281 457.277344 41.898438 C 457.992188 42.691406 458.324219 43.738281 458.210938 44.847656 L 445.445312 168.714844 C 445.21875 170.945312 443.214844 172.761719 440.980469 172.761719 Z M 392.472656 41.894531 C 390.875 41.894531 389.386719 43.246094 389.21875 44.847656 L 376.453125 168.714844 C 376.378906 169.476562 376.597656 170.1875 377.082031 170.722656 C 377.558594 171.25 378.234375 171.542969 378.988281 171.542969 L 440.984375 171.542969 C 442.582031 171.542969 444.074219 170.195312 444.238281 168.59375 L 457.003906 44.722656 C 457.078125 43.964844 456.859375 43.25 456.375 42.714844 C 455.898438 42.1875 455.222656 41.894531 454.46875 41.894531 Z M 392.472656 41.894531 " fill-opacity="1" fill-rule="nonzero"/><path fill="#000000" d="M 431.148438 48.589844 L 415.3125 48.589844 C 414.976562 48.589844 414.703125 48.316406 414.703125 47.984375 C 414.703125 47.644531 414.976562 47.375 415.3125 47.375 L 431.148438 47.375 C 431.488281 47.375 431.757812 47.648438 431.757812 47.984375 C 431.761719 48.316406 431.488281 48.589844 431.148438 48.589844 Z M 431.148438 48.589844 " fill-opacity="1" fill-rule="nonzero"/><path fill="#e9e6fa" d="M 393.292969 156.242188 C 393.71875 152.101562 397.421875 148.746094 401.5625 148.746094 L 423.230469 148.746094 C 427.371094 148.746094 430.386719 152.101562 429.957031 156.242188 C 429.527344 160.382812 425.828125 163.738281 421.683594 163.738281 L 400.019531 163.738281 C 395.875 163.742188 392.863281 160.382812 393.292969 156.242188 Z M 393.292969 156.242188 " fill-opacity="1" fill-rule="nonzero"/><path fill="#6c4dd3" d="M 442.074219 81.359375 C 442.398438 81.695312 442.679688 82.066406 442.921875 82.46875 C 443.164062 82.871094 443.359375 83.296875 443.511719 83.746094 C 443.667969 84.195312 443.773438 84.660156 443.832031 85.140625 C 443.890625 85.621094 443.898438 86.105469 443.859375 86.597656 C 443.824219 87.085938 443.734375 87.574219 443.601562 88.058594 C 443.46875 88.542969 443.289062 89.015625 443.066406 89.476562 C 442.839844 89.933594 442.578125 90.371094 442.269531 90.785156 C 441.964844 91.203125 441.625 91.585938 441.25 91.941406 C 440.875 92.300781 440.46875 92.617188 440.039062 92.902344 C 439.609375 93.183594 439.15625 93.425781 438.6875 93.625 C 438.21875 93.824219 437.738281 93.976562 437.246094 94.085938 C 436.753906 94.195312 436.261719 94.253906 435.769531 94.265625 C 435.277344 94.277344 434.792969 94.242188 434.316406 94.160156 C 433.839844 94.074219 433.382812 93.945312 432.941406 93.765625 C 432.503906 93.589844 432.085938 93.371094 431.699219 93.109375 C 431.3125 92.84375 430.957031 92.542969 430.632812 92.203125 C 430.3125 91.867188 430.03125 91.496094 429.789062 91.09375 C 429.546875 90.691406 429.351562 90.265625 429.199219 89.816406 C 429.042969 89.367188 428.9375 88.902344 428.878906 88.421875 C 428.820312 87.945312 428.8125 87.457031 428.851562 86.964844 C 428.886719 86.476562 428.972656 85.988281 429.109375 85.503906 C 429.242188 85.019531 429.421875 84.546875 429.644531 84.089844 C 429.871094 83.628906 430.132812 83.191406 430.441406 82.777344 C 430.746094 82.363281 431.085938 81.976562 431.460938 81.621094 C 431.835938 81.261719 432.242188 80.945312 432.671875 80.660156 C 433.101562 80.378906 433.554688 80.136719 434.023438 79.9375 C 434.492188 79.738281 434.972656 79.585938 435.464844 79.476562 C 435.957031 79.367188 436.449219 79.308594 436.941406 79.296875 C 437.433594 79.285156 437.917969 79.320312 438.394531 79.402344 C 438.867188 79.488281 439.328125 79.617188 439.769531 79.796875 C 440.207031 79.972656 440.625 80.191406 441.011719 80.453125 C 441.398438 80.71875 441.753906 81.019531 442.074219 81.359375 Z M 442.074219 81.359375 " fill-opacity="1" fill-rule="nonzero"/><path fill="#000000" d="M 399.5 83.492188 L 394.367188 83.492188 C 394.03125 83.492188 393.761719 83.21875 393.761719 82.882812 C 393.761719 82.546875 394.035156 82.277344 394.367188 82.277344 L 399.5 82.277344 C 399.835938 82.277344 400.105469 82.550781 400.105469 82.882812 C 400.109375 83.21875 399.835938 83.492188 399.5 83.492188 Z M 399.5 83.492188 " fill-opacity="1" fill-rule="nonzero"/><path fill="#000000" d="M 425.300781 83.492188 L 406.425781 83.492188 C 406.089844 83.492188 405.820312 83.21875 405.820312 82.882812 C 405.820312 82.546875 406.09375 82.277344 406.425781 82.277344 L 425.300781 82.277344 C 425.636719 82.277344 425.90625 82.550781 425.90625 82.882812 C 425.90625 83.21875 425.636719 83.492188 425.300781 83.492188 Z M 425.300781 83.492188 " fill-opacity="1" fill-rule="nonzero"/><path fill="#000000" d="M 424.480469 91.414062 L 396.695312 91.414062 C 396.355469 91.414062 396.085938 91.140625 396.085938 90.808594 C 396.085938 90.472656 396.359375 90.199219 396.695312 90.199219 L 424.480469 90.199219 C 424.820312 90.199219 425.089844 90.472656 425.089844 90.808594 C 425.09375 91.144531 424.820312 91.414062 424.480469 91.414062 Z M 424.480469 91.414062 " fill-opacity="1" fill-rule="nonzero"/><path fill="#e9e6fa" d="M 444.585938 57.632812 C 444.90625 57.96875 445.191406 58.339844 445.429688 58.742188 C 445.671875 59.144531 445.871094 59.570312 446.023438 60.019531 C 446.175781 60.46875 446.28125 60.933594 446.339844 61.414062 C 446.398438 61.890625 446.410156 62.378906 446.371094 62.871094 C 446.332031 63.359375 446.246094 63.847656 446.113281 64.332031 C 445.980469 64.816406 445.800781 65.289062 445.578125 65.746094 C 445.351562 66.207031 445.085938 66.644531 444.78125 67.058594 C 444.476562 67.472656 444.136719 67.859375 443.757812 68.214844 C 443.382812 68.574219 442.980469 68.890625 442.550781 69.175781 C 442.117188 69.457031 441.667969 69.699219 441.199219 69.898438 C 440.726562 70.097656 440.246094 70.25 439.757812 70.359375 C 439.265625 70.46875 438.773438 70.527344 438.28125 70.539062 C 437.789062 70.550781 437.304688 70.515625 436.828125 70.433594 C 436.351562 70.347656 435.894531 70.21875 435.453125 70.039062 C 435.011719 69.863281 434.597656 69.644531 434.210938 69.378906 C 433.820312 69.117188 433.464844 68.816406 433.144531 68.476562 C 432.824219 68.140625 432.542969 67.769531 432.300781 67.367188 C 432.058594 66.964844 431.863281 66.539062 431.707031 66.089844 C 431.554688 65.640625 431.449219 65.175781 431.390625 64.695312 C 431.332031 64.214844 431.324219 63.730469 431.359375 63.238281 C 431.398438 62.75 431.484375 62.261719 431.617188 61.777344 C 431.753906 61.292969 431.933594 60.820312 432.15625 60.359375 C 432.378906 59.902344 432.644531 59.464844 432.949219 59.050781 C 433.257812 58.632812 433.597656 58.25 433.972656 57.894531 C 434.347656 57.535156 434.75 57.21875 435.183594 56.933594 C 435.613281 56.652344 436.0625 56.410156 436.535156 56.210938 C 437.003906 56.011719 437.484375 55.859375 437.976562 55.75 C 438.464844 55.640625 438.957031 55.582031 439.449219 55.570312 C 439.945312 55.558594 440.429688 55.59375 440.902344 55.675781 C 441.378906 55.761719 441.839844 55.890625 442.277344 56.070312 C 442.71875 56.246094 443.132812 56.464844 443.523438 56.726562 C 443.910156 56.992188 444.265625 57.292969 444.585938 57.632812 Z M 444.585938 57.632812 " fill-opacity="1" fill-rule="nonzero"/><path fill="#000000" d="M 402.007812 59.765625 L 396.878906 59.765625 C 396.542969 59.765625 396.269531 59.492188 396.269531 59.15625 C 396.269531 58.820312 396.542969 58.550781 396.878906 58.550781 L 402.007812 58.550781 C 402.347656 58.550781 402.617188 58.824219 402.617188 59.15625 C 402.617188 59.492188 402.347656 59.765625 402.007812 59.765625 Z M 402.007812 59.765625 " fill-opacity="1" fill-rule="nonzero"/><path fill="#000000" d="M 427.808594 59.765625 L 408.9375 59.765625 C 408.601562 59.765625 408.328125 59.492188 408.328125 59.15625 C 408.328125 58.820312 408.601562 58.550781 408.9375 58.550781 L 427.808594 58.550781 C 428.144531 58.550781 428.417969 58.824219 428.417969 59.15625 C 428.417969 59.492188 428.144531 59.765625 427.808594 59.765625 Z M 427.808594 59.765625 " fill-opacity="1" fill-rule="nonzero"/><path fill="#000000" d="M 426.992188 67.6875 L 399.207031 67.6875 C 398.871094 67.6875 398.597656 67.414062 398.597656 67.082031 C 398.597656 66.746094 398.871094 66.472656 399.207031 66.472656 L 426.992188 66.472656 C 427.328125 66.472656 427.597656 66.746094 427.597656 67.082031 C 427.597656 67.414062 427.328125 67.6875 426.992188 67.6875 Z M 426.992188 67.6875 " fill-opacity="1" fill-rule="nonzero"/><path fill="#e9e6fa" d="M 388.527344 119.542969 L 414.265625 119.542969 L 415.300781 109.492188 L 389.5625 109.492188 Z M 388.527344 119.542969 " fill-opacity="1" fill-rule="nonzero"/><path fill="#ffffff" d="M 414.265625 119.542969 L 440.007812 119.542969 L 441.042969 109.492188 L 415.300781 109.492188 Z M 414.265625 119.542969 " fill-opacity="1" fill-rule="nonzero"/><path fill="#000000" d="M 440.007812 120.152344 L 414.265625 120.152344 C 414.09375 120.152344 413.929688 120.078125 413.8125 119.949219 C 413.695312 119.820312 413.640625 119.652344 413.65625 119.480469 L 414.695312 109.433594 C 414.726562 109.121094 414.984375 108.886719 415.296875 108.886719 L 441.039062 108.886719 C 441.210938 108.886719 441.378906 108.957031 441.492188 109.085938 C 441.609375 109.214844 441.664062 109.386719 441.648438 109.554688 L 440.613281 119.605469 C 440.582031 119.917969 440.320312 120.152344 440.007812 120.152344 Z M 414.941406 118.933594 L 439.460938 118.933594 L 440.371094 110.101562 L 415.851562 110.101562 Z M 414.941406 118.933594 " fill-opacity="1" fill-rule="nonzero"/><path fill="#e9e6fa" d="M 386.871094 135.621094 L 412.609375 135.621094 L 413.644531 125.570312 L 387.90625 125.570312 Z M 386.871094 135.621094 " fill-opacity="1" fill-rule="nonzero"/><path fill="#ffffff" d="M 412.609375 135.621094 L 438.351562 135.621094 L 439.386719 125.570312 L 413.644531 125.570312 Z M 412.609375 135.621094 " fill-opacity="1" fill-rule="nonzero"/><path fill="#000000" d="M 438.351562 136.230469 L 412.609375 136.230469 C 412.4375 136.230469 412.273438 136.15625 412.15625 136.027344 C 412.039062 135.898438 411.984375 135.730469 412 135.558594 L 413.035156 125.511719 C 413.070312 125.199219 413.328125 124.964844 413.640625 124.964844 L 439.382812 124.964844 C 439.554688 124.964844 439.71875 125.035156 439.835938 125.164062 C 439.953125 125.292969 440.007812 125.464844 439.992188 125.632812 L 438.957031 135.683594 C 438.925781 135.992188 438.664062 136.230469 438.351562 136.230469 Z M 413.285156 135.011719 L 437.804688 135.011719 L 438.714844 126.179688 L 414.195312 126.179688 Z M 413.285156 135.011719 " fill-opacity="1" fill-rule="nonzero"/><path fill="#ffffff" d="M 626.894531 257.050781 L 615.867188 215.699219 C 615.867188 215.699219 602.8125 223.546875 594.230469 211.605469 C 585.648438 199.664062 582.660156 149.613281 586.78125 129.816406 C 590.902344 110.015625 644.785156 101.472656 664.011719 176.902344 C 683.242188 252.328125 683.242188 252.328125 683.242188 252.328125 Z M 626.894531 257.050781 " fill-opacity="1" fill-rule="nonzero"/><path fill="#000000" d="M 626.890625 257.660156 C 626.617188 257.660156 626.375 257.476562 626.304688 257.207031 L 615.472656 216.597656 C 612.574219 218.035156 601.382812 222.609375 593.734375 211.964844 C 584.738281 199.449219 582.15625 149.039062 586.183594 129.691406 C 587.867188 121.59375 597.035156 115.757812 608.476562 115.503906 C 627.984375 115.066406 652.917969 130.933594 664.597656 176.757812 L 683.828125 252.183594 C 683.871094 252.355469 683.835938 252.542969 683.734375 252.683594 C 683.628906 252.832031 683.46875 252.921875 683.289062 252.9375 L 626.941406 257.660156 C 626.929688 257.65625 626.910156 257.660156 626.890625 257.660156 Z M 615.867188 215.09375 C 615.945312 215.09375 616.019531 215.105469 616.097656 215.136719 C 616.273438 215.207031 616.40625 215.359375 616.453125 215.542969 L 627.351562 256.402344 L 682.472656 251.785156 L 663.425781 177.054688 C 651.917969 131.925781 627.519531 116.328125 608.511719 116.71875 C 597.8125 116.957031 588.921875 122.515625 587.378906 129.9375 C 583.125 150.390625 586.605469 199.949219 594.730469 211.25 C 602.890625 222.609375 615.042969 215.488281 615.558594 215.179688 C 615.648438 215.121094 615.757812 215.09375 615.867188 215.09375 Z M 615.867188 215.09375 " fill-opacity="1" fill-rule="nonzero"/><path fill="#000000" d="M 615.929688 182.171875 C 615.878906 182.171875 615.828125 182.164062 615.777344 182.152344 C 615.449219 182.070312 615.253906 181.734375 615.339844 181.410156 C 616.679688 176.230469 619.78125 171.621094 624.078125 168.425781 C 624.347656 168.226562 624.730469 168.28125 624.929688 168.550781 C 625.132812 168.820312 625.074219 169.203125 624.808594 169.402344 C 620.734375 172.433594 617.792969 176.804688 616.519531 181.714844 C 616.445312 181.988281 616.199219 182.171875 615.929688 182.171875 Z M 615.929688 182.171875 " fill-opacity="1" fill-rule="nonzero"/><path fill="#ffffff" d="M 405.929688 254.679688 L 431.957031 354.859375 C 432.609375 357.363281 431.453125 360.070312 428.972656 361.855469 L 386.9375 392.125 L 360.082031 288.75 C 359.386719 286.089844 360.617188 283.210938 363.253906 281.3125 L 401.609375 253.691406 C 403.179688 252.5625 405.519531 253.097656 405.929688 254.679688 Z M 405.929688 254.679688 " fill-opacity="1" fill-rule="nonzero"/><path fill="#000000" d="M 386.9375 392.730469 C 386.871094 392.730469 386.796875 392.722656 386.730469 392.695312 C 386.542969 392.628906 386.398438 392.472656 386.351562 392.277344 L 359.492188 288.898438 C 358.734375 285.972656 360.035156 282.875 362.898438 280.816406 L 401.253906 253.191406 C 402.261719 252.46875 403.597656 252.277344 404.746094 252.691406 C 405.652344 253.019531 406.300781 253.6875 406.515625 254.523438 L 432.542969 354.703125 C 433.261719 357.472656 432.027344 360.402344 429.320312 362.347656 L 387.289062 392.617188 C 387.191406 392.695312 387.066406 392.730469 386.9375 392.730469 Z M 403.503906 253.699219 C 402.957031 253.699219 402.410156 253.867188 401.96875 254.183594 L 363.609375 281.804688 C 361.167969 283.566406 360.039062 286.167969 360.671875 288.597656 L 387.304688 391.113281 L 428.617188 361.363281 C 430.902344 359.71875 431.957031 357.28125 431.367188 355.007812 L 405.339844 254.832031 C 405.183594 254.226562 404.644531 253.953125 404.335938 253.839844 C 404.070312 253.742188 403.789062 253.699219 403.503906 253.699219 Z M 403.503906 253.699219 " fill-opacity="1" fill-rule="nonzero"/><path fill="#e9e6fa" d="M 404.679688 263.089844 L 427.851562 352.289062 C 428.433594 354.519531 427.40625 356.929688 425.195312 358.519531 L 388.789062 384.519531 L 364.875 292.472656 C 364.257812 290.101562 365.347656 287.542969 367.699219 285.851562 L 400.832031 262.207031 C 402.230469 261.203125 404.3125 261.679688 404.679688 263.089844 Z M 404.679688 263.089844 " fill-opacity="1" fill-rule="nonzero"/><path fill="#ffffff" d="M 413.402344 379.523438 C 413.402344 379.523438 405.261719 359.664062 404.4375 345.929688 C 404.105469 340.375 403.488281 322.21875 395.734375 324.746094 C 390.222656 326.542969 388.21875 347.25 388.21875 347.25 L 364.179688 304.242188 C 364.179688 304.242188 353.308594 306.96875 355.660156 325.59375 C 355.660156 325.59375 347.5625 327.613281 347.3125 340.664062 C 347.3125 340.664062 338.964844 344.878906 339.945312 355.246094 C 338.226562 358.632812 337.269531 361.753906 336.980469 364.886719 C 336 375.410156 340.464844 383.726562 345.65625 392.429688 C 354.816406 407.800781 362.21875 419.789062 367.972656 428.953125 C 381.632812 412.710938 399.738281 395.757812 413.402344 379.523438 Z M 413.402344 379.523438 " fill-opacity="1" fill-rule="nonzero"/><path fill="#000000" d="M 367.96875 429.558594 C 367.957031 429.558594 367.941406 429.558594 367.929688 429.558594 C 367.734375 429.542969 367.558594 429.4375 367.457031 429.273438 C 360.21875 417.75 352.917969 405.800781 345.128906 392.742188 C 339.757812 383.726562 335.386719 375.402344 336.371094 364.828125 C 336.664062 361.679688 337.628906 358.503906 339.324219 355.125 C 338.527344 345.78125 345.148438 341.238281 346.714844 340.304688 C 347.046875 328.996094 353.144531 325.867188 354.996094 325.171875 C 352.863281 306.675781 363.917969 303.683594 364.03125 303.652344 C 364.304688 303.585938 364.578125 303.707031 364.710938 303.945312 L 387.824219 345.292969 C 388.480469 339.882812 390.648438 325.761719 395.546875 324.164062 C 397.027344 323.683594 398.375 323.84375 399.550781 324.652344 C 404.027344 327.710938 404.683594 339.390625 405 345 L 405.050781 345.890625 C 405.859375 359.371094 413.890625 379.09375 413.972656 379.289062 C 414.058594 379.5 414.023438 379.742188 413.875 379.914062 C 407.03125 388.046875 398.949219 396.488281 391.132812 404.65625 C 383.328125 412.804688 375.261719 421.234375 368.441406 429.339844 C 368.316406 429.476562 368.144531 429.558594 367.96875 429.558594 Z M 363.890625 304.976562 C 361.921875 305.707031 354.253906 309.613281 356.261719 325.519531 C 356.300781 325.824219 356.105469 326.109375 355.804688 326.1875 C 355.496094 326.265625 348.152344 328.289062 347.917969 340.675781 C 347.914062 340.898438 347.785156 341.105469 347.585938 341.203125 C 347.257812 341.371094 339.617188 345.375 340.542969 355.1875 C 340.554688 355.300781 340.53125 355.414062 340.480469 355.519531 C 338.808594 358.8125 337.859375 361.894531 337.578125 364.9375 C 336.628906 375.148438 340.90625 383.285156 346.171875 392.117188 C 353.792969 404.902344 360.949219 416.621094 368.039062 427.921875 C 374.769531 419.984375 382.632812 411.765625 390.242188 403.816406 C 397.957031 395.757812 405.929688 387.429688 412.699219 379.414062 C 411.621094 376.707031 404.585938 358.65625 403.828125 345.96875 L 403.777344 345.074219 C 403.496094 340.082031 402.835938 328.382812 398.859375 325.660156 C 398 325.074219 397.039062 324.964844 395.917969 325.332031 C 391.707031 326.703125 389.367188 341.664062 388.820312 347.316406 C 388.796875 347.578125 388.601562 347.796875 388.339844 347.851562 C 388.078125 347.910156 387.8125 347.785156 387.683594 347.554688 Z M 363.890625 304.976562 " fill-opacity="1" fill-rule="nonzero"/><path fill="#000000" d="M 363.179688 344.019531 C 362.941406 344.019531 362.714844 343.878906 362.617188 343.648438 L 355.097656 325.828125 C 354.96875 325.519531 355.109375 325.164062 355.421875 325.03125 C 355.730469 324.898438 356.085938 325.046875 356.21875 325.355469 L 363.738281 343.171875 C 363.871094 343.480469 363.726562 343.839844 363.417969 343.96875 C 363.339844 344.003906 363.257812 344.019531 363.179688 344.019531 Z M 363.179688 344.019531 " fill-opacity="1" fill-rule="nonzero"/><path fill="#000000" d="M 351.929688 356.582031 C 351.667969 356.582031 351.429688 356.414062 351.347656 356.148438 L 346.730469 340.835938 C 346.632812 340.511719 346.816406 340.171875 347.136719 340.074219 C 347.460938 339.976562 347.800781 340.160156 347.894531 340.480469 L 352.511719 355.792969 C 352.609375 356.117188 352.425781 356.457031 352.105469 356.554688 C 352.046875 356.574219 351.988281 356.582031 351.929688 356.582031 Z M 351.929688 356.582031 " fill-opacity="1" fill-rule="nonzero"/><path fill="#000000" d="M 343.4375 368.21875 C 343.171875 368.21875 342.925781 368.046875 342.851562 367.777344 L 339.355469 355.410156 C 339.265625 355.085938 339.453125 354.75 339.777344 354.660156 C 340.097656 354.566406 340.4375 354.753906 340.527344 355.078125 L 344.023438 367.445312 C 344.113281 367.769531 343.925781 368.105469 343.601562 368.195312 C 343.546875 368.214844 343.492188 368.21875 343.4375 368.21875 Z M 343.4375 368.21875 " fill-opacity="1" fill-rule="nonzero"/><path fill="#6c4dd3" d="M 698.445312 249.933594 C 665.574219 247.625 624.441406 247.921875 589.796875 258.035156 C 568.84375 264.15625 550.59375 277.203125 537.890625 294.957031 C 509.460938 334.691406 457.625 413.011719 457.625 413.011719 L 424.726562 374.789062 C 421.257812 370.765625 415.144531 370.4375 411.265625 374.0625 L 361.988281 420.132812 C 358.121094 423.746094 357.660156 429.714844 360.929688 433.878906 L 414.121094 501.84375 L 783.65625 501.84375 L 763.40625 312.691406 C 759.828125 278.792969 732.453125 252.320312 698.445312 249.933594 Z M 698.445312 249.933594 " fill-opacity="1" fill-rule="nonzero"/><path fill="#000000" d="M 519.945312 501.953125 C 519.816406 501.953125 519.691406 501.914062 519.582031 501.832031 C 519.3125 501.632812 519.257812 501.25 519.457031 500.980469 L 600.457031 391.761719 C 600.65625 391.488281 601.039062 391.433594 601.308594 391.632812 C 601.578125 391.832031 601.632812 392.214844 601.433594 392.484375 L 520.433594 501.707031 C 520.316406 501.867188 520.128906 501.953125 519.945312 501.953125 Z M 519.945312 501.953125 " fill-opacity="1" fill-rule="nonzero"/><path fill="#000000" d="M 620.035156 190.828125 L 652.480469 337.695312 L 761.109375 337.695312 C 761.109375 337.695312 738.753906 228.289062 709.933594 155.417969 C 694.921875 117.464844 660.117188 90.578125 619.476562 86.753906 C 605.160156 85.40625 591.0625 86.589844 581.9375 94.773438 C 558.152344 116.105469 564.167969 139.601562 613.554688 157.027344 C 613.554688 157.027344 618.675781 148.445312 628.410156 154.558594 C 638.144531 160.671875 636.503906 183.015625 620.035156 190.828125 Z M 620.035156 190.828125 " fill-opacity="1" fill-rule="nonzero"/><path fill="#ffffff" d="M 222.023438 303.738281 C 245.710938 277.5625 278.199219 242.230469 285.828125 236.765625 C 298.164062 227.929688 336.742188 213.378906 348.527344 207.554688 C 360.3125 201.730469 360.988281 204.863281 364.082031 208.429688 C 375.324219 221.394531 329.507812 239.78125 329.507812 239.78125 C 356.910156 237.46875 345.4375 256.351562 345.4375 256.351562 C 357.738281 265.476562 343.273438 277.171875 343.273438 277.171875 C 353.277344 282.597656 349.042969 289.898438 339.421875 297.070312 C 329.800781 304.242188 321.296875 298.148438 321.296875 298.148438 C 319.980469 300.167969 297.175781 344.445312 280.222656 367.421875 C 280.136719 367.359375 227.421875 307.980469 222.023438 303.738281 Z M 222.023438 303.738281 " fill-opacity="1" fill-rule="nonzero"/><path fill="#000000" d="M 280.21875 368.023438 C 280.097656 368.023438 279.976562 367.988281 279.871094 367.914062 C 279.800781 367.867188 279.800781 367.867188 277.613281 365.40625 C 235.242188 317.886719 223.789062 305.902344 221.644531 304.214844 C 221.511719 304.109375 221.429688 303.957031 221.414062 303.789062 C 221.402344 303.621094 221.457031 303.453125 221.570312 303.328125 C 246.554688 275.722656 277.921875 241.679688 285.476562 236.269531 C 293.851562 230.269531 313.953125 221.777344 330.105469 214.953125 C 337.796875 211.703125 344.4375 208.894531 348.257812 207.007812 C 358.773438 201.8125 360.875 203.515625 363.675781 206.984375 C 363.949219 207.324219 364.234375 207.675781 364.539062 208.027344 C 366.253906 210.003906 366.828125 212.21875 366.246094 214.613281 C 363.824219 224.625 341.457031 235.265625 332.949219 238.984375 C 340.34375 238.839844 345.125 240.480469 347.242188 243.894531 C 350.042969 248.414062 347.171875 254.453125 346.230469 256.191406 C 349.332031 258.628906 350.9375 261.464844 351.003906 264.625 C 351.125 270.359375 346.167969 275.398438 344.328125 277.070312 C 347.640625 279.042969 349.414062 281.371094 349.605469 284.003906 C 349.886719 287.929688 346.585938 292.492188 339.789062 297.558594 C 331.347656 303.847656 323.621094 300.214844 321.507812 298.996094 C 321.0625 299.789062 320.21875 301.359375 319.152344 303.34375 C 312.441406 315.816406 294.613281 348.949219 280.710938 367.78125 C 280.589844 367.9375 280.40625 368.023438 280.21875 368.023438 Z M 222.890625 303.679688 C 227.230469 307.578125 246.382812 328.550781 278.519531 364.597656 C 279.25 365.410156 279.808594 366.039062 280.171875 366.449219 C 293.953125 347.585938 311.445312 315.078125 318.074219 302.757812 C 319.605469 299.914062 320.53125 298.195312 320.78125 297.808594 C 320.875 297.671875 321.015625 297.574219 321.179688 297.546875 C 321.34375 297.515625 321.511719 297.550781 321.644531 297.648438 C 321.980469 297.882812 329.921875 303.386719 339.054688 296.578125 C 345.496094 291.777344 348.636719 287.574219 348.386719 284.089844 C 348.214844 281.703125 346.394531 279.554688 342.980469 277.707031 C 342.800781 277.609375 342.683594 277.429688 342.667969 277.226562 C 342.648438 277.023438 342.730469 276.824219 342.890625 276.695312 C 342.960938 276.636719 349.917969 270.929688 349.785156 264.644531 C 349.722656 261.734375 348.140625 259.109375 345.078125 256.835938 C 344.824219 256.648438 344.757812 256.300781 344.917969 256.035156 C 344.960938 255.964844 349.046875 249.113281 346.207031 244.527344 C 344.035156 241.03125 338.433594 239.636719 329.558594 240.382812 C 329.269531 240.414062 328.984375 240.214844 328.917969 239.917969 C 328.847656 239.625 329.003906 239.324219 329.28125 239.214844 C 329.609375 239.082031 362.277344 225.851562 365.066406 214.324219 C 365.554688 212.308594 365.082031 210.511719 363.621094 208.828125 C 363.304688 208.460938 363.011719 208.097656 362.730469 207.75 C 360.375 204.839844 358.953125 203.082031 348.800781 208.097656 C 344.949219 210 338.289062 212.8125 330.578125 216.074219 C 314.484375 222.871094 294.453125 231.339844 286.183594 237.257812 C 278.761719 242.574219 247.765625 276.203125 222.890625 303.679688 Z M 222.890625 303.679688 " fill-opacity="1" fill-rule="nonzero"/><path fill="#000000" d="M 286.625 273.886719 C 282.171875 273.886719 277.707031 272.257812 274.445312 269.203125 C 274.199219 268.972656 274.1875 268.585938 274.417969 268.339844 C 274.644531 268.09375 275.03125 268.082031 275.277344 268.3125 C 279.957031 272.695312 287.304688 273.925781 293.148438 271.308594 C 294.910156 270.519531 296.589844 269.390625 298.21875 268.292969 C 300.933594 266.464844 303.746094 264.574219 307.085938 264.152344 C 309.011719 263.910156 310.933594 264.183594 312.792969 264.449219 C 313.554688 264.5625 314.347656 264.671875 315.117188 264.746094 C 317.289062 264.949219 320.257812 264.820312 322.078125 263.027344 C 323.945312 261.1875 324.003906 258.191406 323.238281 256.035156 C 322.320312 253.476562 320.363281 251.4375 318.566406 249.78125 C 311.4375 243.210938 302.253906 238.648438 292.703125 236.945312 C 292.371094 236.882812 292.152344 236.566406 292.210938 236.238281 C 292.269531 235.90625 292.589844 235.683594 292.917969 235.746094 C 302.691406 237.492188 312.09375 242.160156 319.394531 248.886719 C 321.296875 250.640625 323.378906 252.816406 324.386719 255.628906 C 325.285156 258.144531 325.1875 261.679688 322.9375 263.894531 C 321.207031 265.601562 318.539062 266.300781 315.007812 265.960938 C 314.207031 265.886719 313.402344 265.769531 312.625 265.65625 C 310.765625 265.390625 309.011719 265.136719 307.25 265.359375 C 304.195312 265.746094 301.628906 267.476562 298.910156 269.308594 C 297.242188 270.429688 295.515625 271.589844 293.65625 272.421875 C 291.441406 273.40625 289.035156 273.886719 286.625 273.886719 Z M 286.625 273.886719 " fill-opacity="1" fill-rule="nonzero"/><path fill="#000000" d="M 313.132812 277.183594 C 312.621094 277.183594 312.105469 277.152344 311.589844 277.085938 C 308.628906 276.703125 306.078125 275.054688 304.945312 272.777344 C 303.613281 270.105469 304.542969 266.597656 306.9375 265.277344 C 307.234375 265.113281 307.601562 265.21875 307.761719 265.511719 C 307.925781 265.808594 307.820312 266.179688 307.527344 266.339844 C 305.675781 267.359375 304.980469 270.113281 306.035156 272.230469 C 306.988281 274.148438 309.175781 275.542969 311.746094 275.871094 C 314.335938 276.207031 316.980469 275.511719 318.996094 274.867188 C 328.769531 271.753906 337.335938 265.375 343.121094 256.910156 C 343.308594 256.628906 343.6875 256.5625 343.96875 256.75 C 344.246094 256.941406 344.316406 257.316406 344.128906 257.597656 C 338.191406 266.285156 329.398438 272.832031 319.367188 276.03125 C 317.621094 276.589844 315.421875 277.183594 313.132812 277.183594 Z M 313.132812 277.183594 " fill-opacity="1" fill-rule="nonzero"/><path fill="#000000" d="M 322 289.265625 C 320.257812 289.265625 318.585938 288.972656 317.046875 288.378906 C 312.164062 286.492188 309.082031 281.242188 310.179688 276.675781 C 310.257812 276.351562 310.585938 276.152344 310.914062 276.226562 C 311.238281 276.304688 311.441406 276.632812 311.363281 276.960938 C 310.40625 280.957031 313.152344 285.570312 317.484375 287.242188 C 321.257812 288.699219 325.96875 288.164062 330.402344 285.777344 C 334.449219 283.597656 337.78125 280.289062 341.003906 277.085938 C 341.242188 276.851562 341.628906 276.851562 341.867188 277.089844 C 342.105469 277.332031 342.101562 277.714844 341.863281 277.953125 C 338.578125 281.214844 335.179688 284.585938 330.980469 286.847656 C 328.007812 288.445312 324.910156 289.265625 322 289.265625 Z M 322 289.265625 " fill-opacity="1" fill-rule="nonzero"/><path fill="#ffffff" d="M 26.425781 501.828125 L 26.335938 300.101562 C 26.335938 274.675781 64.535156 225.660156 89.777344 222.582031 C 115.355469 219.460938 130.527344 217.484375 167.617188 221.628906 C 204.976562 225.804688 236.066406 252.242188 246.203125 288.429688 L 338.296875 501.84375 Z M 26.425781 501.828125 " fill-opacity="1" fill-rule="nonzero"/><g clip-path="url(#78fb73f496)"><path fill="#000000" d="M 338.300781 502.453125 C 338.066406 502.453125 337.84375 502.316406 337.742188 502.085938 L 245.648438 288.671875 C 245.636719 288.648438 245.628906 288.621094 245.621094 288.597656 C 235.492188 252.449219 204.851562 226.402344 167.550781 222.234375 C 131.039062 218.15625 115.929688 220 90.898438 223.058594 L 89.851562 223.183594 C 78.527344 224.570312 62.898438 236.125 49.066406 253.34375 C 35.417969 270.328125 26.941406 288.246094 26.941406 300.101562 L 26.941406 501.84375 C 26.941406 502.179688 26.667969 502.453125 26.335938 502.453125 C 26 502.453125 25.726562 502.179688 25.726562 501.84375 L 25.726562 300.101562 C 25.726562 287.980469 34.304688 269.773438 48.117188 252.578125 C 62.355469 234.855469 77.902344 223.417969 89.707031 221.976562 L 90.753906 221.847656 C 115.875 218.785156 131.035156 216.929688 167.6875 221.027344 C 186.136719 223.085938 203.371094 230.535156 217.515625 242.558594 C 231.648438 254.578125 241.769531 270.367188 246.785156 288.226562 L 338.863281 501.601562 C 338.996094 501.910156 338.855469 502.269531 338.542969 502.402344 C 338.464844 502.4375 338.382812 502.453125 338.300781 502.453125 Z M 338.300781 502.453125 " fill-opacity="1" fill-rule="nonzero"/></g><g clip-path="url(#17bbcf30f4)"><path fill="#000000" d="M 231.292969 502.453125 C 231.0625 502.453125 230.84375 502.324219 230.738281 502.101562 L 164.386719 361.167969 L 148.039062 361.167969 C 147.699219 361.167969 147.429688 360.894531 147.429688 360.558594 C 147.429688 360.222656 147.703125 359.953125 148.039062 359.953125 L 164.769531 359.953125 C 165.003906 359.953125 165.21875 360.085938 165.320312 360.304688 L 231.835938 501.585938 C 231.980469 501.890625 231.851562 502.253906 231.546875 502.394531 C 231.46875 502.433594 231.378906 502.453125 231.292969 502.453125 Z M 231.292969 502.453125 " fill-opacity="1" fill-rule="nonzero"/></g><path fill="#ffffff" d="M 134.886719 154.835938 L 117.214844 215.792969 L 177.726562 219.90625 L 181.4375 205.148438 C 181.4375 205.148438 202.796875 211.726562 221.703125 204.78125 C 240.613281 197.835938 226.21875 128.367188 223.285156 109.691406 C 220.347656 91.019531 154.28125 114.628906 134.886719 154.835938 Z M 134.886719 154.835938 " fill-opacity="1" fill-rule="nonzero"/><path fill="#000000" d="M 177.730469 220.515625 C 177.71875 220.515625 177.703125 220.515625 177.6875 220.515625 L 117.175781 216.402344 C 116.992188 216.390625 116.824219 216.296875 116.71875 216.144531 C 116.613281 215.992188 116.578125 215.800781 116.632812 215.625 L 134.300781 154.664062 C 134.308594 154.632812 134.324219 154.601562 134.335938 154.570312 C 143.917969 134.710938 163.128906 121.496094 173.722656 115.386719 C 189.429688 106.332031 205.824219 101.40625 215.503906 102.832031 C 220.40625 103.554688 223.304688 105.898438 223.886719 109.601562 C 224.199219 111.589844 224.648438 114.175781 225.164062 117.167969 C 229.746094 143.722656 239.285156 198.976562 221.917969 205.355469 C 204.824219 211.632812 185.542969 206.910156 181.878906 205.910156 L 178.320312 220.058594 C 178.253906 220.328125 178.007812 220.515625 177.730469 220.515625 Z M 118.011719 215.238281 L 177.261719 219.265625 L 180.847656 205 C 180.890625 204.835938 180.996094 204.699219 181.140625 204.621094 C 181.285156 204.539062 181.460938 204.519531 181.617188 204.566406 C 181.832031 204.632812 203.007812 211 221.496094 204.210938 C 237.910156 198.183594 228.136719 141.554688 223.960938 117.375 C 223.445312 114.375 222.996094 111.785156 222.683594 109.785156 C 222.183594 106.617188 219.707031 104.683594 215.324219 104.035156 C 205.902344 102.640625 189.8125 107.511719 174.328125 116.433594 C 163.863281 122.46875 144.898438 135.507812 135.453125 155.046875 Z M 118.011719 215.238281 " fill-opacity="1" fill-rule="nonzero"/><path fill="#000000" d="M 120.605469 170.800781 C 120.605469 170.800781 124.480469 177.089844 139.648438 181.984375 C 149.90625 185.292969 159.722656 183.660156 168.371094 180.316406 C 173.394531 178.371094 188.097656 173.121094 188.097656 173.121094 C 188.097656 173.121094 165.96875 158.222656 179.707031 145.496094 C 179.707031 145.496094 188.636719 139.738281 193.453125 148.230469 C 193.453125 148.230469 211.816406 140.375 208.710938 122.277344 C 208.710938 122.277344 239.410156 114.550781 239.101562 90.957031 C 238.789062 67.363281 201.335938 58.160156 168.777344 68.914062 C 136.222656 79.664062 117.25 98.578125 124.1875 125.625 C 131.128906 152.675781 130.597656 160.023438 120.605469 170.800781 Z M 120.605469 170.800781 " fill-opacity="1" fill-rule="nonzero"/><path fill="#000000" d="M 181.523438 205.839844 C 181.464844 205.839844 181.410156 205.832031 181.355469 205.816406 C 181.03125 205.726562 180.84375 205.390625 180.933594 205.066406 C 182.285156 200.246094 183.238281 196.175781 184.164062 192.238281 C 184.398438 191.230469 184.636719 190.226562 184.878906 189.203125 C 184.957031 188.875 185.289062 188.671875 185.609375 188.753906 C 185.9375 188.832031 186.140625 189.160156 186.0625 189.484375 C 185.816406 190.503906 185.582031 191.507812 185.347656 192.515625 C 184.417969 196.460938 183.460938 200.546875 182.101562 205.390625 C 182.03125 205.664062 181.785156 205.839844 181.523438 205.839844 Z M 181.523438 205.839844 " fill-opacity="1" fill-rule="nonzero"/><path fill="#000000" d="M 193.003906 166.703125 C 192.996094 166.703125 192.980469 166.703125 192.96875 166.703125 C 192.632812 166.683594 192.378906 166.398438 192.398438 166.058594 C 192.597656 162.628906 190.148438 159.222656 186.824219 158.300781 C 186.503906 158.210938 186.3125 157.875 186.402344 157.550781 C 186.492188 157.222656 186.824219 157.035156 187.152344 157.125 C 191.007812 158.195312 193.84375 162.148438 193.613281 166.128906 C 193.597656 166.453125 193.324219 166.703125 193.003906 166.703125 Z M 193.003906 166.703125 " fill-opacity="1" fill-rule="nonzero"/><path fill="#000000" d="M 195.617188 154.390625 C 195.300781 154.390625 195.03125 154.144531 195.011719 153.824219 C 194.800781 150.855469 193.425781 147.992188 191.222656 145.976562 C 190.976562 145.75 190.960938 145.367188 191.1875 145.117188 C 191.410156 144.867188 191.796875 144.851562 192.046875 145.078125 C 194.472656 147.300781 195.996094 150.457031 196.226562 153.734375 C 196.246094 154.070312 195.996094 154.359375 195.660156 154.382812 C 195.644531 154.390625 195.632812 154.390625 195.617188 154.390625 Z M 195.617188 154.390625 " fill-opacity="1" fill-rule="nonzero"/><path fill="#000000" d="M 191.609375 176.21875 C 191.488281 176.21875 191.363281 176.183594 191.253906 176.105469 L 186.34375 172.582031 C 186.070312 172.386719 186.003906 172.003906 186.203125 171.734375 C 186.398438 171.460938 186.777344 171.398438 187.050781 171.59375 L 191.964844 175.117188 C 192.238281 175.3125 192.300781 175.695312 192.105469 175.96875 C 191.988281 176.128906 191.796875 176.21875 191.609375 176.21875 Z M 191.609375 176.21875 " fill-opacity="1" fill-rule="nonzero"/><path fill="#6c4dd3" d="M 89.78125 223.824219 C 89.78125 223.824219 94.246094 199.558594 106.082031 198.054688 C 117.917969 196.550781 158.476562 203.804688 185.957031 213.859375 L 192.128906 229.945312 Z M 89.78125 223.824219 " fill-opacity="1" fill-rule="nonzero"/><path fill="#ffffff" d="M 771.121094 46.890625 C 770.835938 46.910156 770.566406 46.949219 770.296875 47 C 769.445312 44.3125 768.203125 41.804688 766.640625 39.546875 C 766.84375 39.367188 767.042969 39.175781 767.230469 38.960938 C 769.71875 36.136719 769.445312 31.828125 766.617188 29.335938 C 763.792969 26.847656 759.480469 27.121094 756.992188 29.949219 C 756.808594 30.15625 756.644531 30.378906 756.488281 30.605469 C 754.050781 29.335938 751.40625 28.425781 748.632812 27.921875 C 748.648438 27.648438 748.652344 27.371094 748.636719 27.09375 C 748.398438 23.335938 745.15625 20.480469 741.394531 20.71875 C 737.636719 20.957031 734.78125 24.199219 735.019531 27.957031 C 735.035156 28.234375 735.078125 28.507812 735.128906 28.78125 C 732.4375 29.628906 729.933594 30.871094 727.675781 32.433594 C 727.492188 32.230469 727.300781 32.03125 727.089844 31.847656 C 724.261719 29.359375 719.953125 29.632812 717.464844 32.457031 C 714.976562 35.28125 715.246094 39.59375 718.074219 42.082031 C 718.285156 42.265625 718.507812 42.433594 718.730469 42.585938 C 717.464844 45.027344 716.550781 47.667969 716.046875 50.441406 C 715.773438 50.425781 715.5 50.425781 715.21875 50.441406 C 711.460938 50.679688 708.605469 53.917969 708.84375 57.675781 C 709.082031 61.433594 712.324219 64.289062 716.085938 64.050781 C 716.367188 64.035156 716.636719 63.992188 716.90625 63.941406 C 717.757812 66.632812 719 69.136719 720.5625 71.394531 C 720.359375 71.578125 720.160156 71.765625 719.976562 71.980469 C 717.484375 74.808594 717.757812 79.113281 720.585938 81.605469 C 723.414062 84.09375 727.722656 83.820312 730.210938 80.996094 C 730.394531 80.785156 730.5625 80.5625 730.714844 80.339844 C 733.152344 81.605469 735.796875 82.515625 738.570312 83.023438 C 738.554688 83.296875 738.550781 83.570312 738.570312 83.851562 C 738.804688 87.609375 742.046875 90.464844 745.808594 90.222656 C 749.570312 89.984375 752.421875 86.742188 752.183594 82.984375 C 752.167969 82.707031 752.125 82.433594 752.074219 82.164062 C 754.765625 81.3125 757.269531 80.070312 759.527344 78.507812 C 759.710938 78.710938 759.902344 78.910156 760.113281 79.09375 C 762.941406 81.582031 767.25 81.308594 769.738281 78.484375 C 772.230469 75.65625 771.957031 71.351562 769.128906 68.859375 C 768.917969 68.675781 768.699219 68.507812 768.472656 68.355469 C 769.738281 65.917969 770.652344 63.273438 771.15625 60.5 C 771.429688 60.515625 771.703125 60.519531 771.984375 60.503906 C 775.746094 60.265625 778.597656 57.023438 778.359375 53.265625 C 778.117188 49.507812 774.878906 46.65625 771.121094 46.890625 Z M 744.402344 68.113281 C 737.421875 68.554688 731.402344 63.253906 730.957031 56.273438 C 730.515625 49.292969 735.816406 43.277344 742.796875 42.832031 C 749.777344 42.390625 755.796875 47.691406 756.242188 54.671875 C 756.6875 61.652344 751.382812 67.671875 744.402344 68.113281 Z M 744.402344 68.113281 " fill-opacity="1" fill-rule="nonzero"/><path fill="#000000" d="M 745.363281 90.851562 C 743.554688 90.851562 741.832031 90.199219 740.464844 88.996094 C 738.972656 87.683594 738.085938 85.875 737.960938 83.894531 C 737.953125 83.777344 737.949219 83.652344 737.945312 83.527344 C 735.5 83.035156 733.132812 82.230469 730.898438 81.121094 C 730.820312 81.21875 730.742188 81.3125 730.664062 81.402344 C 727.953125 84.472656 723.253906 84.773438 720.175781 82.066406 C 718.6875 80.753906 717.800781 78.945312 717.671875 76.960938 C 717.546875 74.980469 718.199219 73.070312 719.511719 71.582031 C 719.589844 71.492188 719.675781 71.402344 719.761719 71.316406 C 718.382812 69.242188 717.28125 66.996094 716.480469 64.628906 C 716.355469 64.644531 716.238281 64.65625 716.113281 64.664062 C 712.007812 64.917969 708.488281 61.808594 708.230469 57.722656 C 708.101562 55.742188 708.757812 53.832031 710.066406 52.339844 C 711.378906 50.851562 713.191406 49.960938 715.171875 49.835938 C 715.292969 49.828125 715.414062 49.824219 715.539062 49.820312 C 716.03125 47.375 716.839844 45.007812 717.949219 42.777344 C 717.847656 42.699219 717.753906 42.621094 717.667969 42.539062 C 716.175781 41.230469 715.285156 39.417969 715.164062 37.4375 C 715.035156 35.457031 715.691406 33.546875 717 32.058594 C 719.710938 28.984375 724.410156 28.6875 727.488281 31.390625 C 727.578125 31.472656 727.667969 31.554688 727.753906 31.644531 C 729.828125 30.261719 732.074219 29.160156 734.441406 28.363281 C 734.429688 28.238281 734.417969 28.117188 734.410156 28 C 734.28125 26.019531 734.9375 24.109375 736.25 22.617188 C 737.558594 21.128906 739.375 20.238281 741.355469 20.113281 C 745.453125 19.855469 748.980469 22.96875 749.238281 27.054688 C 749.25 27.171875 749.25 27.292969 749.253906 27.421875 C 751.699219 27.914062 754.066406 28.71875 756.300781 29.828125 C 756.378906 29.730469 756.457031 29.636719 756.535156 29.546875 C 759.242188 26.472656 763.945312 26.175781 767.023438 28.882812 C 768.511719 30.191406 769.398438 32.003906 769.527344 33.988281 C 769.648438 35.964844 769 37.878906 767.6875 39.367188 C 767.605469 39.457031 767.523438 39.546875 767.4375 39.632812 C 768.816406 41.707031 769.917969 43.953125 770.714844 46.316406 C 770.84375 46.304688 770.964844 46.292969 771.082031 46.285156 C 775.167969 46.03125 778.710938 49.140625 778.96875 53.226562 C 779.09375 55.207031 778.441406 57.117188 777.128906 58.605469 C 775.820312 60.09375 774.007812 60.984375 772.023438 61.109375 C 771.902344 61.117188 771.785156 61.121094 771.65625 61.125 C 771.167969 63.570312 770.359375 65.9375 769.25 68.167969 C 769.347656 68.246094 769.441406 68.324219 769.53125 68.40625 C 771.023438 69.714844 771.910156 71.527344 772.035156 73.507812 C 772.164062 75.488281 771.507812 77.398438 770.195312 78.886719 C 767.488281 81.960938 762.785156 82.261719 759.710938 79.554688 C 759.621094 79.472656 759.53125 79.390625 759.441406 79.300781 C 757.367188 80.6875 755.121094 81.785156 752.753906 82.582031 C 752.769531 82.710938 752.78125 82.832031 752.789062 82.949219 C 752.914062 84.929688 752.261719 86.839844 750.949219 88.328125 C 749.636719 89.816406 747.824219 90.707031 745.84375 90.832031 C 745.683594 90.84375 745.519531 90.851562 745.363281 90.851562 Z M 730.714844 79.730469 C 730.808594 79.730469 730.902344 79.753906 730.992188 79.800781 C 733.40625 81.054688 735.992188 81.9375 738.675781 82.425781 C 738.980469 82.480469 739.191406 82.753906 739.175781 83.058594 C 739.160156 83.339844 739.160156 83.585938 739.171875 83.816406 C 739.277344 85.472656 740.019531 86.988281 741.265625 88.085938 C 742.511719 89.183594 744.105469 89.722656 745.765625 89.625 C 747.421875 89.519531 748.9375 88.777344 750.03125 87.53125 C 751.128906 86.285156 751.675781 84.691406 751.570312 83.03125 C 751.558594 82.804688 751.523438 82.5625 751.472656 82.28125 C 751.417969 81.976562 751.59375 81.683594 751.886719 81.589844 C 754.484375 80.769531 756.9375 79.566406 759.175781 78.015625 C 759.425781 77.84375 759.769531 77.878906 759.976562 78.113281 C 760.160156 78.324219 760.335938 78.496094 760.507812 78.648438 C 763.078125 80.910156 767.011719 80.660156 769.273438 78.089844 C 770.371094 76.84375 770.917969 75.25 770.8125 73.59375 C 770.707031 71.9375 769.964844 70.421875 768.71875 69.324219 C 768.546875 69.171875 768.351562 69.019531 768.121094 68.863281 C 767.867188 68.6875 767.78125 68.351562 767.925781 68.078125 C 769.179688 65.664062 770.0625 63.078125 770.550781 60.394531 C 770.605469 60.09375 770.886719 59.890625 771.1875 59.894531 C 771.472656 59.910156 771.714844 59.910156 771.941406 59.898438 C 773.597656 59.792969 775.113281 59.050781 776.210938 57.804688 C 777.308594 56.558594 777.855469 54.960938 777.75 53.304688 C 777.53125 49.886719 774.582031 47.285156 771.15625 47.503906 C 770.925781 47.515625 770.6875 47.550781 770.40625 47.601562 C 770.101562 47.65625 769.804688 47.480469 769.714844 47.1875 C 768.890625 44.589844 767.6875 42.136719 766.136719 39.898438 C 765.960938 39.644531 766.003906 39.300781 766.230469 39.097656 C 766.449219 38.90625 766.617188 38.738281 766.769531 38.566406 C 767.863281 37.320312 768.410156 35.722656 768.304688 34.066406 C 768.199219 32.410156 767.457031 30.898438 766.210938 29.796875 C 763.640625 27.535156 759.703125 27.785156 757.445312 30.355469 C 757.292969 30.523438 757.144531 30.71875 756.984375 30.957031 C 756.8125 31.210938 756.472656 31.292969 756.199219 31.152344 C 753.785156 29.898438 751.199219 29.015625 748.515625 28.527344 C 748.214844 28.46875 748 28.195312 748.015625 27.890625 C 748.035156 27.609375 748.035156 27.363281 748.019531 27.136719 C 747.800781 23.71875 744.84375 21.121094 741.425781 21.332031 C 739.769531 21.4375 738.253906 22.179688 737.15625 23.425781 C 736.0625 24.671875 735.515625 26.265625 735.621094 27.921875 C 735.632812 28.152344 735.667969 28.394531 735.71875 28.671875 C 735.777344 28.976562 735.597656 29.269531 735.304688 29.363281 C 732.703125 30.1875 730.253906 31.390625 728.015625 32.941406 C 727.765625 33.113281 727.417969 33.074219 727.214844 32.847656 C 727.023438 32.632812 726.851562 32.460938 726.683594 32.308594 C 724.113281 30.046875 720.175781 30.296875 717.914062 32.867188 C 716.820312 34.109375 716.273438 35.707031 716.378906 37.363281 C 716.480469 39.019531 717.226562 40.535156 718.46875 41.628906 C 718.640625 41.78125 718.835938 41.933594 719.070312 42.089844 C 719.324219 42.265625 719.410156 42.601562 719.265625 42.875 C 718.007812 45.292969 717.128906 47.878906 716.640625 50.558594 C 716.585938 50.863281 716.308594 51.082031 716.003906 51.058594 C 715.722656 51.042969 715.476562 51.042969 715.25 51.054688 C 713.59375 51.160156 712.078125 51.902344 710.980469 53.148438 C 709.886719 54.394531 709.339844 55.992188 709.445312 57.648438 C 709.664062 61.066406 712.621094 63.667969 716.039062 63.449219 C 716.265625 63.4375 716.503906 63.402344 716.789062 63.351562 C 717.089844 63.296875 717.386719 63.472656 717.480469 63.765625 C 718.300781 66.363281 719.503906 68.820312 721.058594 71.054688 C 721.234375 71.308594 721.191406 71.652344 720.960938 71.855469 C 720.75 72.042969 720.574219 72.21875 720.425781 72.390625 C 719.328125 73.632812 718.78125 75.230469 718.886719 76.886719 C 718.992188 78.542969 719.734375 80.054688 720.980469 81.15625 C 723.550781 83.417969 727.484375 83.167969 729.746094 80.597656 C 729.898438 80.425781 730.046875 80.230469 730.207031 80 C 730.328125 79.824219 730.515625 79.730469 730.714844 79.730469 Z M 771.121094 46.890625 L 771.125 46.890625 Z M 743.589844 68.746094 C 736.648438 68.746094 730.796875 63.335938 730.351562 56.3125 C 730.128906 52.773438 731.292969 49.359375 733.636719 46.699219 C 735.980469 44.039062 739.21875 42.449219 742.761719 42.226562 C 750.050781 41.769531 756.386719 47.324219 756.851562 54.632812 C 757.3125 61.933594 751.746094 68.253906 744.441406 68.71875 C 744.152344 68.738281 743.871094 68.746094 743.589844 68.746094 Z M 744.402344 68.113281 L 744.410156 68.113281 Z M 743.609375 43.417969 C 743.351562 43.417969 743.09375 43.425781 742.835938 43.441406 C 739.621094 43.644531 736.675781 45.089844 734.546875 47.503906 C 732.417969 49.921875 731.359375 53.023438 731.5625 56.234375 C 731.984375 62.871094 737.71875 67.929688 744.363281 67.503906 C 750.996094 67.082031 756.050781 61.339844 755.632812 54.710938 C 755.230469 48.332031 749.910156 43.417969 743.609375 43.417969 Z M 743.609375 43.417969 " fill-opacity="1" fill-rule="nonzero"/><path fill="#6c4dd3" d="M 701.222656 17.117188 C 701.058594 17.15625 700.898438 17.214844 700.742188 17.273438 C 699.925781 15.75 698.898438 14.378906 697.699219 13.195312 C 697.800781 13.0625 697.898438 12.925781 697.988281 12.777344 C 699.171875 10.792969 698.519531 8.226562 696.535156 7.046875 C 694.554688 5.863281 691.984375 6.515625 690.804688 8.5 C 690.714844 8.648438 690.640625 8.796875 690.570312 8.953125 C 688.960938 8.464844 687.265625 8.210938 685.535156 8.21875 C 685.511719 8.054688 685.484375 7.886719 685.445312 7.71875 C 684.878906 5.484375 682.601562 4.128906 680.363281 4.695312 C 678.125 5.261719 676.773438 7.535156 677.335938 9.773438 C 677.378906 9.9375 677.433594 10.097656 677.496094 10.253906 C 675.972656 11.070312 674.601562 12.097656 673.417969 13.296875 C 673.285156 13.195312 673.144531 13.097656 672.996094 13.011719 C 671.015625 11.828125 668.445312 12.480469 667.265625 14.464844 C 666.082031 16.445312 666.734375 19.011719 668.71875 20.191406 C 668.867188 20.28125 669.015625 20.355469 669.171875 20.421875 C 668.679688 22.035156 668.425781 23.726562 668.4375 25.457031 C 668.273438 25.480469 668.105469 25.507812 667.9375 25.550781 C 665.699219 26.113281 664.347656 28.390625 664.914062 30.625 C 665.480469 32.863281 667.753906 34.21875 669.992188 33.652344 C 670.160156 33.613281 670.320312 33.554688 670.476562 33.496094 C 671.289062 35.019531 672.320312 36.390625 673.519531 37.574219 C 673.417969 37.707031 673.316406 37.84375 673.230469 37.992188 C 672.046875 39.976562 672.699219 42.542969 674.679688 43.722656 C 676.664062 44.90625 679.230469 44.253906 680.414062 42.269531 C 680.5 42.121094 680.578125 41.972656 680.644531 41.816406 C 682.257812 42.304688 683.953125 42.558594 685.683594 42.550781 C 685.703125 42.714844 685.730469 42.882812 685.773438 43.050781 C 686.339844 45.289062 688.613281 46.640625 690.851562 46.074219 C 693.09375 45.507812 694.445312 43.234375 693.878906 40.996094 C 693.839844 40.832031 693.78125 40.671875 693.722656 40.515625 C 695.246094 39.699219 696.617188 38.667969 697.800781 37.472656 C 697.933594 37.574219 698.070312 37.671875 698.21875 37.757812 C 700.203125 38.941406 702.769531 38.289062 703.953125 36.304688 C 705.132812 34.324219 704.480469 31.757812 702.5 30.578125 C 702.351562 30.488281 702.203125 30.414062 702.046875 30.347656 C 702.535156 28.734375 702.789062 27.042969 702.777344 25.3125 C 702.945312 25.289062 703.113281 25.261719 703.277344 25.21875 C 705.519531 24.65625 706.871094 22.378906 706.304688 20.144531 C 705.738281 17.902344 703.464844 16.546875 701.222656 17.117188 Z M 687.519531 32.910156 C 683.363281 33.960938 679.136719 31.445312 678.082031 27.292969 C 677.03125 23.136719 679.546875 18.910156 683.703125 17.859375 C 687.859375 16.808594 692.082031 19.324219 693.136719 23.476562 C 694.1875 27.632812 691.671875 31.855469 687.519531 32.910156 Z M 687.519531 32.910156 " fill-opacity="1" fill-rule="nonzero"/><path fill="#000000" d="M 759.300781 188.738281 L 731.632812 188.738281 C 731.296875 188.738281 731.023438 188.464844 731.023438 188.132812 C 731.023438 187.796875 731.296875 187.523438 731.632812 187.523438 L 758.691406 187.523438 L 758.691406 90.648438 C 758.691406 90.3125 758.964844 90.039062 759.300781 90.039062 C 759.632812 90.039062 759.90625 90.3125 759.90625 90.648438 L 759.90625 188.132812 C 759.910156 188.46875 759.640625 188.738281 759.300781 188.738281 Z M 759.300781 188.738281 " fill-opacity="1" fill-rule="nonzero"/><path fill="#e9e6fa" d="M 221.6875 52.234375 L 79.835938 52.234375 L 80.167969 -2.832031 L 222.023438 -2.832031 Z M 221.6875 52.234375 " fill-opacity="1" fill-rule="nonzero"/><path fill="#ffffff" d="M 136.160156 42.730469 L 93.5 42.730469 L 93.71875 6.671875 L 136.378906 6.671875 Z M 136.160156 42.730469 " fill-opacity="1" fill-rule="nonzero"/><path fill="#000000" d="M 136.160156 43.335938 L 93.5 43.335938 C 93.335938 43.335938 93.183594 43.273438 93.070312 43.15625 C 92.957031 43.039062 92.890625 42.886719 92.890625 42.722656 L 93.109375 6.664062 C 93.113281 6.332031 93.382812 6.0625 93.71875 6.0625 L 136.378906 6.0625 C 136.542969 6.0625 136.699219 6.125 136.8125 6.242188 C 136.925781 6.355469 136.988281 6.511719 136.988281 6.675781 L 136.769531 42.730469 C 136.769531 43.066406 136.496094 43.335938 136.160156 43.335938 Z M 94.113281 42.117188 L 135.558594 42.117188 L 135.765625 7.277344 L 94.324219 7.277344 Z M 94.113281 42.117188 " fill-opacity="1" fill-rule="nonzero"/><path fill="#000000" d="M 128.351562 18.183594 C 128.015625 18.183594 127.742188 17.910156 127.746094 17.570312 L 127.761719 14.675781 L 102.234375 14.675781 L 102.21875 17.578125 C 102.214844 17.914062 101.96875 18.167969 101.605469 18.183594 C 101.269531 18.179688 101 17.90625 101 17.570312 L 101.023438 14.058594 C 101.027344 13.726562 101.296875 13.457031 101.632812 13.457031 L 128.375 13.457031 C 128.539062 13.457031 128.691406 13.519531 128.804688 13.632812 C 128.917969 13.75 128.984375 13.90625 128.984375 14.066406 L 128.960938 17.578125 C 128.960938 17.914062 128.6875 18.183594 128.351562 18.183594 Z M 128.351562 18.183594 " fill-opacity="1" fill-rule="nonzero"/><path fill="#000000" d="M 114.875 35.9375 C 114.875 35.9375 114.871094 35.9375 114.871094 35.9375 C 114.535156 35.9375 114.261719 35.664062 114.265625 35.324219 L 114.386719 15.820312 C 114.386719 15.484375 114.65625 15.214844 114.992188 15.214844 C 114.992188 15.214844 114.996094 15.214844 114.996094 15.214844 C 115.332031 15.214844 115.601562 15.488281 115.601562 15.828125 L 115.480469 35.335938 C 115.480469 35.667969 115.210938 35.9375 114.875 35.9375 Z M 114.875 35.9375 " fill-opacity="1" fill-rule="nonzero"/><path fill="#000000" d="M 119.269531 35.9375 L 110.476562 35.9375 C 110.140625 35.9375 109.871094 35.664062 109.871094 35.332031 C 109.871094 34.996094 110.144531 34.722656 110.476562 34.722656 L 119.269531 34.722656 C 119.605469 34.722656 119.875 34.996094 119.875 35.332031 C 119.875 35.664062 119.605469 35.9375 119.269531 35.9375 Z M 119.269531 35.9375 " fill-opacity="1" fill-rule="nonzero"/><path fill="#000000" d="M 207.664062 15.089844 L 146.957031 15.089844 C 146.621094 15.089844 146.351562 14.816406 146.351562 14.480469 C 146.351562 14.144531 146.625 13.875 146.957031 13.875 L 207.660156 13.875 C 208 13.875 208.269531 14.148438 208.269531 14.480469 C 208.273438 14.816406 208 15.089844 207.664062 15.089844 Z M 207.664062 15.089844 " fill-opacity="1" fill-rule="nonzero"/><path fill="#000000" d="M 207.617188 22.488281 L 146.914062 22.488281 C 146.578125 22.488281 146.304688 22.214844 146.304688 21.878906 C 146.304688 21.542969 146.578125 21.273438 146.914062 21.273438 L 207.617188 21.273438 C 207.953125 21.273438 208.222656 21.546875 208.222656 21.878906 C 208.226562 22.214844 207.953125 22.488281 207.617188 22.488281 Z M 207.617188 22.488281 " fill-opacity="1" fill-rule="nonzero"/><path fill="#000000" d="M 207.574219 29.882812 L 146.871094 29.882812 C 146.53125 29.882812 146.261719 29.609375 146.261719 29.277344 C 146.261719 28.941406 146.535156 28.667969 146.871094 28.667969 L 207.574219 28.667969 C 207.910156 28.667969 208.179688 28.941406 208.179688 29.277344 C 208.183594 29.609375 207.910156 29.882812 207.574219 29.882812 Z M 207.574219 29.882812 " fill-opacity="1" fill-rule="nonzero"/><path fill="#000000" d="M 207.527344 37.28125 L 146.824219 37.28125 C 146.488281 37.28125 146.21875 37.007812 146.21875 36.671875 C 146.21875 36.339844 146.492188 36.066406 146.824219 36.066406 L 207.527344 36.066406 C 207.867188 36.066406 208.136719 36.339844 208.136719 36.671875 C 208.136719 37.007812 207.867188 37.28125 207.527344 37.28125 Z M 207.527344 37.28125 " fill-opacity="1" fill-rule="nonzero"/><path fill="#e9e6fa" d="M 47.792969 176.5625 C 47.972656 177.054688 48.105469 177.5625 48.183594 178.082031 C 48.265625 178.605469 48.296875 179.125 48.277344 179.652344 C 48.253906 180.179688 48.183594 180.695312 48.0625 181.207031 C 47.9375 181.71875 47.765625 182.214844 47.546875 182.691406 C 47.328125 183.167969 47.0625 183.617188 46.753906 184.042969 C 46.445312 184.464844 46.097656 184.855469 45.714844 185.210938 C 45.328125 185.566406 44.914062 185.882812 44.464844 186.15625 C 44.019531 186.429688 43.546875 186.65625 43.054688 186.835938 C 42.5625 187.015625 42.058594 187.144531 41.542969 187.226562 C 41.023438 187.304688 40.503906 187.335938 39.980469 187.3125 C 39.453125 187.289062 38.9375 187.214844 38.429688 187.089844 C 37.917969 186.964844 37.425781 186.792969 36.949219 186.570312 C 36.472656 186.347656 36.023438 186.082031 35.601562 185.769531 C 35.175781 185.460938 34.785156 185.109375 34.429688 184.722656 C 34.074219 184.335938 33.761719 183.917969 33.488281 183.46875 C 33.214844 183.015625 32.988281 182.546875 32.804688 182.050781 C 32.625 181.554688 32.492188 181.050781 32.410156 180.527344 C 32.332031 180.007812 32.300781 179.484375 32.320312 178.960938 C 32.34375 178.433594 32.414062 177.917969 32.535156 177.40625 C 32.660156 176.894531 32.832031 176.398438 33.050781 175.921875 C 33.269531 175.445312 33.535156 174.996094 33.84375 174.570312 C 34.152344 174.144531 34.5 173.757812 34.882812 173.402344 C 35.269531 173.042969 35.683594 172.730469 36.132812 172.457031 C 36.578125 172.183594 37.050781 171.957031 37.542969 171.777344 C 38.03125 171.597656 38.539062 171.46875 39.054688 171.386719 C 39.574219 171.304688 40.09375 171.277344 40.617188 171.300781 C 41.140625 171.324219 41.660156 171.398438 42.167969 171.523438 C 42.679688 171.644531 43.171875 171.820312 43.648438 172.042969 C 44.121094 172.265625 44.574219 172.53125 44.996094 172.839844 C 45.421875 173.152344 45.808594 173.503906 46.164062 173.890625 C 46.519531 174.277344 46.835938 174.695312 47.109375 175.144531 C 47.382812 175.597656 47.609375 176.066406 47.792969 176.5625 Z M 47.792969 176.5625 " fill-opacity="1" fill-rule="nonzero"/><path fill="#e9e6fa" d="M 47.714844 153.179688 C 47.898438 153.675781 48.027344 154.183594 48.109375 154.703125 C 48.191406 155.222656 48.222656 155.746094 48.203125 156.273438 C 48.179688 156.796875 48.109375 157.316406 47.984375 157.828125 C 47.863281 158.339844 47.691406 158.832031 47.472656 159.308594 C 47.253906 159.785156 46.988281 160.238281 46.679688 160.660156 C 46.371094 161.085938 46.023438 161.476562 45.640625 161.832031 C 45.253906 162.1875 44.835938 162.503906 44.390625 162.777344 C 43.941406 163.046875 43.472656 163.277344 42.980469 163.457031 C 42.488281 163.636719 41.984375 163.765625 41.464844 163.847656 C 40.949219 163.925781 40.429688 163.957031 39.902344 163.933594 C 39.378906 163.910156 38.863281 163.835938 38.355469 163.710938 C 37.84375 163.585938 37.351562 163.414062 36.875 163.191406 C 36.398438 162.96875 35.949219 162.703125 35.527344 162.390625 C 35.101562 162.082031 34.710938 161.730469 34.355469 161.34375 C 34 160.957031 33.6875 160.539062 33.414062 160.085938 C 33.140625 159.636719 32.910156 159.164062 32.730469 158.671875 C 32.550781 158.175781 32.417969 157.667969 32.335938 157.148438 C 32.253906 156.628906 32.222656 156.105469 32.246094 155.582031 C 32.265625 155.054688 32.339844 154.535156 32.460938 154.027344 C 32.582031 153.515625 32.753906 153.019531 32.972656 152.542969 C 33.195312 152.066406 33.457031 151.617188 33.765625 151.191406 C 34.074219 150.765625 34.421875 150.375 34.808594 150.019531 C 35.191406 149.664062 35.609375 149.351562 36.054688 149.078125 C 36.503906 148.804688 36.972656 148.578125 37.464844 148.398438 C 37.957031 148.21875 38.460938 148.085938 38.980469 148.007812 C 39.496094 147.925781 40.019531 147.898438 40.542969 147.917969 C 41.066406 147.941406 41.582031 148.015625 42.09375 148.140625 C 42.601562 148.265625 43.09375 148.4375 43.570312 148.660156 C 44.046875 148.882812 44.496094 149.148438 44.921875 149.460938 C 45.34375 149.773438 45.734375 150.121094 46.089844 150.507812 C 46.445312 150.898438 46.761719 151.316406 47.035156 151.765625 C 47.308594 152.214844 47.535156 152.6875 47.714844 153.179688 Z M 47.714844 153.179688 " fill-opacity="1" fill-rule="nonzero"/><path fill="#e9e6fa" d="M 47.640625 129.792969 C 47.820312 130.285156 47.953125 130.792969 48.035156 131.3125 C 48.117188 131.832031 48.144531 132.355469 48.125 132.882812 C 48.105469 133.40625 48.03125 133.925781 47.910156 134.4375 C 47.785156 134.949219 47.613281 135.441406 47.394531 135.917969 C 47.175781 136.394531 46.910156 136.847656 46.601562 137.269531 C 46.292969 137.695312 45.945312 138.085938 45.558594 138.441406 C 45.175781 138.796875 44.757812 139.109375 44.3125 139.382812 C 43.863281 139.65625 43.394531 139.882812 42.902344 140.0625 C 42.410156 140.242188 41.90625 140.375 41.386719 140.453125 C 40.871094 140.535156 40.347656 140.5625 39.824219 140.539062 C 39.300781 140.515625 38.785156 140.441406 38.273438 140.316406 C 37.765625 140.191406 37.273438 140.019531 36.796875 139.796875 C 36.320312 139.574219 35.871094 139.308594 35.445312 138.996094 C 35.023438 138.683594 34.632812 138.335938 34.277344 137.949219 C 33.921875 137.558594 33.609375 137.140625 33.335938 136.691406 C 33.0625 136.242188 32.835938 135.769531 32.652344 135.273438 C 32.472656 134.78125 32.339844 134.273438 32.261719 133.753906 C 32.179688 133.234375 32.148438 132.710938 32.167969 132.183594 C 32.191406 131.660156 32.261719 131.140625 32.386719 130.628906 C 32.507812 130.117188 32.679688 129.625 32.898438 129.148438 C 33.121094 128.671875 33.382812 128.21875 33.691406 127.796875 C 34 127.371094 34.347656 126.980469 34.734375 126.625 C 35.121094 126.269531 35.535156 125.957031 35.984375 125.683594 C 36.429688 125.410156 36.898438 125.183594 37.390625 125.003906 C 37.882812 124.824219 38.390625 124.691406 38.90625 124.613281 C 39.425781 124.53125 39.945312 124.503906 40.46875 124.527344 C 40.992188 124.550781 41.511719 124.625 42.019531 124.75 C 42.53125 124.875 43.023438 125.046875 43.496094 125.269531 C 43.972656 125.492188 44.421875 125.757812 44.847656 126.070312 C 45.269531 126.382812 45.660156 126.730469 46.015625 127.117188 C 46.371094 127.507812 46.6875 127.925781 46.960938 128.375 C 47.234375 128.824219 47.460938 129.296875 47.640625 129.792969 Z M 47.640625 129.792969 " fill-opacity="1" fill-rule="nonzero"/><path fill="#000000" d="M 40.355469 117.765625 C 40.019531 117.765625 39.75 117.496094 39.75 117.15625 L 39.609375 42.941406 C 39.609375 42.777344 39.675781 42.625 39.789062 42.511719 C 39.902344 42.394531 40.058594 42.332031 40.21875 42.332031 L 74.832031 42.332031 C 75.167969 42.332031 75.4375 42.605469 75.4375 42.9375 C 75.4375 43.273438 75.164062 43.546875 74.832031 43.546875 L 40.828125 43.546875 L 40.964844 117.152344 C 40.964844 117.488281 40.691406 117.761719 40.355469 117.765625 Z M 40.355469 117.765625 " fill-opacity="1" fill-rule="nonzero"/><g clip-path="url(#8216e25fe6)"><g clip-path="url(#5a8e15a3a2)"><g transform="matrix(1, 0, 0, 1, 579, 334)"><g clip-path="url(#ba2e1aa776)"><g clip-path="url(#3ecafd1034)"><g clip-path="url(#dad4313f58)"><path fill="#6c4dd3" d="M 0.921875 0.902344 L 11.984375 0.902344 L 11.984375 11.964844 L 0.921875 11.964844 Z M 0.921875 0.902344 " fill-opacity="1" fill-rule="nonzero"/></g></g></g></g></g></g></svg>